BesixdouzeSans-Regular.sfdir
StartChar: dollar
Encoding: 226 36 226
GlifName: dollar
Width: 1100
VWidth: 0
Flags: W
LayerCount: 2
Fore
SplineSet
892 1300 m 257
NamedP: "hr00"
 875 1314 875 1314 849 1328.5 c 128
 823 1343 823 1343 791 1355 c 128
 759 1367 759 1367 722 1376 c 128
 685 1385 685 1385 646 1388 c 257
 646 863 l 257
 715 831 715 831 782.5 794 c 128
 850 757 850 757 903.5 707 c 128
 957 657 957 657 990 590 c 128
 1023 523 1023 523 1023 432 c 257
 1023 338 1023 338 995 264 c 128
 967 190 967 190 917 135 c 128
 867 80 867 80 798 45 c 128
 729 10 729 10 646 -5 c 257
 646 -200 l 257
 500 -200 l 257
 500 -17 l 257
 442 -16 442 -16 385 -5.5 c 128
 328 5 328 5 276.5 21 c 128
 225 37 225 37 181 57.5 c 128
 137 78 137 78 105 100 c 257
 223 241 l 257
 243 228 243 228 269 212 c 128
 295 196 295 196 329 181.5 c 128
 363 167 363 167 405 157.5 c 128
 447 148 447 148 500 148 c 257
 500 721 l 257
 431 755 431 755 363 792 c 128
 295 829 295 829 242 875 c 128
 189 921 189 921 156 979.5 c 128
 123 1038 123 1038 123 1116 c 257
 123 1221 123 1221 154.5 1293.5 c 128
 186 1366 186 1366 238 1412.5 c 128
 290 1459 290 1459 358 1483 c 128
 426 1507 426 1507 500 1515 c 257
 500 1700 l 257
 646 1720 l 257
 646 1518 l 257
 752 1512 752 1512 834.5 1481.5 c 128
 917 1451 917 1451 986 1400 c 257
 892 1300 l 257
NamedP: "hr00"
833 400 m 257
 833 445 833 445 816 482.5 c 128
 799 520 799 520 770 551.5 c 128
 741 583 741 583 701 610 c 128
 661 637 661 637 616 662 c 257
 616 158 l 257
 665 167 665 167 705 186 c 128
 745 205 745 205 773.5 234.5 c 128
 802 264 802 264 817.5 305 c 128
 833 346 833 346 833 400 c 257
313 1147 m 257
 313 1106 313 1106 330 1073 c 128
 347 1040 347 1040 376 1012 c 128
 405 984 405 984 445 961 c 128
 485 938 485 938 530 916 c 257
 530 1383 l 257
 489 1376 489 1376 450.5 1360 c 128
 412 1344 412 1344 381 1316.5 c 128
 350 1289 350 1289 331.5 1247 c 128
 313 1205 313 1205 313 1147 c 257
EndSplineSet
PickledDataWithLists: "(dp0
Vcom.adobe.type.autohint
p1
(c_codecs
encode
p2
(Vdata
p3
Vlatin1
p4
tp5
Rp6
g2
(V<data>\\u000a        <hintSetList>\\u000a          <hintset pointTag=\"hr00\">\\u000a            <hstem pos=\"-17\" width=\"165\"/>\\u000a            <hstem pos=\"1352\" width=\"165\"/>\\u000a            <hstem pos=\"1719\" width=\"-20\"/>\\u000a            <vstem pos=\"111\" width=\"204\"/>\\u000a            <vstem pos=\"805\" width=\"204\"/>\\u000a          </hintset>\\u000a        </hintSetList>\\u000a      </data>
p7
g4
tp8
Rp9
Ntp10
s."
EndChar
StartChar: ampersand
Encoding: 111 38 111
GlifName: ampersand
Width: 1400
VWidth: 0
Flags: W
LayerCount: 2
Fore
SplineSet
1306 713 m 257
 1112 692 l 257
 1109 502 1109 502 1027 355 c 257
 671 826 671 826 586.5 945.5 c 0
 502 1065 502 1065 489 1112 c 256
 479 1146 479 1146 479 1175 c 256
 479 1262 479 1262 538 1310.5 c 0
 597 1359 597 1359 676 1359 c 256
 728 1359 728 1359 774 1345.5 c 0
 820 1332 820 1332 856.5 1307 c 0
 893 1282 893 1282 913 1264.5 c 0
 933 1247 933 1247 958 1220 c 257
 1038 1338 l 257
 906 1520 906 1520 676 1520 c 256
 508 1520 508 1520 406 1428.5 c 0
 304 1337 304 1337 304 1176 c 256
 304 1041 304 1041 391 909 c 257
 269 831 269 831 194.5 718 c 0
 120 605 120 605 120 474 c 256
 120 368 120 368 167.5 274 c 0
 215 180 215 180 293 116.5 c 0
 371 53 371 53 470 16.5 c 0
 569 -20 569 -20 672 -20 c 256
 864 -20 864 -20 1011 77 c 257
 1083 -20 l 257
 1306 -20 l 257
 1173 157 l 257
 1092 141 l 257
 1306 371 1306 371 1306 713 c 257
672 149 m 257
 515 155 515 155 402 245 c 0
 289 335 289 335 289 475 c 256
 289 625 289 625 452 745 c 257
 452 828 l 257
 906 217 l 257
 803 149 803 149 672 149 c 257
EndSplineSet
EndChar
StartChar: parenleft
Encoding: 402 40 402
GlifName: parenleft
Width: 900
VWidth: 0
Flags: W
LayerCount: 2
Fore
SplineSet
200 1180 m 257
NamedP: "hr00"
 200 1269 200 1269 209 1346 c 128
 218 1423 218 1423 248.5 1479.5 c 128
 279 1536 279 1536 338.5 1568 c 128
 398 1600 398 1600 500 1600 c 257
 519 1600 519 1600 540 1598.5 c 128
 561 1597 561 1597 580 1594 c 128
 599 1591 599 1591 614.5 1586 c 128
 630 1581 630 1581 639 1575 c 257
 570 1449 l 257
 564 1450 564 1450 556 1451 c 257
 549 1452 549 1452 540 1453 c 128
 531 1454 531 1454 520 1454 c 257
 476 1454 476 1454 451.5 1433 c 128
 427 1412 427 1412 415.5 1376 c 128
 404 1340 404 1340 402 1293 c 128
 400 1246 400 1246 400 1194 c 257
 400 -14 l 257
 400 -66 400 -66 402 -113 c 128
 404 -160 404 -160 415.5 -196 c 128
 427 -232 427 -232 451.5 -253 c 128
 476 -274 476 -274 520 -274 c 257
 531 -274 531 -274 540 -273.5 c 128
 549 -273 549 -273 556 -272 c 257
 564 -271 564 -271 570 -269 c 257
 639 -395 l 257
 630 -401 630 -401 614.5 -406 c 128
 599 -411 599 -411 580 -414 c 128
 561 -417 561 -417 540 -418.5 c 128
 519 -420 519 -420 500 -420 c 257
 398 -420 398 -420 338.5 -388 c 128
 279 -356 279 -356 248.5 -299.5 c 128
 218 -243 218 -243 209 -166 c 128
 200 -89 200 -89 200 0 c 257
 200 1180 l 257
NamedP: "hr00"
EndSplineSet
PickledDataWithLists: "(dp0
Vcom.adobe.type.autohint
p1
(c_codecs
encode
p2
(Vdata
p3
Vlatin1
p4
tp5
Rp6
g2
(V<data>\\u000a        <hintSetList>\\u000a          <hintset pointTag=\"hr00\">\\u000a            <hstem pos=\"-420\" width=\"146\"/>\\u000a            <hstem pos=\"1374\" width=\"146\"/>\\u000a            <vstem pos=\"200\" width=\"200\"/>\\u000a          </hintset>\\u000a        </hintSetList>\\u000a      </data>
p7
g4
tp8
Rp9
Ntp10
s."
EndChar
StartChar: parenright
Encoding: 405 41 405
GlifName: parenright
Width: 900
VWidth: 0
Flags: W
LayerCount: 2
Fore
SplineSet
699 0 m 257
NamedP: "hr00"
 699 -89 699 -89 690 -166 c 128
 681 -243 681 -243 650.5 -299.5 c 128
 620 -356 620 -356 560.5 -388 c 128
 501 -420 501 -420 399 -420 c 257
 380 -420 380 -420 359 -418.5 c 128
 338 -417 338 -417 319 -414 c 128
 300 -411 300 -411 284.5 -406 c 128
 269 -401 269 -401 260 -395 c 257
 329 -269 l 257
 335 -271 335 -271 343 -272 c 257
 350 -273 350 -273 359 -273.5 c 128
 368 -274 368 -274 379 -274 c 257
 423 -274 423 -274 447.5 -253 c 128
 472 -232 472 -232 483.5 -196 c 128
 495 -160 495 -160 497 -113 c 128
 499 -66 499 -66 499 -14 c 257
 499 1194 l 257
 499 1246 499 1246 497 1293 c 128
 495 1340 495 1340 483.5 1376 c 128
 472 1412 472 1412 447.5 1433 c 128
 423 1454 423 1454 379 1454 c 257
 368 1454 368 1454 359 1453 c 128
 350 1452 350 1452 343 1451 c 257
 335 1450 335 1450 329 1449 c 257
 260 1575 l 257
 269 1581 269 1581 284.5 1586 c 128
 300 1591 300 1591 319 1594 c 128
 338 1597 338 1597 359 1598.5 c 128
 380 1600 380 1600 399 1600 c 257
 501 1600 501 1600 560.5 1568 c 128
 620 1536 620 1536 650.5 1479.5 c 128
 681 1423 681 1423 690 1346 c 128
 699 1269 699 1269 699 1180 c 257
 699 0 l 257
NamedP: "hr00"
EndSplineSet
PickledDataWithLists: "(dp0
Vcom.adobe.type.autohint
p1
(c_codecs
encode
p2
(Vdata
p3
Vlatin1
p4
tp5
Rp6
g2
(V<data>\\u000a        <hintSetList>\\u000a          <hintset pointTag=\"hr00\">\\u000a            <hstem pos=\"-420\" width=\"146\"/>\\u000a            <hstem pos=\"1374\" width=\"146\"/>\\u000a            <vstem pos=\"499\" width=\"200\"/>\\u000a          </hintset>\\u000a        </hintSetList>\\u000a      </data>
p7
g4
tp8
Rp9
Ntp10
s."
EndChar
StartChar: asterisk
Encoding: 137 42 137
GlifName: asterisk
Width: 1100
VWidth: 0
Flags: W
LayerCount: 2
Fore
SplineSet
568 1037 m 257
 647 1040 l 257
 889 1118 l 257
 835 1240 l 257
 610 1168 l 257
 544 1118 l 257
 570 1198 l 257
 570 1450 l 257
 437 1436 l 257
 437 1202 l 257
 459 1120 l 257
 393 1172 l 257
 155 1249 l 257
 128 1118 l 257
 351 1045 l 257
 432 1041 l 257
 367 996 l 257
 219 793 l 257
 335 726 l 257
 475 918 l 257
 499 990 l 257
 523 918 l 257
 672 712 l 257
 771 802 l 257
 631 994 l 257
 568 1037 l 257
EndSplineSet
EndChar
StartChar: comma
Encoding: 203 44 203
GlifName: comma
Width: 500
VWidth: 0
Flags: W
LayerCount: 2
Fore
SplineSet
102 133 m 257
NamedP: "hr00"
 102 162 102 162 113.5 188.5 c 128
 125 215 125 215 145.5 234 c 128
 166 253 166 253 193 265 c 128
 220 277 220 277 250 277 c 257
 279 277 279 277 305.5 266.5 c 128
 332 256 332 256 352.5 236 c 128
 373 216 373 216 385.5 185.5 c 128
 398 155 398 155 398 116 c 257
 398 63 398 63 391.5 13.5 c 128
 385 -36 385 -36 364.5 -87 c 128
 344 -138 344 -138 306 -191 c 128
 268 -244 268 -244 206 -301 c 257
 154 -278 l 257
 177 -234 177 -234 195 -187 c 257
 210 -148 210 -148 222.5 -101.5 c 128
 235 -55 235 -55 235 -11 c 257
 210 -10 210 -10 186 0 c 128
 162 10 162 10 143 27.5 c 128
 124 45 124 45 113 72 c 128
 102 99 102 99 102 133 c 257
NamedP: "hr00"
EndSplineSet
PickledDataWithLists: "(dp0
Vcom.adobe.type.autohint
p1
(c_codecs
encode
p2
(Vdata
p3
Vlatin1
p4
tp5
Rp6
g2
(V<data>\\u000a        <hintSetList>\\u000a          <hintset pointTag=\"hr00\">\\u000a            <hstem pos=\"277\" width=\"-288\"/>\\u000a            <vstem pos=\"102\" width=\"296\"/>\\u000a          </hintset>\\u000a        </hintSetList>\\u000a      </data>
p7
g4
tp8
Rp9
Ntp10
s."
EndChar
StartChar: period
Encoding: 412 46 412
GlifName: period
Width: 600
VWidth: 0
Flags: W
LayerCount: 2
Fore
SplineSet
86 150 m 257
NamedP: "hr00"
 86 184 86 184 99 214 c 128
 112 244 112 244 134.5 266.5 c 128
 157 289 157 289 186.5 302 c 128
 216 315 216 315 250 315 c 257
 284 315 284 315 314 302 c 128
 344 289 344 289 366.5 266.5 c 128
 389 244 389 244 402 214 c 128
 415 184 415 184 415 150 c 257
 415 116 415 116 402 85.5 c 128
 389 55 389 55 367 32.5 c 128
 345 10 345 10 315.5 -3.5 c 128
 286 -17 286 -17 252 -17 c 257
 218 -17 218 -17 187.5 -3.5 c 128
 157 10 157 10 134.5 32.5 c 128
 112 55 112 55 99 85.5 c 128
 86 116 86 116 86 150 c 257
NamedP: "hr00"
EndSplineSet
PickledDataWithLists: "(dp0
Vcom.adobe.type.autohint
p1
(c_codecs
encode
p2
(Vdata
p3
Vlatin1
p4
tp5
Rp6
g2
(V<data>\\u000a        <hintSetList>\\u000a          <hintset pointTag=\"hr00\">\\u000a            <hstem pos=\"-17\" width=\"332\"/>\\u000a            <vstem pos=\"86\" width=\"329\"/>\\u000a          </hintset>\\u000a        </hintSetList>\\u000a      </data>
p7
g4
tp8
Rp9
Ntp10
s."
EndChar
StartChar: slash
Encoding: 485 47 485
GlifName: slash
Width: 1100
VWidth: 0
Flags: W
LayerCount: 2
Fore
SplineSet
285 -100 m 257
NamedP: "av02"
 75 -100 l 257
 785 1600 l 257
NamedP: "av01"
 985 1600 l 257
 285 -100 l 257
NamedP: "av02"
EndSplineSet
PickledDataWithLists: "(dp0
Vcom.adobe.type.autohint
p1
(c_codecs
encode
p2
(Vdata
p3
Vlatin1
p4
tp5
Rp6
g2
(V<data>\\u000a        <hintSetList>\\u000a          <hintset pointTag=\"av02\">\\u000a            <hstem pos=\"-79\" width=\"-21\"/>\\u000a            <hstem pos=\"1600\" width=\"-20\"/>\\u000a          </hintset>\\u000a        </hintSetList>\\u000a      </data>
p7
g4
tp8
Rp9
Ntp10
sVcom.fontlab.ttprogram
p11
(g2
(Vdata
p12
g4
tp13
Rp14
g2
(V<data>\\u000a        <ttProgram>\\u000a          <ttc align=\"round\" code=\"alignv\" point=\"av01\"/>\\u000a          <ttc align=\"round\" code=\"alignv\" point=\"av02\"/>\\u000a        </ttProgram>\\u000a      </data>
p15
g4
tp16
Rp17
Ntp18
s."
EndChar
StartChar: three
Encoding: 520 51 520
GlifName: three
Width: 1300
VWidth: 0
Flags: W
LayerCount: 2
Fore
SplineSet
215 1340 m 257
NamedP: "sv01"
 230 1500 l 257
NamedP: "at01"
 960 1500 l 257
 960 1360 l 257
 948 1320 948 1320 919.5 1276.5 c 128
NamedP: "fh02"
 891 1233 891 1233 852.5 1189 c 128
 814 1145 814 1145 768.5 1101.5 c 128
NamedP: "fh03"
 723 1058 723 1058 677 1019 c 257
NamedP: "fh04"
 545 945 l 257
 555 947 555 947 570.5 947.5 c 128
 586 948 586 948 600 948 c 257
NamedP: "dv01"
 697 948 697 948 780.5 924 c 128
 864 900 864 900 925.5 851.5 c 128
 987 803 987 803 1022.5 728.5 c 128
 1058 654 1058 654 1058 553 c 257
NamedP: "dh02"
 1058 456 1058 456 1022 377 c 128
 986 298 986 298 923.5 236.5 c 128
 861 175 861 175 777 130.5 c 128
 693 86 693 86 597.5 57 c 128
 502 28 502 28 400 14 c 128
 298 0 298 0 200 0 c 257
NamedP: "ab01"
 200 160 l 257
NamedP: "dh04"
 283 163 283 163 363 175 c 128
 443 187 443 187 515 208.5 c 128
 587 230 587 230 648 261 c 128
 709 292 709 292 753.5 333.5 c 128
 798 375 798 375 823 427 c 128
 848 479 848 479 848 543 c 257
NamedP: "dh01"
 848 615 848 615 817.5 663 c 128
 787 711 787 711 734 739 c 128
 681 767 681 767 609.5 778.5 c 128
 538 790 538 790 456 790 c 257
NamedP: "dv02"
 424 790 424 790 386.5 788.5 c 128
 349 787 349 787 319 785 c 257
NamedP: "dh03"
 319 940 l 257
 360 970 360 970 408 1008 c 128
NamedP: "fh06"
 456 1046 456 1046 505 1087.5 c 128
NamedP: "fh07"
 554 1129 554 1129 600.5 1171.5 c 128
NamedP: "fh08"
 647 1214 647 1214 685 1252.5 c 128
NamedP: "fh09"
 723 1291 723 1291 749 1324 c 128
NamedP: "fh10"
 775 1357 775 1357 783 1380 c 257
NamedP: "iv01"
 631 1340 l 257
 215 1340 l 257
NamedP: "sv01"
EndSplineSet
PickledDataWithLists: "(dp0
Vcom.adobe.type.autohint
p1
(c_codecs
encode
p2
(Vdata
p3
Vlatin1
p4
tp5
Rp6
g2
(V<data>\\u000a        <hintSetList>\\u000a          <hintset pointTag=\"sv01\">\\u000a            <hstem pos=\"0\" width=\"160\"/>\\u000a            <hstem pos=\"790\" width=\"158\"/>\\u000a            <hstem pos=\"1340\" width=\"160\"/>\\u000a            <vstem pos=\"848\" width=\"210\"/>\\u000a          </hintset>\\u000a        </hintSetList>\\u000a      </data>
p7
g4
tp8
Rp9
Ntp10
sVcom.fontlab.ttprogram
p11
(g2
(Vdata
p12
g4
tp13
Rp14
g2
(V<data>\\u000a        <ttProgram>\\u000a          <ttc code=\"doubleh\" point1=\"dh01\" point2=\"dh02\" stem=\"X: 208\"/>\\u000a          <ttc code=\"doubleh\" point1=\"dh03\" point2=\"dh04\" stem=\"X: ecart du B\"/>\\u000a          <ttc code=\"singleh\" point1=\"dh02\" point2=\"rsb\"/>\\u000a          <ttc code=\"alignt\" point=\"at01\" zone=\"t: 1\"/>\\u000a          <ttc code=\"alignb\" point=\"ab01\" zone=\"b: 0\"/>\\u000a          <ttc code=\"doublev\" point1=\"dv01\" point2=\"dv02\" stem=\"Y: 153\"/>\\u000a          <ttc code=\"singlev\" point1=\"at01\" point2=\"sv01\" stem=\"Y: 162\"/>\\u000a          <ttc code=\"singlev\" point1=\"ab01\" point2=\"dh04\" stem=\"Y: 162\"/>\\u000a          <ttc code=\"interpolatev\" point=\"iv01\" point1=\"at01\" point2=\"sv01\"/>\\u000a          <ttc code=\"fdeltah\" delta=\"-2\" point=\"fh01\" ppm1=\"17\" ppm2=\"17\"/>\\u000a          <ttc code=\"fdeltah\" delta=\"-2\" point=\"fh02\" ppm1=\"17\" ppm2=\"17\"/>\\u000a          <ttc code=\"fdeltah\" delta=\"-3\" point=\"fh03\" ppm1=\"17\" ppm2=\"17\"/>\\u000a          <ttc code=\"fdeltah\" delta=\"-3\" point=\"fh04\" ppm1=\"17\" ppm2=\"17\"/>\\u000a          <ttc code=\"fdeltah\" delta=\"5\" point=\"fh05\" ppm1=\"17\" ppm2=\"17\"/>\\u000a          <ttc code=\"fdeltah\" delta=\"5\" point=\"fh06\" ppm1=\"17\" ppm2=\"17\"/>\\u000a          <ttc code=\"fdeltah\" delta=\"5\" point=\"fh07\" ppm1=\"17\" ppm2=\"17\"/>\\u000a          <ttc code=\"fdeltah\" delta=\"5\" point=\"fh08\" ppm1=\"17\" ppm2=\"17\"/>\\u000a          <ttc code=\"fdeltah\" delta=\"5\" point=\"fh09\" ppm1=\"17\" ppm2=\"17\"/>\\u000a          <ttc code=\"fdeltah\" delta=\"5\" point=\"fh10\" ppm1=\"17\" ppm2=\"17\"/>\\u000a          <ttc code=\"fdeltah\" delta=\"4\" point=\"iv01\" ppm1=\"17\" ppm2=\"17\"/>\\u000a        </ttProgram>\\u000a      </data>
p15
g4
tp16
Rp17
Ntp18
s."
EndChar
StartChar: four
Encoding: 281 52 281
GlifName: four
Width: 1300
VWidth: 0
Flags: W
LayerCount: 2
Fore
SplineSet
1085 300 m 257
NamedP: "dv01"
 905 300 l 257
 905 0 l 257
NamedP: "dh02"
 695 0 l 257
NamedP: "dh01"
 695 300 l 257
NamedP: "sv01"
 100 300 l 257
 100 471 l 257
NamedP: "sh01"
 584 1520 l 257
NamedP: "at01"
 773 1500 l 257
NamedP: "ih01"
 358 600 l 257
 265 460 l 257
 695 460 l 257
NamedP: "sh02"
 695 867 l 257
 905 850 l 257
NamedP: "sh03"
 905 460 l 257
 1100 460 l 257
NamedP: "dv02"
 1085 300 l 257
NamedP: "dv01"
EndSplineSet
PickledDataWithLists: "(dp0
Vcom.adobe.type.autohint
p1
(c_codecs
encode
p2
(Vdata
p3
Vlatin1
p4
tp5
Rp6
g2
(V<data>\\u000a        <hintSetList>\\u000a          <hintset pointTag=\"dv01\">\\u000a            <hstem pos=\"21\" width=\"-21\"/>\\u000a            <hstem pos=\"300\" width=\"160\"/>\\u000a            <hstem pos=\"1520\" width=\"-20\"/>\\u000a            <vstem pos=\"695\" width=\"210\"/>\\u000a          </hintset>\\u000a        </hintSetList>\\u000a      </data>
p7
g4
tp8
Rp9
Ntp10
sVcom.fontlab.ttprogram
p11
(g2
(Vdata
p12
g4
tp13
Rp14
g2
(V<data>\\u000a        <ttProgram>\\u000a          <ttc align=\"round\" code=\"alignh\" point=\"lsb\"/>\\u000a          <ttc code=\"doubleh\" point1=\"dh01\" point2=\"dh02\" stem=\"X: 208\"/>\\u000a          <ttc code=\"singleh\" point1=\"lsb\" point2=\"sh01\" round=\"true\"/>\\u000a          <ttc code=\"interpolateh\" point=\"ih01\" point1=\"dh01\" point2=\"dh02\"/>\\u000a          <ttc code=\"singleh\" point1=\"dh01\" point2=\"sh02\"/>\\u000a          <ttc code=\"singleh\" point1=\"dh02\" point2=\"sh03\"/>\\u000a          <ttc code=\"alignt\" point=\"at01\" zone=\"t: 1\"/>\\u000a          <ttc code=\"alignb\" point=\"dh02\" zone=\"b: 0\"/>\\u000a          <ttc code=\"doublev\" point1=\"dv01\" point2=\"dv02\" stem=\"Y: 162\"/>\\u000a          <ttc code=\"singlev\" point1=\"dv01\" point2=\"sv01\"/>\\u000a          <ttc code=\"interpolatev\" point=\"ih01\" point1=\"dh02\" point2=\"at01\"/>\\u000a        </ttProgram>\\u000a      </data>
p15
g4
tp16
Rp17
Ntp18
s."
EndChar
StartChar: five
Encoding: 270 53 270
GlifName: five
Width: 1300
VWidth: 0
Flags: W
LayerCount: 2
Fore
SplineSet
408 982 m 257
NamedP: "hr00"
 415 986 415 986 432.5 995 c 128
 450 1004 450 1004 476 1013 c 128
 502 1022 502 1022 535.5 1028.5 c 128
 569 1035 569 1035 610 1035 c 257
NamedP: "dv01"
 714 1035 714 1035 795.5 1002.5 c 128
 877 970 877 970 933.5 913.5 c 128
 990 857 990 857 1019.5 781 c 128
 1049 705 1049 705 1049 619 c 257
NamedP: "dh02"
 1049 518 1049 518 1013 432.5 c 128
 977 347 977 347 914.5 278.5 c 128
 852 210 852 210 768.5 158 c 128
 685 106 685 106 590.5 70.5 c 128
 496 35 496 35 396 17.5 c 128
 296 0 296 0 200 0 c 257
NamedP: "av01"
 200 160 l 257
NamedP: "sh01"
 275 162 275 162 352 178.5 c 128
 429 195 429 195 500.5 222.5 c 128
 572 250 572 250 634.5 289 c 128
 697 328 697 328 743.5 375.5 c 128
 790 423 790 423 817 479 c 128
 844 535 844 535 844 598 c 257
NamedP: "dh01"
 844 649 844 649 827.5 697 c 128
 811 745 811 745 778.5 782.5 c 128
 746 820 746 820 697 843 c 128
 648 866 648 866 583 866 c 257
NamedP: "dv02"
 532 866 532 866 491 859.5 c 128
 450 853 450 853 417.5 843.5 c 128
 385 834 385 834 362 822 c 128
 339 810 339 810 324 800 c 257
 200 800 l 257
NamedP: "sh02"
 200 1500 l 257
NamedP: "at01"
 953 1500 l 257
NamedP: "at02"
 953 1340 l 257
NamedP: "sv01"
 408 1340 l 257
NamedP: "sh03"
 408 982 l 257
NamedP: "hr00"
EndSplineSet
PickledDataWithLists: "(dp0
Vcom.adobe.type.autohint
p1
(c_codecs
encode
p2
(Vdata
p3
Vlatin1
p4
tp5
Rp6
g2
(V<data>\\u000a        <hintSetList>\\u000a          <hintset pointTag=\"hr00\">\\u000a            <hstem pos=\"0\" width=\"160\"/>\\u000a            <hstem pos=\"866\" width=\"169\"/>\\u000a            <hstem pos=\"1340\" width=\"160\"/>\\u000a            <vstem pos=\"200\" width=\"208\"/>\\u000a            <vstem pos=\"844\" width=\"205\"/>\\u000a          </hintset>\\u000a        </hintSetList>\\u000a      </data>
p7
g4
tp8
Rp9
Ntp10
sVcom.fontlab.ttprogram
p11
(g2
(Vdata
p12
g4
tp13
Rp14
g2
(V<data>\\u000a        <ttProgram>\\u000a          <ttc align=\"round\" code=\"alignh\" point=\"lsb\"/>\\u000a          <ttc code=\"doubleh\" point1=\"dh01\" point2=\"dh02\" stem=\"X: 208\"/>\\u000a          <ttc code=\"singleh\" point1=\"lsb\" point2=\"sh01\" round=\"true\"/>\\u000a          <ttc code=\"singleh\" point1=\"lsb\" point2=\"sh02\" round=\"true\"/>\\u000a          <ttc code=\"singleh\" point1=\"sh02\" point2=\"sh03\" stem=\"X: 208\"/>\\u000a          <ttc align=\"right\" code=\"alignv\" point=\"av01\"/>\\u000a          <ttc code=\"alignt\" point=\"at01\" zone=\"t: 1\"/>\\u000a          <ttc code=\"alignt\" point=\"at02\" zone=\"t: 1\"/>\\u000a          <ttc code=\"doublev\" point1=\"dv01\" point2=\"dv02\" stem=\"Y: 171\"/>\\u000a          <ttc align=\"round\" code=\"singlev\" point1=\"av01\" point2=\"sh01\" stem=\"Y: 162\"/>\\u000a          <ttc code=\"singlev\" point1=\"at01\" point2=\"sv01\" stem=\"Y: 162\"/>\\u000a        </ttProgram>\\u000a      </data>
p15
g4
tp16
Rp17
Ntp18
s."
EndChar
StartChar: seven
Encoding: 471 55 471
GlifName: seven
Width: 1300
VWidth: 0
Flags: W
LayerCount: 2
Fore
SplineSet
200 1500 m 257
NamedP: "at01"
 1100 1500 l 257
NamedP: "at02"
 1100 1370 l 257
NamedP: "sh01"
 1100 1327 1100 1327 1067.5 1259.5 c 128
 1035 1192 1035 1192 985 1108 c 128
 935 1024 935 1024 876 927.5 c 128
 817 831 817 831 763 729.5 c 128
 709 628 709 628 669 526 c 128
 629 424 629 424 618 329 c 257
NamedP: "sh04"
 613 288 613 288 610.5 244.5 c 128
 608 201 608 201 606.5 158 c 128
 605 115 605 115 605 74.5 c 128
 605 34 605 34 605 0 c 257
NamedP: "sh03"
 400 0 l 257
NamedP: "sh02"
 400 30 400 30 400.5 80.5 c 128
 401 131 401 131 403 187 c 128
 405 243 405 243 409.5 298 c 128
 414 353 414 353 422 392 c 257
 445 499 445 499 488 602.5 c 128
 531 706 531 706 581.5 801.5 c 128
 632 897 632 897 685 982 c 128
 738 1067 738 1067 781 1136.5 c 128
 824 1206 824 1206 851.5 1258 c 128
 879 1310 879 1310 879 1340 c 257
NamedP: "sv01"
 200 1340 l 257
 200 1500 l 257
NamedP: "at01"
EndSplineSet
PickledDataWithLists: "(dp0
Vcom.adobe.type.autohint
p1
(c_codecs
encode
p2
(Vdata
p3
Vlatin1
p4
tp5
Rp6
g2
(V<data>\\u000a        <hintSetList>\\u000a          <hintset pointTag=\"at01\">\\u000a            <hstem pos=\"21\" width=\"-21\"/>\\u000a            <hstem pos=\"1340\" width=\"160\"/>\\u000a            <vstem pos=\"400\" width=\"205\"/>\\u000a            <vstem pos=\"879\" width=\"221\"/>\\u000a          </hintset>\\u000a        </hintSetList>\\u000a      </data>
p7
g4
tp8
Rp9
Ntp10
sVcom.fontlab.ttprogram
p11
(g2
(Vdata
p12
g4
tp13
Rp14
g2
(V<data>\\u000a        <ttProgram>\\u000a          <ttc align=\"round\" code=\"alignh\" point=\"lsb\"/>\\u000a          <ttc align=\"right\" code=\"alignh\" point=\"rsb\"/>\\u000a          <ttc code=\"singleh\" point1=\"rsb\" point2=\"sh01\" round=\"true\"/>\\u000a          <ttc align=\"round\" code=\"singleh\" point1=\"lsb\" point2=\"sh02\"/>\\u000a          <ttc code=\"singleh\" point1=\"sh02\" point2=\"sh03\" stem=\"X: 208\"/>\\u000a          <ttc align=\"round\" code=\"singleh\" point1=\"sh03\" point2=\"sh04\"/>\\u000a          <ttc code=\"alignt\" point=\"at01\" zone=\"t: 1\"/>\\u000a          <ttc code=\"alignt\" point=\"at02\" zone=\"t: 1\"/>\\u000a          <ttc code=\"alignb\" point=\"sh03\" zone=\"b: 0\"/>\\u000a          <ttc code=\"alignb\" point=\"sh02\" zone=\"b: 0\"/>\\u000a          <ttc code=\"singlev\" point1=\"at01\" point2=\"sv01\" stem=\"Y: 162\"/>\\u000a        </ttProgram>\\u000a      </data>
p15
g4
tp16
Rp17
Ntp18
s."
EndChar
StartChar: eight
Encoding: 236 56 236
GlifName: eight
Width: 1300
VWidth: 0
Flags: W
LayerCount: 2
Fore
SplineSet
611 1517 m 257
NamedP: "at01"
 702 1517 702 1517 780 1492 c 128
 858 1467 858 1467 914.5 1420 c 128
 971 1373 971 1373 1003 1306 c 128
 1035 1239 1035 1239 1035 1155 c 257
NamedP: "ih01"
 1035 1096 1035 1096 1017.5 1050 c 128
 1000 1004 1000 1004 970 967.5 c 128
 940 931 940 931 900.5 901.5 c 128
 861 872 861 872 817 846 c 257
NamedP: "ih02"
 891 813 891 813 949.5 770.5 c 128
 1008 728 1008 728 1048.5 674.5 c 128
 1089 621 1089 621 1110.5 555 c 128
 1132 489 1132 489 1132 410 c 257
NamedP: "dh04"
 1132 299 1132 299 1088 218.5 c 128
 1044 138 1044 138 971.5 85.5 c 128
 899 33 899 33 806.5 8 c 128
 714 -17 714 -17 617 -17 c 257
NamedP: "ab01"
 522 -17 522 -17 434 11.5 c 128
 346 40 346 40 278.5 95.5 c 128
 211 151 211 151 170 233.5 c 128
 129 316 129 316 129 424 c 257
NamedP: "dh01"
 129 504 129 504 152 569 c 128
 175 634 175 634 215 686 c 128
 255 738 255 738 310 778.5 c 128
 365 819 365 819 429 850 c 257
NamedP: "ih03"
 382 879 382 879 341.5 910 c 128
 301 941 301 941 270.5 976.5 c 128
 240 1012 240 1012 222.5 1053 c 128
 205 1094 205 1094 205 1144 c 257
NamedP: "ih04"
 205 1241 205 1241 243.5 1311.5 c 128
 282 1382 282 1382 342 1427.5 c 128
 402 1473 402 1473 473.5 1495 c 128
 545 1517 545 1517 611 1517 c 257
NamedP: "at01"
600 760 m 257
NamedP: "mv01"
 537 733 537 733 486.5 700.5 c 128
 436 668 436 668 400.5 626.5 c 128
 365 585 365 585 345.5 533 c 128
 326 481 326 481 326 414 c 257
NamedP: "dh02"
 326 354 326 354 350.5 305 c 128
 375 256 375 256 415.5 220.5 c 128
 456 185 456 185 509 166 c 128
 562 147 562 147 618 147 c 257
NamedP: "sv01"
 682 147 682 147 739.5 164.5 c 128
 797 182 797 182 840.5 216 c 128
 884 250 884 250 909 300 c 128
 934 350 934 350 934 415 c 257
NamedP: "dh03"
 934 482 934 482 904.5 534.5 c 128
 875 587 875 587 827.5 628.5 c 128
 780 670 780 670 720.5 702 c 128
 661 734 661 734 600 760 c 257
NamedP: "mv01"
641 923 m 257
NamedP: "iv01"
 733 964 733 964 787.5 1022 c 128
 842 1080 842 1080 842 1163 c 257
NamedP: "sh01"
 842 1213 842 1213 821.5 1249 c 128
 801 1285 801 1285 770 1308 c 128
 739 1331 739 1331 701.5 1341.5 c 128
 664 1352 664 1352 630 1352 c 257
NamedP: "sv02"
 585 1352 585 1352 543 1338.5 c 128
 501 1325 501 1325 469 1300 c 128
 437 1275 437 1275 417.5 1241 c 128
 398 1207 398 1207 398 1167 c 257
NamedP: "sh02"
 398 1121 398 1121 417.5 1085.5 c 128
 437 1050 437 1050 470.5 1021.5 c 128
 504 993 504 993 548 969 c 128
 592 945 592 945 641 923 c 257
NamedP: "iv01"
EndSplineSet
PickledDataWithLists: "(dp0
Vcom.adobe.type.autohint
p1
(c_codecs
encode
p2
(Vdata
p3
Vlatin1
p4
tp5
Rp6
g2
(V<data>\\u000a        <hintSetList>\\u000a          <hintset pointTag=\"dh01\">\\u000a            <hstem pos=\"-17\" width=\"164\"/>\\u000a            <hstem pos=\"-17\" width=\"164\"/>\\u000a            <hstem pos=\"1352\" width=\"165\"/>\\u000a            <hstem pos=\"1352\" width=\"165\"/>\\u000a            <vstem pos=\"129\" width=\"197\"/>\\u000a            <vstem pos=\"205\" width=\"193\"/>\\u000a            <vstem pos=\"842\" width=\"193\"/>\\u000a            <vstem pos=\"934\" width=\"101\"/>\\u000a          </hintset>\\u000a        </hintSetList>\\u000a      </data>
p7
g4
tp8
Rp9
Ntp10
sVcom.fontlab.ttprogram
p11
(g2
(Vdata
p12
g4
tp13
Rp14
g2
(V<data>\\u000a        <ttProgram>\\u000a          <ttc code=\"doubleh\" point1=\"dh01\" point2=\"dh02\" stem=\"X: 199\"/>\\u000a          <ttc code=\"doubleh\" point1=\"dh03\" point2=\"dh04\" stem=\"X: 199\"/>\\u000a          <ttc code=\"mdeltah\" delta=\"2\" point=\"dh03\" ppm1=\"18\" ppm2=\"18\"/>\\u000a          <ttc code=\"interpolateh\" point=\"ih01\" point1=\"dh03\" point2=\"dh04\"/>\\u000a          <ttc code=\"mdeltah\" delta=\"-1\" point=\"ih01\" ppm1=\"16\" ppm2=\"16\"/>\\u000a          <ttc code=\"mdeltah\" delta=\"-2\" point=\"ih01\" ppm1=\"17\" ppm2=\"18\"/>\\u000a          <ttc code=\"interpolateh\" point=\"ih02\" point1=\"dh01\" point2=\"dh04\"/>\\u000a          <ttc code=\"interpolateh\" point=\"ih03\" point1=\"dh01\" point2=\"dh04\"/>\\u000a          <ttc code=\"mdeltah\" delta=\"3\" point=\"ih03\" ppm1=\"16\" ppm2=\"16\"/>\\u000a          <ttc align=\"round\" code=\"interpolateh\" point=\"ih04\" point1=\"dh01\" point2=\"dh02\"/>\\u000a          <ttc code=\"mdeltah\" delta=\"5\" point=\"ih04\" ppm1=\"16\" ppm2=\"16\"/>\\u000a          <ttc code=\"mdeltah\" delta=\"2\" point=\"ih04\" ppm1=\"17\" ppm2=\"17\"/>\\u000a          <ttc code=\"singleh\" point1=\"ih01\" point2=\"sh01\" stem=\"X: 190\"/>\\u000a          <ttc code=\"singleh\" point1=\"ih04\" point2=\"sh02\" stem=\"X: 190\"/>\\u000a          <ttc code=\"mdeltah\" delta=\"2\" point=\"sh02\" ppm1=\"16\" ppm2=\"16\"/>\\u000a          <ttc code=\"singleh\" point1=\"ih01\" point2=\"rsb\" round=\"true\"/>\\u000a          <ttc code=\"alignt\" point=\"at01\" zone=\"t: 1\"/>\\u000a          <ttc code=\"alignb\" point=\"ab01\" zone=\"b: 0\"/>\\u000a          <ttc code=\"interpolatev\" point=\"ih02\" point1=\"ab01\" point2=\"at01\"/>\\u000a          <ttc code=\"interpolatev\" point=\"ih03\" point1=\"ab01\" point2=\"at01\"/>\\u000a          <ttc code=\"mdeltav\" delta=\"3\" point=\"mv01\" ppm1=\"18\" ppm2=\"18\"/>\\u000a          <ttc code=\"mdeltav\" delta=\"4\" point=\"mv01\" ppm1=\"17\" ppm2=\"17\"/>\\u000a          <ttc code=\"mdeltav\" delta=\"2\" point=\"mv01\" ppm1=\"16\" ppm2=\"16\"/>\\u000a          <ttc code=\"mdeltav\" delta=\"2\" point=\"mv01\" ppm1=\"19\" ppm2=\"19\"/>\\u000a          <ttc code=\"singlev\" point1=\"ab01\" point2=\"sv01\" stem=\"Y: 162\"/>\\u000a          <ttc code=\"interpolatev\" point=\"iv01\" point1=\"at01\" point2=\"sv01\"/>\\u000a          <ttc code=\"mdeltav\" delta=\"-2\" point=\"iv01\" ppm1=\"19\" ppm2=\"19\"/>\\u000a          <ttc code=\"singlev\" point1=\"at01\" point2=\"sv02\" stem=\"Y: 162\"/>\\u000a          <ttc code=\"mdeltav\" delta=\"-3\" point=\"sv02\" ppm1=\"18\" ppm2=\"18\"/>\\u000a        </ttProgram>\\u000a      </data>
p15
g4
tp16
Rp17
Ntp18
s."
EndChar
StartChar: at
Encoding: 140 64 140
GlifName: at
Width: 2000
VWidth: 0
Flags: W
LayerCount: 2
Fore
SplineSet
1005 1517 m 256
 846 1517 846 1517 711 1468 c 0
 576 1419 576 1419 477.5 1331.5 c 0
 379 1244 379 1244 310 1123.5 c 0
 241 1003 241 1003 206.5 858 c 0
 172 713 172 713 172 552 c 256
 172 395 172 395 207 250.5 c 0
 242 106 242 106 312 -15.5 c 0
 382 -137 382 -137 481 -226.5 c 0
 580 -316 580 -316 714.5 -366.5 c 0
 849 -417 849 -417 1005 -417 c 256
 1227 -417 1227 -417 1399 -326 c 257
 1319 -176 l 257
 1274 -207 1274 -207 1189.5 -232 c 0
 1105 -257 1105 -257 1013 -257 c 256
 901 -257 901 -257 807 -223.5 c 0
 713 -190 713 -190 645 -129.5 c 0
 577 -69 577 -69 525.5 11 c 0
 474 91 474 91 443 188 c 0
 412 285 412 285 396.5 387 c 0
 381 489 381 489 381 597 c 256
 381 717 381 717 403.5 826 c 0
 426 935 426 935 474.5 1032.5 c 0
 523 1130 523 1130 594 1201.5 c 0
 665 1273 665 1273 768.5 1314.5 c 0
 872 1356 872 1356 997 1356 c 256
 1129 1356 1129 1356 1236.5 1312.5 c 0
 1344 1269 1344 1269 1417 1193 c 0
 1490 1117 1490 1117 1539.5 1010 c 0
 1589 903 1589 903 1611.5 779 c 0
 1634 655 1634 655 1634 513 c 256
 1634 483 1634 483 1631 438.5 c 0
 1628 394 1628 394 1618.5 330.5 c 0
 1609 267 1609 267 1594.5 215 c 0
 1580 163 1580 163 1553.5 125.5 c 0
 1527 88 1527 88 1493 88 c 256
 1454 88 1454 88 1427 116.5 c 0
 1400 145 1400 145 1400 179 c 258
 1400 690 l 258
 1400 787 1400 787 1383 857.5 c 0
 1366 928 1366 928 1325 984 c 0
 1284 1040 1284 1040 1209 1068.5 c 0
 1134 1097 1134 1097 1025 1097 c 256
 931 1097 931 1097 841 1078.5 c 0
 751 1060 751 1060 708 1042 c 0
 665 1024 l 257
 737 890 l 257
 872 937 872 937 1015 937 c 256
 1135 937 1135 937 1177.5 881 c 0
 1220 825 1220 825 1220 705 c 258
 1220 670 l 257
 1210 674 1210 674 1192 681 c 0
 1174 688 1174 688 1113 699 c 0
 1052 710 1052 710 985 710 c 256
 914 710 914 710 844 687 c 0
 774 664 774 664 714 620.5 c 0
 654 577 654 577 617 505 c 0
 580 433 580 433 580 344 c 256
 580 175 580 175 688.5 79 c 0
 797 -17 797 -17 956 -17 c 256
 992 -17 992 -17 1040.5 3 c 0
 1089 23 1089 23 1126 50 c 257
 1221 162 l 257
 1228 56 1228 56 1303.5 6 c 0
 1379 -44 1379 -44 1498 -44 c 256
 1568 -44 1568 -44 1622.5 -20.5 c 0
 1677 3 1677 3 1713 48.5 c 0
 1749 94 1749 94 1773.5 150 c 0
 1798 206 1798 206 1810.5 281.5 c 0
 1823 357 1823 357 1828 429.5 c 0
 1833 502 1833 502 1833 591 c 256
 1833 742 1833 742 1796.5 881 c 0
 1760 1020 1760 1020 1688.5 1135.5 c 0
 1617 1251 1617 1251 1518 1336.5 c 0
 1419 1422 1419 1422 1287 1469.5 c 0
 1155 1517 1155 1517 1005 1517 c 256
1220 274 m 257
 1214 269 1214 269 1203 260 c 0
 1192 251 1192 251 1160 228.5 c 0
 1128 206 1128 206 1098 188.5 c 0
 1068 171 1068 171 1030.5 157 c 0
 993 143 993 143 964 143 c 256
 881 143 881 143 825.5 199.5 c 0
 770 256 770 256 770 345 c 256
 770 451 770 451 838.5 500.5 c 0
 907 550 907 550 1025 550 c 256
 1069 550 1069 550 1118 546 c 0
 1167 542 1167 542 1193.5 537.5 c 0
 1220 533 l 257
 1220 274 l 257
EndSplineSet
EndChar
StartChar: B
Encoding: 10 66 10
GlifName: B_
Width: 1300
VWidth: 0
Flags: W
LayerCount: 2
Fore
SplineSet
400 1147 m 257
NamedP: "sh01"
 400 885 l 257
 510 885 l 257
NamedP: "ih02"
 575 885 575 885 636 899.5 c 128
 697 914 697 914 744.5 945.5 c 128
 792 977 792 977 821 1027 c 128
 850 1077 850 1077 850 1148 c 257
NamedP: "dh03"
 850 1214 850 1214 822 1258 c 128
 794 1302 794 1302 748.5 1328 c 128
 703 1354 703 1354 646 1364.5 c 128
 589 1375 589 1375 532 1375 c 257
NamedP: "sv01"
 515 1375 515 1375 495 1374 c 128
 475 1373 475 1373 454.5 1370.5 c 128
 434 1368 434 1368 414.5 1365 c 128
 395 1362 395 1362 380 1359 c 257
 400 1147 l 257
NamedP: "sh01"
190 0 m 257
NamedP: "dh01"
 190 1290 l 257
 160 1490 l 257
 190 1494 190 1494 229.5 1498 c 128
 269 1502 269 1502 311 1504.5 c 128
 353 1507 353 1507 394 1508.5 c 128
 435 1510 435 1510 467 1510 c 257
NamedP: "at01"
 578 1510 578 1510 681.5 1495.5 c 128
 785 1481 785 1481 865 1443 c 128
 945 1405 945 1405 993 1338.5 c 128
 1041 1272 1041 1272 1041 1169 c 257
NamedP: "dh04"
 1041 1060 1041 1060 988.5 981 c 128
 936 902 936 902 850 860 c 257
 696 816 l 257
NamedP: "ih01"
 843 802 l 257
 904 784 904 784 958.5 755.5 c 128
 1013 727 1013 727 1054 686 c 128
 1095 645 1095 645 1118.5 589 c 128
 1142 533 1142 533 1142 460 c 257
NamedP: "sh03"
 1142 375 1142 375 1119 308 c 128
 1096 241 1096 241 1057 190 c 128
 1018 139 1018 139 965 102.5 c 128
 912 66 912 66 851.5 43.5 c 128
 791 21 791 21 726.5 10.5 c 128
 662 0 662 0 600 0 c 257
 190 0 l 257
NamedP: "dh01"
400 160 m 257
NamedP: "dh02"
 540 160 l 257
 639 160 639 160 714 174.5 c 128
 789 189 789 189 840 222.5 c 128
 891 256 891 256 916.5 311.5 c 128
 942 367 942 367 942 450 c 257
NamedP: "sh02"
 942 525 942 525 916 578 c 128
 890 631 890 631 842.5 665 c 128
 795 699 795 699 728 714.5 c 128
 661 730 661 730 580 730 c 257
NamedP: "ih03"
 400 730 l 257
 400 160 l 257
NamedP: "dh02"
EndSplineSet
PickledDataWithLists: "(dp0
Vcom.adobe.type.autohint
p1
(c_codecs
encode
p2
(Vdata
p3
Vlatin1
p4
tp5
Rp6
g2
(V<data>\\u000a        <hintSetList/>\\u000a      </data>
p7
g4
tp8
Rp9
Ntp10
sVcom.fontlab.ttprogram
p11
(g2
(Vdata
p12
g4
tp13
Rp14
g2
(V<data>\\u000a        <ttProgram>\\u000a          <ttc code=\"doubleh\" point1=\"dh01\" point2=\"dh02\" stem=\"X: 208\"/>\\u000a          <ttc code=\"doubleh\" point1=\"dh03\" point2=\"dh04\" stem=\"X: 199\"/>\\u000a          <ttc code=\"singleh\" point1=\"dh02\" point2=\"sh01\"/>\\u000a          <ttc code=\"interpolateh\" point=\"ih01\" point1=\"ih02\" point2=\"ih03\"/>\\u000a          <ttc code=\"singleh\" point1=\"dh04\" point2=\"sh02\" stem=\"X: ecart du B\"/>\\u000a          <ttc code=\"singleh\" point1=\"sh02\" point2=\"sh03\" stem=\"X: 208\"/>\\u000a          <ttc code=\"singleh\" point1=\"dh01\" point2=\"lsb\" round=\"true\"/>\\u000a          <ttc code=\"singleh\" point1=\"dh04\" point2=\"rsb\" round=\"true\"/>\\u000a          <ttc code=\"alignt\" point=\"at01\" zone=\"t: 1\"/>\\u000a          <ttc code=\"alignb\" point=\"dh01\" zone=\"b: 0\"/>\\u000a          <ttc code=\"doublev\" point1=\"ih03\" point2=\"ih02\" stem=\"Y: 153\"/>\\u000a          <ttc code=\"singlev\" point1=\"at01\" point2=\"sv01\" stem=\"Y: 144\"/>\\u000a          <ttc code=\"interpolatev\" point=\"ih01\" point1=\"ih03\" point2=\"ih02\"/>\\u000a          <ttc code=\"singlev\" point1=\"dh01\" point2=\"dh02\" stem=\"Y: 162\"/>\\u000a        </ttProgram>\\u000a      </data>
p15
g4
tp16
Rp17
Ntp18
s."
EndChar
StartChar: C
Encoding: 12 67 12
GlifName: C_
Width: 1200
VWidth: 0
Flags: W
LayerCount: 2
Fore
SplineSet
1106 104 m 257
NamedP: "fh01"
 1024 38 1024 38 925 10.5 c 128
 826 -17 826 -17 708 -17 c 257
NamedP: "ab01"
 564 -17 564 -17 449 45.5 c 128
 334 108 334 108 254 215 c 128
 174 322 174 322 131.5 465 c 128
 89 608 89 608 89 770 c 257
NamedP: "dh01"
 89 921 89 921 127.5 1056.5 c 128
 166 1192 166 1192 245 1294.5 c 128
 324 1397 324 1397 445 1457 c 128
 566 1517 566 1517 731 1517 c 257
NamedP: "at01"
 846 1517 846 1517 948.5 1480.5 c 128
 1051 1444 1051 1444 1123 1375 c 257
NamedP: "fh02"
 1033 1268 l 257
NamedP: "fh03"
 985 1300 985 1300 912.5 1324 c 128
 840 1348 840 1348 747 1348 c 257
NamedP: "sv01"
 625 1348 625 1348 540 1302 c 128
 455 1256 455 1256 401 1177.5 c 128
 347 1099 347 1099 322.5 994.5 c 128
 298 890 298 890 298 773 c 257
NamedP: "dh02"
 298 704 298 704 309 631.5 c 128
 320 559 320 559 342.5 490 c 128
 365 421 365 421 400.5 360 c 128
 436 299 436 299 484.5 253 c 128
 533 207 533 207 595 180 c 128
 657 153 657 153 734 153 c 257
NamedP: "sv02"
 779 153 779 153 816 157 c 128
 853 161 853 161 887.5 170 c 128
 922 179 922 179 956 193.5 c 128
 990 208 990 208 1029 230 c 257
NamedP: "fh04"
 1106 104 l 257
NamedP: "fh01"
EndSplineSet
PickledDataWithLists: "(dp0
Vcom.adobe.type.autohint
p1
(c_codecs
encode
p2
(Vdata
p3
Vlatin1
p4
tp5
Rp6
g2
(V<data>\\u000a        <hintSetList>\\u000a          <hintset pointTag=\"fh01\">\\u000a            <hstem pos=\"-17\" width=\"170\"/>\\u000a            <hstem pos=\"1348\" width=\"169\"/>\\u000a            <vstem pos=\"89\" width=\"209\"/>\\u000a          </hintset>\\u000a        </hintSetList>\\u000a      </data>
p7
g4
tp8
Rp9
Ntp10
sVcom.fontlab.ttprogram
p11
(g2
(Vdata
p12
g4
tp13
Rp14
g2
(V<data>\\u000a        <ttProgram>\\u000a          <ttc code=\"doubleh\" point1=\"dh01\" point2=\"dh02\" stem=\"X: 208\"/>\\u000a          <ttc code=\"alignt\" point=\"at01\" zone=\"t: 1\"/>\\u000a          <ttc code=\"alignb\" point=\"ab01\" zone=\"b: 0\"/>\\u000a          <ttc code=\"singlev\" point1=\"at01\" point2=\"sv01\" stem=\"Y: 171\"/>\\u000a          <ttc align=\"round\" code=\"singlev\" point1=\"ab01\" point2=\"sv02\" stem=\"Y: 171\"/>\\u000a          <ttc code=\"fdeltah\" delta=\"-5\" point=\"fh01\" ppm1=\"18\" ppm2=\"18\"/>\\u000a          <ttc code=\"fdeltah\" delta=\"1\" point=\"fh01\" ppm1=\"19\" ppm2=\"22\"/>\\u000a          <ttc code=\"fdeltah\" delta=\"-8\" point=\"fh02\" ppm1=\"18\" ppm2=\"18\"/>\\u000a          <ttc code=\"fdeltah\" delta=\"-2\" point=\"fh02\" ppm1=\"19\" ppm2=\"19\"/>\\u000a          <ttc code=\"fdeltah\" delta=\"1\" point=\"fh02\" ppm1=\"20\" ppm2=\"22\"/>\\u000a          <ttc code=\"fdeltah\" delta=\"1\" point=\"fh03\" ppm1=\"18\" ppm2=\"18\"/>\\u000a          <ttc code=\"fdeltah\" delta=\"3\" point=\"fh03\" ppm1=\"19\" ppm2=\"19\"/>\\u000a          <ttc code=\"fdeltah\" delta=\"4\" point=\"fh04\" ppm1=\"19\" ppm2=\"19\"/>\\u000a          <ttc code=\"fdeltav\" delta=\"1\" point=\"fh03\" ppm1=\"18\" ppm2=\"18\"/>\\u000a          <ttc code=\"fdeltav\" delta=\"2\" point=\"fh03\" ppm1=\"20\" ppm2=\"22\"/>\\u000a          <ttc code=\"fdeltav\" delta=\"3\" point=\"fh03\" ppm1=\"19\" ppm2=\"19\"/>\\u000a          <ttc code=\"fdeltav\" delta=\"2\" point=\"fh04\" ppm1=\"19\" ppm2=\"19\"/>\\u000a        </ttProgram>\\u000a      </data>
p15
g4
tp16
Rp17
Ntp18
sVcom.typemytype.robofont.guides
p19
(lp20
(dp21
Vangle
p22
I0
sVisGlobal
p23
I00
sVmagnetic
p24
I5
sVx
p25
I0
sVy
p26
I153
sas."
EndChar
StartChar: E
Encoding: 17 69 17
GlifName: E_
Width: 1200
VWidth: 0
Flags: W
LayerCount: 2
Fore
SplineSet
1045 160 m 257
NamedP: "dh04"
 1025 0 l 257
NamedP: "ab01"
 175 0 l 257
NamedP: "ab02"
 190 200 l 257
NamedP: "dh01"
 190 1290 l 257
 160 1500 l 257
NamedP: "at01"
 1010 1500 l 257
NamedP: "at02"
 1010 1340 l 257
 380 1340 l 257
NamedP: "sv01"
 400 1150 l 257
NamedP: "sh01"
 400 885 l 257
 940 885 l 257
NamedP: "dv01"
 940 740 l 257
NamedP: "dh03"
 400 740 l 257
 400 340 l 257
NamedP: "dh02"
 390 160 l 257
 1045 160 l 257
NamedP: "dh04"
EndSplineSet
PickledDataWithLists: "(dp0
Vcom.adobe.type.autohint
p1
(c_codecs
encode
p2
(Vdata
p3
Vlatin1
p4
tp5
Rp6
g2
(V<data>\\u000a        <hintSetList>\\u000a          <hintset pointTag=\"dh04\">\\u000a            <hstem pos=\"0\" width=\"160\"/>\\u000a            <hstem pos=\"740\" width=\"145\"/>\\u000a            <hstem pos=\"1340\" width=\"160\"/>\\u000a            <vstem pos=\"190\" width=\"210\"/>\\u000a          </hintset>\\u000a        </hintSetList>\\u000a      </data>
p7
g4
tp8
Rp9
Ntp10
sVcom.fontlab.ttprogram
p11
(g2
(Vdata
p12
g4
tp13
Rp14
g2
(V<data>\\u000a        <ttProgram>\\u000a          <ttc code=\"doubleh\" point1=\"dh01\" point2=\"dh02\" stem=\"X: 208\"/>\\u000a          <ttc code=\"doubleh\" point1=\"dh03\" point2=\"dh04\" stem=\"X: ecart du B\"/>\\u000a          <ttc code=\"singleh\" point1=\"dh02\" point2=\"sh01\"/>\\u000a          <ttc code=\"alignt\" point=\"at01\" zone=\"t: 1\"/>\\u000a          <ttc code=\"alignt\" point=\"at02\" zone=\"t: 1\"/>\\u000a          <ttc code=\"alignb\" point=\"ab01\" zone=\"b: 0\"/>\\u000a          <ttc code=\"alignb\" point=\"ab02\" zone=\"b: 0\"/>\\u000a          <ttc code=\"doublev\" point1=\"dh03\" point2=\"dv01\" stem=\"Y: 144\"/>\\u000a          <ttc code=\"singlev\" point1=\"ab02\" point2=\"dh04\" stem=\"Y: 162\"/>\\u000a          <ttc code=\"singlev\" point1=\"at02\" point2=\"sv01\" stem=\"Y: 162\"/>\\u000a        </ttProgram>\\u000a      </data>
p15
g4
tp16
Rp17
Ntp18
s."
EndChar
StartChar: F
Encoding: 28 70 28
GlifName: F_
Width: 1100
VWidth: 0
Flags: W
LayerCount: 2
Fore
SplineSet
400 0 m 257
NamedP: "dh02"
 190 0 l 257
NamedP: "dh01"
 190 1290 l 257
 160 1500 l 257
NamedP: "at01"
 1045 1500 l 257
NamedP: "dh04"
 1025 1340 l 257
NamedP: "sv01"
 380 1340 l 257
 400 1150 l 257
NamedP: "sh01"
 400 885 l 257
 940 885 l 257
NamedP: "dh03"
 940 740 l 257
NamedP: "dv01"
 400 740 l 257
 400 0 l 257
NamedP: "dh02"
EndSplineSet
PickledDataWithLists: "(dp0
Vcom.adobe.type.autohint
p1
(c_codecs
encode
p2
(Vdata
p3
Vlatin1
p4
tp5
Rp6
g2
(V<data>\\u000a        <hintSetList>\\u000a          <hintset pointTag=\"dh02\">\\u000a            <hstem pos=\"21\" width=\"-21\"/>\\u000a            <hstem pos=\"740\" width=\"145\"/>\\u000a            <hstem pos=\"1340\" width=\"160\"/>\\u000a            <vstem pos=\"190\" width=\"210\"/>\\u000a          </hintset>\\u000a        </hintSetList>\\u000a      </data>
p7
g4
tp8
Rp9
Ntp10
sVcom.fontlab.ttprogram
p11
(g2
(Vdata
p12
g4
tp13
Rp14
g2
(V<data>\\u000a        <ttProgram>\\u000a          <ttc code=\"doubleh\" point1=\"dh01\" point2=\"dh02\" stem=\"X: 208\"/>\\u000a          <ttc code=\"doubleh\" point1=\"dh03\" point2=\"dh04\" stem=\"X: ecart du B\"/>\\u000a          <ttc code=\"singleh\" point1=\"dh02\" point2=\"sh01\"/>\\u000a          <ttc code=\"alignt\" point=\"at01\" zone=\"t: 1\"/>\\u000a          <ttc code=\"alignb\" point=\"dh02\" zone=\"b: 0\"/>\\u000a          <ttc code=\"doublev\" point1=\"dv01\" point2=\"dh03\" stem=\"Y: 144\"/>\\u000a          <ttc code=\"singlev\" point1=\"at01\" point2=\"sv01\" stem=\"Y: 162\"/>\\u000a        </ttProgram>\\u000a      </data>
p15
g4
tp16
Rp17
Ntp18
s."
EndChar
StartChar: G
Encoding: 31 71 31
GlifName: G_
Width: 1300
VWidth: 0
Flags: W
LayerCount: 2
Fore
SplineSet
1200 197 m 257
NamedP: "sh01"
 1159 152 1159 152 1108 112.5 c 128
 1057 73 1057 73 996 44.5 c 128
 935 16 935 16 863 -0.5 c 128
 791 -17 791 -17 708 -17 c 257
NamedP: "ab01"
 564 -17 564 -17 449 45.5 c 128
 334 108 334 108 253.5 215 c 128
 173 322 173 322 130.5 465 c 128
 88 608 88 608 88 770 c 257
NamedP: "sh02"
 88 921 88 921 126.5 1056.5 c 128
 165 1192 165 1192 244.5 1294.5 c 128
 324 1397 324 1397 445 1457 c 128
 566 1517 566 1517 731 1517 c 257
NamedP: "at01"
 846 1517 846 1517 948.5 1480.5 c 128
 1051 1444 1051 1444 1123 1375 c 257
NamedP: "fh01"
 1033 1268 l 257
 985 1300 985 1300 912.5 1324 c 128
 840 1348 840 1348 747 1348 c 257
NamedP: "sv01"
 625 1348 625 1348 540 1302 c 128
 455 1256 455 1256 401 1177.5 c 128
 347 1099 347 1099 322.5 994.5 c 128
 298 890 298 890 298 773 c 257
NamedP: "sh03"
 298 704 298 704 309 631.5 c 128
 320 559 320 559 342.5 490 c 128
 365 421 365 421 400.5 360 c 128
 436 299 436 299 484.5 253 c 128
 533 207 533 207 595 180 c 128
 657 153 657 153 734 153 c 257
NamedP: "sv02"
 779 153 779 153 821 162.5 c 128
 863 172 863 172 899 187 c 128
 935 202 935 202 963.5 220.5 c 128
 992 239 992 239 1010 258 c 257
NamedP: "ah01"
 1010 645 l 257
NamedP: "sv03"
 700 665 l 257
 700 805 l 257
 1200 805 l 257
NamedP: "av01"
 1200 197 l 257
NamedP: "sh01"
EndSplineSet
PickledDataWithLists: "(dp0
Vcom.adobe.type.autohint
p1
(c_codecs
encode
p2
(Vdata
p3
Vlatin1
p4
tp5
Rp6
g2
(V<data>\\u000a        <hintSetList>\\u000a          <hintset pointTag=\"sh01\">\\u000a            <hstem pos=\"-17\" width=\"170\"/>\\u000a            <hstem pos=\"645\" width=\"160\"/>\\u000a            <hstem pos=\"1348\" width=\"169\"/>\\u000a            <vstem pos=\"88\" width=\"210\"/>\\u000a            <vstem pos=\"1010\" width=\"190\"/>\\u000a          </hintset>\\u000a        </hintSetList>\\u000a      </data>
p7
g4
tp8
Rp9
Ntp10
sVcom.fontlab.ttprogram
p11
(g2
(Vdata
p12
g4
tp13
Rp14
g2
(V<data>\\u000a        <ttProgram>\\u000a          <ttc align=\"round\" code=\"alignh\" point=\"lsb\"/>\\u000a          <ttc align=\"round\" code=\"alignh\" point=\"ah01\"/>\\u000a          <ttc code=\"singleh\" point1=\"ah01\" point2=\"sh01\" stem=\"X: 208\"/>\\u000a          <ttc align=\"round\" code=\"singleh\" point1=\"lsb\" point2=\"sh02\"/>\\u000a          <ttc code=\"singleh\" point1=\"sh02\" point2=\"sh03\" stem=\"X: 208\"/>\\u000a          <ttc code=\"singleh\" point1=\"sh01\" point2=\"rsb\" round=\"true\"/>\\u000a          <ttc align=\"right\" code=\"alignv\" point=\"av01\"/>\\u000a          <ttc code=\"alignt\" point=\"at01\" zone=\"t: 1\"/>\\u000a          <ttc code=\"alignb\" point=\"ab01\" zone=\"b: 0\"/>\\u000a          <ttc code=\"singlev\" point1=\"at01\" point2=\"sv01\" stem=\"Y: 171\"/>\\u000a          <ttc code=\"singlev\" point1=\"ab01\" point2=\"sv02\" stem=\"Y: 171\"/>\\u000a          <ttc code=\"singlev\" point1=\"av01\" point2=\"sv03\" stem=\"Y: 162\"/>\\u000a          <ttc code=\"fdeltah\" delta=\"-8\" point=\"fh01\" ppm1=\"18\" ppm2=\"18\"/>\\u000a        </ttProgram>\\u000a      </data>
p15
g4
tp16
Rp17
Ntp18
s."
EndChar
StartChar: H
Encoding: 33 72 33
GlifName: H_
Width: 1400
VWidth: 0
Flags: W
LayerCount: 2
Fore
SplineSet
1015 0 m 257
NamedP: "ah01"
 1015 725 l 257
NamedP: "dv01"
 385 725 l 257
 385 0 l 257
NamedP: "sh02"
 180 0 l 257
NamedP: "sh01"
 180 1290 l 257
 151 1500 l 257
 385 1520 l 257
NamedP: "sh03"
 385 885 l 257
 1015 885 l 257
NamedP: "sh04"
 1015 1502 l 257
 1220 1520 l 257
NamedP: "at01"
 1220 0 l 257
NamedP: "sh05"
 1015 0 l 257
NamedP: "ah01"
EndSplineSet
PickledDataWithLists: "(dp0
Vcom.adobe.type.autohint
p1
(c_codecs
encode
p2
(Vdata
p3
Vlatin1
p4
tp5
Rp6
g2
(V<data>\\u000a        <hintSetList>\\u000a          <hintset pointTag=\"ah01\">\\u000a            <hstem pos=\"21\" width=\"-21\"/>\\u000a            <hstem pos=\"725\" width=\"160\"/>\\u000a            <hstem pos=\"1520\" width=\"-20\"/>\\u000a            <vstem pos=\"180\" width=\"205\"/>\\u000a            <vstem pos=\"1015\" width=\"205\"/>\\u000a          </hintset>\\u000a        </hintSetList>\\u000a      </data>
p7
g4
tp8
Rp9
Ntp10
sVcom.fontlab.ttprogram
p11
(g2
(Vdata
p12
g4
tp13
Rp14
g2
(V<data>\\u000a        <ttProgram>\\u000a          <ttc align=\"round\" code=\"alignh\" point=\"lsb\"/>\\u000a          <ttc align=\"round\" code=\"alignh\" point=\"ah01\"/>\\u000a          <ttc align=\"round\" code=\"singleh\" point1=\"lsb\" point2=\"sh01\"/>\\u000a          <ttc code=\"singleh\" point1=\"sh01\" point2=\"sh02\" stem=\"X: 208\"/>\\u000a          <ttc code=\"singleh\" point1=\"sh02\" point2=\"sh03\"/>\\u000a          <ttc code=\"singleh\" point1=\"ah01\" point2=\"sh04\"/>\\u000a          <ttc code=\"singleh\" point1=\"ah01\" point2=\"sh05\" stem=\"X: 208\"/>\\u000a          <ttc code=\"singleh\" point1=\"sh05\" point2=\"rsb\" round=\"true\"/>\\u000a          <ttc code=\"alignt\" point=\"sh03\" zone=\"t: 1\"/>\\u000a          <ttc code=\"alignt\" point=\"at01\" zone=\"t: 1\"/>\\u000a          <ttc code=\"alignb\" point=\"ah01\" zone=\"b: 0\"/>\\u000a          <ttc code=\"alignb\" point=\"sh02\" zone=\"b: 0\"/>\\u000a          <ttc code=\"doublev\" point1=\"dv01\" point2=\"sh04\" stem=\"Y: 162\"/>\\u000a        </ttProgram>\\u000a      </data>
p15
g4
tp16
Rp17
Ntp18
s."
EndChar
StartChar: J
Encoding: 41 74 41
GlifName: J_
Width: 900
VWidth: 0
Flags: W
LayerCount: 2
Fore
SplineSet
270 1497 m 257
NamedP: "hr00"
 700 1520 l 257
NamedP: "at01"
 700 430 l 257
NamedP: "dh02"
 700 238 700 238 596.5 113 c 128
 493 -12 493 -12 297 -17 c 257
NamedP: "ab01"
 129 -17 129 -17 0 115 c 257
NamedP: "fh01"
 92 233 l 257
 102 223 102 223 121.5 209.5 c 128
 141 196 141 196 167 184 c 128
 193 172 193 172 223.5 164 c 128
 254 156 254 156 287 156 c 257
NamedP: "sv01"
 391 156 391 156 440.5 234 c 128
 490 312 490 312 490 470 c 257
NamedP: "dh01"
 490 1148 l 257
 510 1338 l 257
 290 1325 l 257
NamedP: "sv02"
 270 1497 l 257
NamedP: "hr00"
EndSplineSet
PickledDataWithLists: "(dp0
Vcom.adobe.type.autohint
p1
(c_codecs
encode
p2
(Vdata
p3
Vlatin1
p4
tp5
Rp6
g2
(V<data>\\u000a        <hintSetList>\\u000a          <hintset pointTag=\"hr00\">\\u000a            <hstem pos=\"-17\" width=\"173\"/>\\u000a            <hstem pos=\"1520\" width=\"-20\"/>\\u000a            <vstem pos=\"490\" width=\"210\"/>\\u000a          </hintset>\\u000a        </hintSetList>\\u000a      </data>
p7
g4
tp8
Rp9
Ntp10
sVcom.fontlab.ttprogram
p11
(g2
(Vdata
p12
g4
tp13
Rp14
g2
(V<data>\\u000a        <ttProgram>\\u000a          <ttc code=\"doubleh\" point1=\"dh01\" point2=\"dh02\" stem=\"X: 208\"/>\\u000a          <ttc code=\"singleh\" point1=\"dh02\" point2=\"rsb\" round=\"true\"/>\\u000a          <ttc code=\"alignt\" point=\"at01\" zone=\"t: 1\"/>\\u000a          <ttc code=\"alignb\" point=\"ab01\" zone=\"b: 0\"/>\\u000a          <ttc code=\"singlev\" point1=\"ab01\" point2=\"sv01\" stem=\"Y: 171\"/>\\u000a          <ttc code=\"singlev\" point1=\"at01\" point2=\"sv02\" stem=\"Y: 171\"/>\\u000a          <ttc code=\"fdeltah\" delta=\"5\" point=\"fh01\" ppm1=\"18\" ppm2=\"18\"/>\\u000a          <ttc code=\"fdeltah\" delta=\"6\" point=\"fh01\" ppm1=\"19\" ppm2=\"19\"/>\\u000a          <ttc code=\"fdeltav\" delta=\"1\" point=\"fh01\" ppm1=\"18\" ppm2=\"18\"/>\\u000a          <ttc code=\"fdeltav\" delta=\"4\" point=\"fh01\" ppm1=\"19\" ppm2=\"19\"/>\\u000a        </ttProgram>\\u000a      </data>
p15
g4
tp16
Rp17
Ntp18
s."
EndChar
StartChar: O
Encoding: 53 79 53
GlifName: O_
Width: 1600
VWidth: 0
Flags: W
LayerCount: 2
Fore
SplineSet
800 -17 m 257
NamedP: "ab01"
 642 -17 642 -17 517 41 c 128
 392 99 392 99 304.5 201.5 c 128
 217 304 217 304 170.5 444.5 c 128
 124 585 124 585 124 750 c 257
NamedP: "sh01"
 124 915 124 915 169 1055.5 c 128
 214 1196 214 1196 300.5 1298.5 c 128
 387 1401 387 1401 513 1459 c 128
 639 1517 639 1517 800 1517 c 257
NamedP: "at01"
 957 1517 957 1517 1082.5 1459 c 128
 1208 1401 1208 1401 1295.5 1298.5 c 128
 1383 1196 1383 1196 1429.5 1055.5 c 128
 1476 915 1476 915 1476 750 c 257
NamedP: "sh02"
 1476 585 1476 585 1431 444.5 c 128
 1386 304 1386 304 1299.5 201.5 c 128
 1213 99 1213 99 1087 41 c 128
 961 -17 961 -17 800 -17 c 257
NamedP: "ab01"
1268 719 m 257
NamedP: "ah01"
 1268 799 1268 799 1257 876.5 c 128
 1246 954 1246 954 1222 1023.5 c 128
 1198 1093 1198 1093 1160 1152.5 c 128
 1122 1212 1122 1212 1069.5 1255 c 128
 1017 1298 1017 1298 948.5 1322.5 c 128
 880 1347 880 1347 794 1347 c 257
NamedP: "sv01"
 671 1347 671 1347 583.5 1299.5 c 128
 496 1252 496 1252 440 1173 c 128
 384 1094 384 1094 358 993 c 128
 332 892 332 892 332 785 c 257
NamedP: "sh03"
 332 704 332 704 343.5 626 c 128
 355 548 355 548 379 477.5 c 128
 403 407 403 407 440.5 347.5 c 128
 478 288 478 288 530.5 245 c 128
 583 202 583 202 651.5 177.5 c 128
 720 153 720 153 806 153 c 257
NamedP: "sv02"
 887 153 887 153 953 175.5 c 128
 1019 198 1019 198 1070.5 237 c 128
 1122 276 1122 276 1159 330 c 128
 1196 384 1196 384 1220.5 446.5 c 128
 1245 509 1245 509 1256.5 578.5 c 128
 1268 648 1268 648 1268 719 c 257
NamedP: "ah01"
EndSplineSet
PickledDataWithLists: "(dp0
Vcom.adobe.type.autohint
p1
(c_codecs
encode
p2
(Vdata
p3
Vlatin1
p4
tp5
Rp6
g2
(V<data>\\u000a        <hintSetList>\\u000a          <hintset pointTag=\"ab01\">\\u000a            <hstem pos=\"-17\" width=\"170\"/>\\u000a            <hstem pos=\"1347\" width=\"170\"/>\\u000a            <vstem pos=\"124\" width=\"208\"/>\\u000a            <vstem pos=\"1268\" width=\"208\"/>\\u000a          </hintset>\\u000a        </hintSetList>\\u000a      </data>
p7
g4
tp8
Rp9
Ntp10
sVcom.fontlab.ttprogram
p11
(g2
(Vdata
p12
g4
tp13
Rp14
g2
(V<data>\\u000a        <ttProgram>\\u000a          <ttc align=\"round\" code=\"alignh\" point=\"lsb\"/>\\u000a          <ttc align=\"round\" code=\"alignh\" point=\"ah01\"/>\\u000a          <ttc align=\"round\" code=\"singleh\" point1=\"lsb\" point2=\"sh01\"/>\\u000a          <ttc code=\"singleh\" point1=\"ah01\" point2=\"sh02\" stem=\"X: 208\"/>\\u000a          <ttc code=\"singleh\" point1=\"sh01\" point2=\"sh03\" stem=\"X: 208\"/>\\u000a          <ttc code=\"singleh\" point1=\"sh02\" point2=\"rsb\" round=\"true\"/>\\u000a          <ttc code=\"alignt\" point=\"at01\" zone=\"t: 1\"/>\\u000a          <ttc code=\"alignb\" point=\"ab01\" zone=\"b: 0\"/>\\u000a          <ttc code=\"singlev\" point1=\"at01\" point2=\"sv01\" stem=\"Y: 171\"/>\\u000a          <ttc code=\"singlev\" point1=\"ab01\" point2=\"sv02\" stem=\"Y: 171\"/>\\u000a        </ttProgram>\\u000a      </data>
p15
g4
tp16
Rp17
Ntp18
s."
EndChar
StartChar: R
Encoding: 69 82 69
GlifName: R_
Width: 1300
VWidth: 0
Flags: W
LayerCount: 2
Fore
SplineSet
400 614 m 257
NamedP: "dv01"
 400 0 l 257
NamedP: "sh02"
 190 0 l 257
NamedP: "sh01"
 190 1290 l 257
 155 1490 l 257
 188 1494 188 1494 234.5 1498 c 128
 281 1502 281 1502 331.5 1505 c 128
 382 1508 382 1508 433 1510 c 128
 484 1512 484 1512 527 1512 c 257
NamedP: "at01"
 653 1512 653 1512 757 1485.5 c 128
NamedP: "fh01"
 861 1459 861 1459 935 1407 c 128
 1009 1355 1009 1355 1050 1277.5 c 128
 1091 1200 1091 1200 1091 1099 c 257
NamedP: "sh03"
 1091 994 1091 994 1058.5 914 c 128
 1026 834 1026 834 967 777.5 c 128
 908 721 908 721 826.5 685.5 c 128
 745 650 745 650 648 633 c 257
NamedP: "ih01"
 790 593 l 257
NamedP: "fh02"
 1233 0 l 257
NamedP: "ab01"
 1010 0 l 257
NamedP: "fh03"
 567 595 l 257
NamedP: "fh04"
 556 609 556 609 542 611.5 c 128
 528 614 528 614 520 614 c 257
 400 614 l 257
NamedP: "dv01"
400 1147 m 257
NamedP: "sh04"
 400 765 l 257
NamedP: "dv02"
 548 765 l 257
 639 765 639 765 706 790.5 c 128
 773 816 773 816 817 859.5 c 128
 861 903 861 903 883 960.5 c 128
 905 1018 905 1018 905 1083 c 257
NamedP: "ah01"
 905 1168 905 1168 873 1224.5 c 128
 841 1281 841 1281 790 1314.5 c 128
 739 1348 739 1348 676 1361.5 c 128
 613 1375 613 1375 552 1375 c 257
NamedP: "sv01"
 531 1375 531 1375 508 1374.5 c 128
 485 1374 485 1374 462 1373 c 128
 439 1372 439 1372 417.5 1369.5 c 128
 396 1367 396 1367 380 1364 c 257
NamedP: "sv02"
 400 1147 l 257
NamedP: "sh04"
EndSplineSet
PickledDataWithLists: "(dp0
Vcom.adobe.type.autohint
p1
(c_codecs
encode
p2
(Vdata
p3
Vlatin1
p4
tp5
Rp6
g2
(V<data>\\u000a        <hintSetList>\\u000a          <hintset pointTag=\"dv01\">\\u000a            <hstem pos=\"21\" width=\"-21\"/>\\u000a            <hstem pos=\"614\" width=\"151\"/>\\u000a            <hstem pos=\"1375\" width=\"137\"/>\\u000a            <vstem pos=\"190\" width=\"210\"/>\\u000a            <vstem pos=\"905\" width=\"186\"/>\\u000a          </hintset>\\u000a        </hintSetList>\\u000a      </data>
p7
g4
tp8
Rp9
Ntp10
sVcom.fontlab.ttprogram
p11
(g2
(Vdata
p12
g4
tp13
Rp14
g2
(V<data>\\u000a        <ttProgram>\\u000a          <ttc align=\"round\" code=\"alignh\" point=\"lsb\"/>\\u000a          <ttc align=\"round\" code=\"alignh\" point=\"ah01\"/>\\u000a          <ttc align=\"round\" code=\"singleh\" point1=\"lsb\" point2=\"sh01\"/>\\u000a          <ttc code=\"singleh\" point1=\"sh01\" point2=\"sh02\" stem=\"X: 208\"/>\\u000a          <ttc code=\"singleh\" point1=\"ah01\" point2=\"sh03\" stem=\"X: 190\"/>\\u000a          <ttc code=\"interpolateh\" point=\"ih01\" point1=\"sh01\" point2=\"sh03\"/>\\u000a          <ttc code=\"singleh\" point1=\"sh02\" point2=\"sh04\"/>\\u000a          <ttc code=\"singleh\" point1=\"sh03\" point2=\"rsb\" round=\"true\"/>\\u000a          <ttc code=\"alignt\" point=\"at01\" zone=\"t: 1\"/>\\u000a          <ttc code=\"alignb\" point=\"sh02\" zone=\"b: 0\"/>\\u000a          <ttc code=\"alignb\" point=\"ab01\" zone=\"b: 0\"/>\\u000a          <ttc code=\"doublev\" point1=\"dv01\" point2=\"dv02\" stem=\"Y: 153\"/>\\u000a          <ttc code=\"interpolatev\" point=\"ih01\" point1=\"dv01\" point2=\"dv02\"/>\\u000a          <ttc code=\"singlev\" point1=\"at01\" point2=\"sv01\" stem=\"Y: 135\"/>\\u000a          <ttc align=\"round\" code=\"singlev\" point1=\"sv01\" point2=\"sv02\"/>\\u000a          <ttc code=\"fdeltah\" delta=\"-4\" point=\"fh01\" ppm1=\"13\" ppm2=\"13\"/>\\u000a          <ttc code=\"fdeltah\" delta=\"-4\" point=\"fh02\" ppm1=\"15\" ppm2=\"15\"/>\\u000a          <ttc code=\"fdeltah\" delta=\"-3\" point=\"fh02\" ppm1=\"10\" ppm2=\"10\"/>\\u000a          <ttc code=\"fdeltah\" delta=\"-2\" point=\"fh02\" ppm1=\"12\" ppm2=\"12\"/>\\u000a          <ttc code=\"fdeltah\" delta=\"-4\" point=\"ab01\" ppm1=\"24\" ppm2=\"24\"/>\\u000a          <ttc code=\"fdeltah\" delta=\"-4\" point=\"ab01\" ppm1=\"39\" ppm2=\"39\"/>\\u000a          <ttc code=\"fdeltah\" delta=\"-3\" point=\"ab01\" ppm1=\"17\" ppm2=\"17\"/>\\u000a          <ttc code=\"fdeltah\" delta=\"-2\" point=\"ab01\" ppm1=\"22\" ppm2=\"22\"/>\\u000a          <ttc code=\"fdeltah\" delta=\"2\" point=\"ab01\" ppm1=\"11\" ppm2=\"11\"/>\\u000a          <ttc code=\"fdeltah\" delta=\"2\" point=\"ab01\" ppm1=\"13\" ppm2=\"13\"/>\\u000a          <ttc code=\"fdeltah\" delta=\"3\" point=\"ab01\" ppm1=\"15\" ppm2=\"15\"/>\\u000a          <ttc code=\"fdeltah\" delta=\"-5\" point=\"fh03\" ppm1=\"24\" ppm2=\"24\"/>\\u000a          <ttc code=\"fdeltah\" delta=\"-4\" point=\"fh03\" ppm1=\"22\" ppm2=\"22\"/>\\u000a          <ttc code=\"fdeltah\" delta=\"-2\" point=\"fh03\" ppm1=\"21\" ppm2=\"21\"/>\\u000a          <ttc code=\"fdeltah\" delta=\"3\" point=\"fh03\" ppm1=\"12\" ppm2=\"12\"/>\\u000a          <ttc code=\"fdeltah\" delta=\"4\" point=\"fh03\" ppm1=\"15\" ppm2=\"15\"/>\\u000a          <ttc code=\"fdeltah\" delta=\"5\" point=\"fh03\" ppm1=\"11\" ppm2=\"11\"/>\\u000a          <ttc code=\"fdeltah\" delta=\"5\" point=\"fh03\" ppm1=\"13\" ppm2=\"13\"/>\\u000a          <ttc code=\"fdeltah\" delta=\"2\" point=\"fh04\" ppm1=\"11\" ppm2=\"11\"/>\\u000a          <ttc code=\"fdeltav\" delta=\"1\" point=\"fh01\" ppm1=\"13\" ppm2=\"13\"/>\\u000a        </ttProgram>\\u000a      </data>
p15
g4
tp16
Rp17
Ntp18
s."
EndChar
StartChar: T
Encoding: 77 84 77
GlifName: T_
Width: 1200
VWidth: 0
Flags: W
LayerCount: 2
Fore
SplineSet
495 0 m 257
NamedP: "dh01"
 495 1340 l 257
NamedP: "sv01"
 80 1340 l 257
 80 1500 l 257
NamedP: "at01"
 1115 1500 l 257
 1115 1340 l 257
NamedP: "sv02"
 705 1340 l 257
NamedP: "sv03"
 705 0 l 257
NamedP: "dh02"
 495 0 l 257
NamedP: "dh01"
EndSplineSet
PickledDataWithLists: "(dp0
Vcom.adobe.type.autohint
p1
(c_codecs
encode
p2
(Vdata
p3
Vlatin1
p4
tp5
Rp6
g2
(V<data>\\u000a        <hintSetList>\\u000a          <hintset pointTag=\"dh01\">\\u000a            <hstem pos=\"21\" width=\"-21\"/>\\u000a            <hstem pos=\"1340\" width=\"160\"/>\\u000a            <vstem pos=\"495\" width=\"210\"/>\\u000a          </hintset>\\u000a        </hintSetList>\\u000a      </data>
p7
g4
tp8
Rp9
Ntp10
sVcom.fontlab.ttprogram
p11
(g2
(Vdata
p12
g4
tp13
Rp14
g2
(V<data>\\u000a        <ttProgram>\\u000a          <ttc code=\"doubleh\" point1=\"dh01\" point2=\"dh02\" stem=\"X: 208\"/>\\u000a          <ttc code=\"alignt\" point=\"at01\" zone=\"t: 1\"/>\\u000a          <ttc code=\"alignb\" point=\"dh01\" zone=\"b: 0\"/>\\u000a          <ttc code=\"singlev\" point1=\"at01\" point2=\"sv01\" stem=\"Y: 162\"/>\\u000a          <ttc code=\"singlev\" point1=\"sv01\" point2=\"sv02\"/>\\u000a          <ttc code=\"singlev\" point1=\"sv02\" point2=\"sv03\"/>\\u000a        </ttProgram>\\u000a      </data>
p15
g4
tp16
Rp17
Ntp18
s."
EndChar
StartChar: U
Encoding: 85 85 85
GlifName: U_
Width: 1400
VWidth: 0
Flags: W
LayerCount: 2
Fore
SplineSet
1220 1500 m 257
NamedP: "at02"
 1220 523 l 257
NamedP: "sh01"
 1220 387 1220 387 1179 285.5 c 128
 1138 184 1138 184 1066.5 117 c 128
 995 50 995 50 897 16.5 c 128
 799 -17 799 -17 685 -17 c 257
NamedP: "ih01"
 563 -17 563 -17 469 25.5 c 128
 375 68 375 68 311 145.5 c 128
 247 223 247 223 213.5 332 c 128
 180 441 180 441 180 573 c 257
NamedP: "sh02"
 180 1290 l 257
 150 1500 l 257
 385 1520 l 257
NamedP: "at01"
 385 554 l 257
NamedP: "sh03"
 385 459 385 459 410 384.5 c 128
 435 310 435 310 477.5 258.5 c 128
 520 207 520 207 576 180 c 128
 632 153 632 153 695 153 c 257
NamedP: "ih02"
 768 153 768 153 827.5 175 c 128
 887 197 887 197 928.5 241 c 128
 970 285 970 285 992.5 350.5 c 128
 1015 416 1015 416 1015 504 c 257
NamedP: "ah01"
 1015 1500 l 257
 1220 1500 l 257
NamedP: "at02"
EndSplineSet
PickledDataWithLists: "(dp0
Vcom.adobe.type.autohint
p1
(c_codecs
encode
p2
(Vdata
p3
Vlatin1
p4
tp5
Rp6
g2
(V<data>\\u000a        <hintSetList>\\u000a          <hintset pointTag=\"at02\">\\u000a            <hstem pos=\"-17\" width=\"170\"/>\\u000a            <hstem pos=\"1520\" width=\"-20\"/>\\u000a            <vstem pos=\"180\" width=\"205\"/>\\u000a            <vstem pos=\"1015\" width=\"205\"/>\\u000a          </hintset>\\u000a        </hintSetList>\\u000a      </data>
p7
g4
tp8
Rp9
Ntp10
sVcom.fontlab.ttprogram
p11
(g2
(Vdata
p12
g4
tp13
Rp14
g2
(V<data>\\u000a        <ttProgram>\\u000a          <ttc align=\"round\" code=\"alignh\" point=\"lsb\"/>\\u000a          <ttc align=\"round\" code=\"alignh\" point=\"ah01\"/>\\u000a          <ttc code=\"singleh\" point1=\"ah01\" point2=\"sh01\" stem=\"X: 208\"/>\\u000a          <ttc align=\"round\" code=\"singleh\" point1=\"lsb\" point2=\"sh02\"/>\\u000a          <ttc code=\"interpolateh\" point=\"ih01\" point1=\"sh02\" point2=\"sh01\"/>\\u000a          <ttc code=\"singleh\" point1=\"sh02\" point2=\"sh03\" stem=\"X: 208\"/>\\u000a          <ttc code=\"interpolateh\" point=\"ih02\" point1=\"sh03\" point2=\"ah01\"/>\\u000a          <ttc code=\"singleh\" point1=\"sh01\" point2=\"rsb\" round=\"true\"/>\\u000a          <ttc code=\"alignt\" point=\"at01\" zone=\"t: 1\"/>\\u000a          <ttc code=\"alignt\" point=\"at02\" zone=\"t: 1\"/>\\u000a          <ttc code=\"alignb\" point=\"ih01\" zone=\"b: 0\"/>\\u000a          <ttc code=\"singlev\" point1=\"ih01\" point2=\"ih02\" stem=\"Y: 171\"/>\\u000a        </ttProgram>\\u000a      </data>
p15
g4
tp16
Rp17
Ntp18
s."
EndChar
StartChar: V
Encoding: 92 86 92
GlifName: V_
Width: 1300
VWidth: 0
Flags: W
LayerCount: 2
Fore
SplineSet
585 500 m 257
NamedP: "hr00"
 673 140 l 257
NamedP: "ah01"
 721 454 l 257
 1051 1500 l 257
NamedP: "sh01"
 1240 1500 l 257
NamedP: "sh02"
 821 180 l 257
 795 -20 l 257
NamedP: "ab01"
 549 0 l 257
NamedP: "fh01"
 67 1500 l 257
NamedP: "sh04"
 262 1520 l 257
NamedP: "sh03"
 585 500 l 257
NamedP: "hr00"
EndSplineSet
PickledDataWithLists: "(dp0
Vcom.adobe.type.autohint
p1
(c_codecs
encode
p2
(Vdata
p3
Vlatin1
p4
tp5
Rp6
g2
(V<data>\\u000a        <hintSetList>\\u000a          <hintset pointTag=\"hr00\">\\u000a            <hstem pos=\"1\" width=\"-21\"/>\\u000a            <hstem pos=\"1520\" width=\"-20\"/>\\u000a          </hintset>\\u000a        </hintSetList>\\u000a      </data>
p7
g4
tp8
Rp9
Ntp10
sVcom.fontlab.ttprogram
p11
(g2
(Vdata
p12
g4
tp13
Rp14
g2
(V<data>\\u000a        <ttProgram>\\u000a          <ttc align=\"center\" code=\"alignh\" point=\"ah01\"/>\\u000a          <ttc code=\"singleh\" point1=\"ah01\" point2=\"sh01\" round=\"true\"/>\\u000a          <ttc code=\"singleh\" point1=\"sh01\" point2=\"sh02\" stem=\"X: dia Lite\"/>\\u000a          <ttc code=\"singleh\" point1=\"ah01\" point2=\"sh03\" round=\"true\"/>\\u000a          <ttc code=\"singleh\" point1=\"sh03\" point2=\"sh04\" stem=\"X: dia Fat\"/>\\u000a          <ttc code=\"alignt\" point=\"sh03\" zone=\"t: 1\"/>\\u000a          <ttc code=\"alignb\" point=\"ab01\" zone=\"b: 0\"/>\\u000a          <ttc code=\"interpolatev\" point=\"ah01\" point1=\"ab01\" point2=\"sh03\"/>\\u000a          <ttc code=\"fdeltah\" delta=\"3\" point=\"fh01\" ppm1=\"18\" ppm2=\"18\"/>\\u000a        </ttProgram>\\u000a      </data>
p15
g4
tp16
Rp17
Ntp18
s."
EndChar
StartChar: W
Encoding: 93 87 93
GlifName: W_
Width: 1900
VWidth: 0
Flags: W
LayerCount: 2
Fore
SplineSet
872 1500 m 257
NamedP: "sh01"
 1029 1500 l 257
NamedP: "sh02"
 1288 460 l 257
 1352 100 l 257
NamedP: "ah03"
 1356 100 l 257
NamedP: "iv01"
 1379 460 l 257
 1639 1500 l 257
NamedP: "sh03"
 1814 1500 l 257
NamedP: "sh04"
 1440 0 l 257
NamedP: "ab01"
 1208 0 l 257
NamedP: "sh05"
 987 885 l 257
 958 1243 l 257
NamedP: "ah01"
 894 885 l 257
NamedP: "fh01"
 673 0 l 257
NamedP: "sh06"
 441 0 l 257
NamedP: "fh02"
 67 1500 l 257
NamedP: "sh08"
 258 1520 l 257
NamedP: "sh07"
 522 460 l 257
 586 100 l 257
NamedP: "ah02"
 590 100 l 257
NamedP: "iv02"
 612 460 l 257
NamedP: "fh03"
 872 1500 l 257
NamedP: "sh01"
EndSplineSet
PickledDataWithLists: "(dp0
Vcom.adobe.type.autohint
p1
(c_codecs
encode
p2
(Vdata
p3
Vlatin1
p4
tp5
Rp6
g2
(V<data>\\u000a        <hintSetList>\\u000a          <hintset pointTag=\"sh01\">\\u000a            <hstem pos=\"21\" width=\"-21\"/>\\u000a            <hstem pos=\"1520\" width=\"-20\"/>\\u000a          </hintset>\\u000a        </hintSetList>\\u000a      </data>
p7
g4
tp8
Rp9
Ntp10
sVcom.fontlab.ttprogram
p11
(g2
(Vdata
p12
g4
tp13
Rp14
g2
(V<data>\\u000a        <ttProgram>\\u000a          <ttc align=\"center\" code=\"alignh\" point=\"ah01\"/>\\u000a          <ttc align=\"center\" code=\"alignh\" point=\"ah02\"/>\\u000a          <ttc align=\"center\" code=\"alignh\" point=\"ah03\"/>\\u000a          <ttc code=\"singleh\" point1=\"ah02\" point2=\"sh01\"/>\\u000a          <ttc code=\"singleh\" point1=\"ah03\" point2=\"sh02\"/>\\u000a          <ttc code=\"singleh\" point1=\"ah03\" point2=\"sh03\"/>\\u000a          <ttc code=\"singleh\" point1=\"sh03\" point2=\"sh04\" stem=\"X: dia Lite\"/>\\u000a          <ttc code=\"singleh\" point1=\"ah01\" point2=\"sh05\"/>\\u000a          <ttc code=\"singleh\" point1=\"ah01\" point2=\"sh06\"/>\\u000a          <ttc code=\"singleh\" point1=\"ah02\" point2=\"sh07\"/>\\u000a          <ttc code=\"singleh\" point1=\"sh07\" point2=\"sh08\" stem=\"X: dia Fat\"/>\\u000a          <ttc code=\"alignt\" point=\"sh07\" zone=\"t: 1\"/>\\u000a          <ttc code=\"alignb\" point=\"ab01\" zone=\"b: 0\"/>\\u000a          <ttc code=\"alignb\" point=\"sh06\" zone=\"b: 0\"/>\\u000a          <ttc code=\"interpolatev\" point=\"iv01\" point1=\"ab01\" point2=\"sh07\"/>\\u000a          <ttc code=\"interpolatev\" point=\"ah01\" point1=\"ab01\" point2=\"sh07\"/>\\u000a          <ttc code=\"interpolatev\" point=\"iv02\" point1=\"ab01\" point2=\"sh07\"/>\\u000a          <ttc code=\"fdeltah\" delta=\"2\" point=\"sh05\" ppm1=\"18\" ppm2=\"18\"/>\\u000a          <ttc code=\"fdeltah\" delta=\"-4\" point=\"fh01\" ppm1=\"17\" ppm2=\"17\"/>\\u000a          <ttc code=\"fdeltah\" delta=\"-2\" point=\"sh06\" ppm1=\"17\" ppm2=\"17\"/>\\u000a          <ttc code=\"fdeltah\" delta=\"2\" point=\"fh02\" ppm1=\"18\" ppm2=\"18\"/>\\u000a          <ttc code=\"fdeltah\" delta=\"5\" point=\"fh03\" ppm1=\"17\" ppm2=\"17\"/>\\u000a        </ttProgram>\\u000a      </data>
p15
g4
tp16
Rp17
Ntp18
s."
EndChar
StartChar: bracketleft
Encoding: 170 91 170
GlifName: bracketleft
Width: 900
VWidth: 0
Flags: W
LayerCount: 2
Fore
SplineSet
122 1320 m 257
NamedP: "dh01"
 100 1520 l 257
NamedP: "at01"
 672 1520 l 257
 672 1370 l 257
NamedP: "sv01"
 300 1370 l 257
 320 1170 l 257
NamedP: "dh02"
 320 -70 l 257
 300 -270 l 257
 672 -270 l 257
NamedP: "dv02"
 672 -420 l 257
NamedP: "dv01"
 100 -420 l 257
 122 -220 l 257
 122 1320 l 257
NamedP: "dh01"
EndSplineSet
PickledDataWithLists: "(dp0
Vcom.adobe.type.autohint
p1
(c_codecs
encode
p2
(Vdata
p3
Vlatin1
p4
tp5
Rp6
g2
(V<data>\\u000a        <hintSetList>\\u000a          <hintset pointTag=\"dh01\">\\u000a            <hstem pos=\"-420\" width=\"150\"/>\\u000a            <hstem pos=\"1370\" width=\"150\"/>\\u000a            <vstem pos=\"122\" width=\"198\"/>\\u000a          </hintset>\\u000a        </hintSetList>\\u000a      </data>
p7
g4
tp8
Rp9
Ntp10
sVcom.fontlab.ttprogram
p11
(g2
(Vdata
p12
g4
tp13
Rp14
g2
(V<data>\\u000a        <ttProgram>\\u000a          <ttc code=\"doubleh\" point1=\"dh01\" point2=\"dh02\" stem=\"X: 208\"/>\\u000a          <ttc code=\"alignt\" point=\"at01\" zone=\"t: 1\"/>\\u000a          <ttc code=\"doublev\" point1=\"dv01\" point2=\"dv02\" stem=\"Y: 153\"/>\\u000a          <ttc code=\"singlev\" point1=\"at01\" point2=\"sv01\" stem=\"Y: 153\"/>\\u000a        </ttProgram>\\u000a      </data>
p15
g4
tp16
Rp17
Ntp18
s."
EndChar
StartChar: backslash
Encoding: 144 92 144
GlifName: backslash
Width: 1100
VWidth: 0
Flags: W
LayerCount: 2
Fore
SplineSet
75 1600 m 257
 275 1600 l 257
 985 -100 l 257
 775 -100 l 257
 75 1600 l 257
EndSplineSet
EndChar
StartChar: a
Encoding: 101 97 101
GlifName: a
Width: 1050
VWidth: 0
Flags: W
LayerCount: 2
Fore
SplineSet
920 0 m 257
NamedP: "ab01"
 710 0 l 257
 710 162 l 257
NamedP: "ah01"
 616 50 l 257
 599 37 599 37 577 25 c 128
 555 13 555 13 532.5 3.5 c 128
 510 -6 510 -6 487.5 -11.5 c 128
 465 -17 465 -17 446 -17 c 257
NamedP: "ab02"
 371 -17 371 -17 302.5 6.5 c 128
 234 30 234 30 182.5 75.5 c 128
 131 121 131 121 100.5 188.5 c 128
 70 256 70 256 70 344 c 257
NamedP: "sh01"
 70 437 70 437 107.5 505.5 c 128
 145 574 145 574 203.5 619.5 c 128
 262 665 262 665 334 687.5 c 128
 406 710 406 710 475 710 c 257
NamedP: "dv02"
 532 710 532 710 575.5 704 c 128
 619 698 619 698 649 690 c 257
 684 681 684 681 710 670 c 257
NamedP: "sh02"
 710 705 l 257
 710 764 710 764 703 811 c 128
 696 858 696 858 674.5 890.5 c 128
 653 923 653 923 612.5 940 c 128
 572 957 572 957 505 957 c 257
NamedP: "sv01"
 451 957 451 957 401 949.5 c 128
 351 942 351 942 312 933 c 257
 266 922 266 922 227 910 c 257
NamedP: "ih01"
 155 1044 l 257
 199 1064 199 1064 255 1080 c 257
NamedP: "sh04"
 303 1094 303 1094 369 1105.5 c 128
 435 1117 435 1117 515 1117 c 257
NamedP: "av01"
 630 1117 630 1117 705 1086 c 128
 780 1055 780 1055 823 999 c 128
 866 943 866 943 883 864.5 c 128
 900 786 900 786 900 690 c 257
 900 180 l 257
NamedP: "sh05"
 920 0 l 257
NamedP: "ab01"
710 533 m 257
NamedP: "sh06"
 682 537 682 537 650 541 c 257
NamedP: "sv02"
 623 544 623 544 588 547 c 128
 553 550 553 550 515 550 c 257
NamedP: "dv01"
 459 550 459 550 412.5 539 c 128
 366 528 366 528 332 503.5 c 128
 298 479 298 479 279 440 c 128
 260 401 260 401 260 345 c 257
NamedP: "sh03"
 260 300 260 300 275 263 c 128
 290 226 290 226 316 199 c 128
 342 172 342 172 377.5 157.5 c 128
 413 143 413 143 454 143 c 257
NamedP: "sv03"
 473 143 473 143 494.5 148.5 c 128
 516 154 516 154 537.5 163 c 128
 559 172 559 172 580.5 184 c 128
 602 196 602 196 621 208 c 257
 666 237 666 237 710 274 c 257
 710 533 l 257
NamedP: "sh06"
EndSplineSet
PickledDataWithLists: "(dp0
Vcom.adobe.type.autohint
p1
(c_codecs
encode
p2
(Vdata
p3
Vlatin1
p4
tp5
Rp6
g2
(V<data>\\u000a        <hintSetList>\\u000a          <hintset pointTag=\"ab01\">\\u000a            <hstem pos=\"-17\" width=\"160\"/>\\u000a            <hstem pos=\"550\" width=\"160\"/>\\u000a            <hstem pos=\"957\" width=\"160\"/>\\u000a            <vstem pos=\"70\" width=\"190\"/>\\u000a            <vstem pos=\"710\" width=\"190\"/>\\u000a          </hintset>\\u000a        </hintSetList>\\u000a      </data>
p7
g4
tp8
Rp9
Ntp10
sVcom.fontlab.ttprogram
p11
(g2
(Vdata
p12
g4
tp13
Rp14
g2
(V<data>\\u000a        <ttProgram>\\u000a          <ttc align=\"round\" code=\"alignh\" point=\"lsb\"/>\\u000a          <ttc align=\"round\" code=\"alignh\" point=\"ah01\"/>\\u000a          <ttc align=\"round\" code=\"singleh\" point1=\"lsb\" point2=\"sh01\"/>\\u000a          <ttc code=\"singleh\" point1=\"ah01\" point2=\"sh02\"/>\\u000a          <ttc code=\"interpolateh\" point=\"ih01\" point1=\"sh01\" point2=\"sh02\"/>\\u000a          <ttc code=\"singleh\" point1=\"sh01\" point2=\"sh03\" stem=\"X: 190\"/>\\u000a          <ttc align=\"round\" code=\"singleh\" point1=\"sh03\" point2=\"sh04\"/>\\u000a          <ttc code=\"singleh\" point1=\"ah01\" point2=\"sh05\" stem=\"X: 190\"/>\\u000a          <ttc code=\"singleh\" point1=\"ah01\" point2=\"sh06\"/>\\u000a          <ttc code=\"singleh\" point1=\"sh05\" point2=\"rsb\" round=\"true\"/>\\u000a          <ttc align=\"round\" code=\"alignv\" point=\"av01\"/>\\u000a          <ttc code=\"alignb\" point=\"ab01\" zone=\"b: 0\"/>\\u000a          <ttc code=\"alignb\" point=\"ab02\" zone=\"b: 0\"/>\\u000a          <ttc code=\"doublev\" point1=\"dv01\" point2=\"dv02\" stem=\"Y: 162\"/>\\u000a          <ttc code=\"interpolatev\" point=\"sh02\" point1=\"dv01\" point2=\"dv02\"/>\\u000a          <ttc code=\"singlev\" point1=\"av01\" point2=\"sv01\" stem=\"Y: 162\"/>\\u000a          <ttc align=\"round\" code=\"singlev\" point1=\"dv01\" point2=\"sv02\"/>\\u000a          <ttc code=\"singlev\" point1=\"ab02\" point2=\"sv03\" stem=\"Y: 162\"/>\\u000a        </ttProgram>\\u000a      </data>
p15
g4
tp16
Rp17
Ntp18
s."
EndChar
StartChar: b
Encoding: 142 98 142
GlifName: b
Width: 1200
VWidth: 0
Flags: W
LayerCount: 2
Fore
SplineSet
390 171 m 257
NamedP: "sh03"
 409 165 409 165 434 159.5 c 128
 459 154 459 154 487.5 150.5 c 128
 516 147 516 147 546 145 c 128
 576 143 576 143 604 143 c 257
NamedP: "sv01"
 665 143 665 143 711.5 163 c 128
 758 183 758 183 792 216.5 c 128
 826 250 826 250 848.5 295.5 c 128
 871 341 871 341 885 391.5 c 128
 899 442 899 442 904.5 496 c 128
 910 550 910 550 910 601 c 257
NamedP: "ah01"
 910 701 910 701 891 769 c 128
 872 837 872 837 839.5 879 c 128
 807 921 807 921 764.5 939 c 128
 722 957 722 957 675 957 c 257
NamedP: "sv02"
 596 957 596 957 524 926.5 c 128
 452 896 452 896 390 845 c 257
 390 171 l 257
NamedP: "sh03"
200 1420 m 257
NamedP: "sh01"
 180 1600 l 257
 390 1620 l 257
NamedP: "sh02"
 390 974 l 257
NamedP: "iv01"
 475 1065 l 257
 526 1089 526 1089 582 1103 c 128
 638 1117 638 1117 694 1117 c 257
NamedP: "av01"
 777 1117 777 1117 850.5 1083 c 128
 924 1049 924 1049 979.5 982.5 c 128
 1035 916 1035 916 1067.5 819 c 128
 1100 722 1100 722 1100 596 c 257
NamedP: "sh04"
 1100 458 1100 458 1062.5 345 c 128
 1025 232 1025 232 957.5 151.5 c 128
 890 71 890 71 797.5 27 c 128
 705 -17 705 -17 595 -17 c 257
NamedP: "ab01"
 532 -17 532 -17 471 -12.5 c 128
 410 -8 410 -8 357 -0.5 c 128
 304 7 304 7 263 16.5 c 128
 222 26 222 26 200 35 c 257
 200 1420 l 257
NamedP: "sh01"
EndSplineSet
PickledDataWithLists: "(dp0
Vcom.adobe.type.autohint
p1
(c_codecs
encode
p2
(Vdata
p3
Vlatin1
p4
tp5
Rp6
g2
(V<data>\\u000a        <hintSetList>\\u000a          <hintset pointTag=\"sh03\">\\u000a            <hstem pos=\"-17\" width=\"160\"/>\\u000a            <hstem pos=\"957\" width=\"160\"/>\\u000a            <hstem pos=\"1620\" width=\"-20\"/>\\u000a            <vstem pos=\"200\" width=\"190\"/>\\u000a            <vstem pos=\"910\" width=\"190\"/>\\u000a          </hintset>\\u000a        </hintSetList>\\u000a      </data>
p7
g4
tp8
Rp9
Ntp10
sVcom.fontlab.ttprogram
p11
(g2
(Vdata
p12
g4
tp13
Rp14
g2
(V<data>\\u000a        <ttProgram>\\u000a          <ttc align=\"round\" code=\"alignh\" point=\"lsb\"/>\\u000a          <ttc align=\"round\" code=\"alignh\" point=\"ah01\"/>\\u000a          <ttc align=\"round\" code=\"singleh\" point1=\"lsb\" point2=\"sh01\"/>\\u000a          <ttc code=\"singleh\" point1=\"sh01\" point2=\"sh02\" stem=\"X: 190\"/>\\u000a          <ttc code=\"singleh\" point1=\"sh02\" point2=\"sh03\"/>\\u000a          <ttc code=\"singleh\" point1=\"ah01\" point2=\"sh04\" stem=\"X: 190\"/>\\u000a          <ttc code=\"singleh\" point1=\"sh04\" point2=\"rsb\" round=\"true\"/>\\u000a          <ttc align=\"round\" code=\"alignv\" point=\"sh02\"/>\\u000a          <ttc align=\"round\" code=\"alignv\" point=\"av01\"/>\\u000a          <ttc code=\"alignb\" point=\"ab01\" zone=\"b: 0\"/>\\u000a          <ttc code=\"singlev\" point1=\"ab01\" point2=\"sv01\" stem=\"Y: 162\"/>\\u000a          <ttc code=\"singlev\" point1=\"av01\" point2=\"sv02\" stem=\"Y: 162\"/>\\u000a          <ttc code=\"interpolatev\" point=\"iv01\" point1=\"sv02\" point2=\"av01\"/>\\u000a        </ttProgram>\\u000a      </data>
p15
g4
tp16
Rp17
Ntp18
s."
EndChar
StartChar: e
Encoding: 231 101 231
GlifName: e
Width: 1100
VWidth: 0
Flags: W
LayerCount: 2
Fore
SplineSet
966 129 m 257
NamedP: "mh01"
 935 97 935 97 898 70 c 128
 861 43 861 43 816 23.5 c 128
 771 4 771 4 716.5 -6.5 c 128
 662 -17 662 -17 595 -17 c 257
NamedP: "ab01"
 462 -17 462 -17 368 30 c 128
 274 77 274 77 214.5 156 c 128
 155 235 155 235 127.5 337 c 128
 100 439 100 439 100 550 c 257
NamedP: "sh01"
 100 621 100 621 113 690.5 c 128
 126 760 126 760 152 823 c 128
 178 886 178 886 217 940 c 128
 256 994 256 994 308 1033 c 128
 360 1072 360 1072 425.5 1094.5 c 128
 491 1117 491 1117 570 1117 c 257
NamedP: "av01"
 678 1117 678 1117 757 1082 c 128
 836 1047 836 1047 888 984 c 128
 940 921 940 921 965 833 c 128
 990 745 990 745 990 638 c 257
NamedP: "dh02"
 990 607 990 607 988 570 c 128
 986 533 986 533 982 500 c 257
NamedP: "dv01"
 290 500 l 257
NamedP: "sh02"
 290 425 290 425 310.5 360 c 128
 331 295 331 295 368 246.5 c 128
 405 198 405 198 457.5 170.5 c 128
 510 143 510 143 575 143 c 257
NamedP: "mh02"
 639 143 639 143 686.5 152.5 c 128
 734 162 734 162 768 175.5 c 128
 802 189 802 189 823.5 203 c 128
NamedP: "mh03"
 845 217 845 217 857 225 c 257
NamedP: "mh04"
 966 129 l 257
NamedP: "mh01"
800 650 m 257
NamedP: "dh01"
 801 661 801 661 801.5 672 c 128
 802 683 802 683 802 694 c 257
 802 751 802 751 789 799 c 128
 776 847 776 847 749.5 882.5 c 128
 723 918 723 918 682 938 c 128
 641 958 641 958 585 958 c 257
NamedP: "sv01"
 518 958 518 958 470.5 936.5 c 128
 423 915 423 915 390.5 881.5 c 128
 358 848 358 848 338.5 808 c 128
 319 768 319 768 309 732 c 257
 257 623 l 257
NamedP: "ih01"
 435 650 l 257
 800 650 l 257
NamedP: "dh01"
EndSplineSet
PickledDataWithLists: "(dp0
Vcom.adobe.type.autohint
p1
(c_codecs
encode
p2
(Vdata
p3
Vlatin1
p4
tp5
Rp6
g2
(V<data>\\u000a        <hintSetList>\\u000a          <hintset pointTag=\"mh01\">\\u000a            <hstem pos=\"-17\" width=\"160\"/>\\u000a            <hstem pos=\"500\" width=\"150\"/>\\u000a            <hstem pos=\"958\" width=\"159\"/>\\u000a            <vstem pos=\"100\" width=\"190\"/>\\u000a            <vstem pos=\"802\" width=\"188\"/>\\u000a          </hintset>\\u000a        </hintSetList>\\u000a      </data>
p7
g4
tp8
Rp9
Ntp10
sVcom.fontlab.ttprogram
p11
(g2
(Vdata
p12
g4
tp13
Rp14
g2
(V<data>\\u000a        <ttProgram>\\u000a          <ttc align=\"round\" code=\"alignh\" point=\"lsb\"/>\\u000a          <ttc code=\"doubleh\" point1=\"dh01\" point2=\"dh02\" stem=\"X: 190\"/>\\u000a          <ttc code=\"mdeltah\" delta=\"-3\" point=\"mh01\" ppm1=\"29\" ppm2=\"29\"/>\\u000a          <ttc code=\"mdeltah\" delta=\"-2\" point=\"mh01\" ppm1=\"17\" ppm2=\"17\"/>\\u000a          <ttc code=\"mdeltah\" delta=\"-2\" point=\"mh01\" ppm1=\"27\" ppm2=\"27\"/>\\u000a          <ttc code=\"mdeltah\" delta=\"-1\" point=\"mh01\" ppm1=\"26\" ppm2=\"26\"/>\\u000a          <ttc code=\"mdeltah\" delta=\"3\" point=\"mh01\" ppm1=\"18\" ppm2=\"18\"/>\\u000a          <ttc code=\"mdeltah\" delta=\"1\" point=\"mh01\" ppm1=\"37\" ppm2=\"37\"/>\\u000a          <ttc code=\"mdeltah\" delta=\"-2\" point=\"mh01\" ppm1=\"30\" ppm2=\"31\"/>\\u000a          <ttc code=\"mdeltah\" delta=\"-2\" point=\"mh01\" ppm1=\"19\" ppm2=\"20\"/>\\u000a          <ttc code=\"mdeltah\" delta=\"-3\" point=\"mh01\" ppm1=\"40\" ppm2=\"40\"/>\\u000a          <ttc code=\"mdeltah\" delta=\"-4\" point=\"mh01\" ppm1=\"35\" ppm2=\"35\"/>\\u000a          <ttc code=\"mdeltah\" delta=\"-8\" point=\"mh01\" ppm1=\"42\" ppm2=\"42\"/>\\u000a          <ttc align=\"round\" code=\"singleh\" point1=\"lsb\" point2=\"sh01\"/>\\u000a          <ttc code=\"singleh\" point1=\"sh01\" point2=\"sh02\" stem=\"X: 190\"/>\\u000a          <ttc code=\"mdeltah\" delta=\"-1\" point=\"sh02\" ppm1=\"18\" ppm2=\"18\"/>\\u000a          <ttc code=\"mdeltah\" delta=\"-1\" point=\"sh02\" ppm1=\"27\" ppm2=\"27\"/>\\u000a          <ttc code=\"mdeltah\" delta=\"-1\" point=\"mh02\" ppm1=\"11\" ppm2=\"11\"/>\\u000a          <ttc code=\"mdeltah\" delta=\"-2\" point=\"mh03\" ppm1=\"20\" ppm2=\"20\"/>\\u000a          <ttc code=\"mdeltah\" delta=\"2\" point=\"mh04\" ppm1=\"23\" ppm2=\"23\"/>\\u000a          <ttc code=\"mdeltah\" delta=\"4\" point=\"mh04\" ppm1=\"19\" ppm2=\"19\"/>\\u000a          <ttc code=\"mdeltah\" delta=\"8\" point=\"mh04\" ppm1=\"27\" ppm2=\"27\"/>\\u000a          <ttc code=\"mdeltah\" delta=\"5\" point=\"mh04\" ppm1=\"18\" ppm2=\"18\"/>\\u000a          <ttc code=\"mdeltah\" delta=\"2\" point=\"mh04\" ppm1=\"31\" ppm2=\"31\"/>\\u000a          <ttc code=\"mdeltah\" delta=\"2\" point=\"mh04\" ppm1=\"17\" ppm2=\"17\"/>\\u000a          <ttc code=\"mdeltah\" delta=\"-2\" point=\"mh04\" ppm1=\"21\" ppm2=\"21\"/>\\u000a          <ttc code=\"interpolateh\" point=\"ih01\" point1=\"sh01\" point2=\"sh02\"/>\\u000a          <ttc code=\"singleh\" point1=\"dh02\" point2=\"rsb\" round=\"true\"/>\\u000a          <ttc align=\"round\" code=\"alignv\" point=\"av01\"/>\\u000a          <ttc code=\"alignb\" point=\"ab01\" zone=\"b: 0\"/>\\u000a          <ttc code=\"doublev\" point1=\"dv01\" point2=\"dh01\" stem=\"Y: 153\"/>\\u000a          <ttc code=\"mdeltav\" delta=\"1\" point=\"mh01\" ppm1=\"37\" ppm2=\"37\"/>\\u000a          <ttc code=\"mdeltav\" delta=\"4\" point=\"mh01\" ppm1=\"30\" ppm2=\"30\"/>\\u000a          <ttc code=\"mdeltav\" delta=\"5\" point=\"mh01\" ppm1=\"29\" ppm2=\"29\"/>\\u000a          <ttc code=\"mdeltav\" delta=\"4\" point=\"mh01\" ppm1=\"35\" ppm2=\"35\"/>\\u000a          <ttc code=\"mdeltav\" delta=\"2\" point=\"mh01\" ppm1=\"31\" ppm2=\"31\"/>\\u000a          <ttc code=\"mdeltav\" delta=\"-1\" point=\"mh01\" ppm1=\"24\" ppm2=\"24\"/>\\u000a          <ttc code=\"mdeltav\" delta=\"-3\" point=\"mh01\" ppm1=\"23\" ppm2=\"23\"/>\\u000a          <ttc code=\"singlev\" point1=\"ab01\" point2=\"mh02\" stem=\"Y: 162\"/>\\u000a          <ttc code=\"mdeltav\" delta=\"1\" point=\"mh03\" ppm1=\"20\" ppm2=\"20\"/>\\u000a          <ttc code=\"mdeltav\" delta=\"1\" point=\"mh04\" ppm1=\"31\" ppm2=\"31\"/>\\u000a          <ttc code=\"mdeltav\" delta=\"1\" point=\"mh04\" ppm1=\"21\" ppm2=\"21\"/>\\u000a          <ttc code=\"mdeltav\" delta=\"-3\" point=\"mh04\" ppm1=\"42\" ppm2=\"42\"/>\\u000a          <ttc code=\"mdeltav\" delta=\"-3\" point=\"mh04\" ppm1=\"39\" ppm2=\"40\"/>\\u000a          <ttc code=\"singlev\" point1=\"av01\" point2=\"sv01\" stem=\"Y: 162\"/>\\u000a          <ttc code=\"interpolatev\" point=\"ih01\" point1=\"dv01\" point2=\"dh01\"/>\\u000a          <ttc code=\"fdeltah\" delta=\"-4\" point=\"mh01\" ppm1=\"41\" ppm2=\"41\"/>\\u000a          <ttc code=\"fdeltah\" delta=\"-4\" point=\"mh01\" ppm1=\"43\" ppm2=\"43\"/>\\u000a          <ttc code=\"fdeltah\" delta=\"-3\" point=\"mh01\" ppm1=\"38\" ppm2=\"38\"/>\\u000a          <ttc code=\"fdeltah\" delta=\"-2\" point=\"mh01\" ppm1=\"11\" ppm2=\"11\"/>\\u000a          <ttc code=\"fdeltah\" delta=\"5\" point=\"mh04\" ppm1=\"15\" ppm2=\"15\"/>\\u000a          <ttc code=\"fdeltah\" delta=\"6\" point=\"mh04\" ppm1=\"14\" ppm2=\"14\"/>\\u000a          <ttc code=\"fdeltah\" delta=\"8\" point=\"mh04\" ppm1=\"16\" ppm2=\"16\"/>\\u000a          <ttc code=\"fdeltav\" delta=\"1\" point=\"mh01\" ppm1=\"41\" ppm2=\"41\"/>\\u000a          <ttc code=\"fdeltav\" delta=\"-1\" point=\"mh03\" ppm1=\"16\" ppm2=\"16\"/>\\u000a          <ttc code=\"fdeltav\" delta=\"1\" point=\"mh04\" ppm1=\"16\" ppm2=\"16\"/>\\u000a          <ttc code=\"fdeltav\" delta=\"2\" point=\"mh04\" ppm1=\"14\" ppm2=\"15\"/>\\u000a        </ttProgram>\\u000a      </data>
p15
g4
tp16
Rp17
Ntp18
s."
EndChar
StartChar: h
Encoding: 300 104 300
GlifName: h
Width: 1200
VWidth: 0
Flags: W
LayerCount: 2
Fore
SplineSet
390 0 m 257
NamedP: "sh02"
 200 0 l 257
NamedP: "sh01"
 200 1400 l 257
 180 1600 l 257
 390 1620 l 257
NamedP: "sh03"
 390 950 l 257
NamedP: "iv01"
 479 1065 l 257
 518 1087 518 1087 572 1102 c 128
 626 1117 626 1117 690 1117 c 257
NamedP: "av01"
 840 1117 840 1117 920 1017 c 128
 1000 917 1000 917 1000 730 c 257
 1000 0 l 257
NamedP: "sh04"
 810 0 l 257
NamedP: "ah01"
 810 709 l 257
 810 776 810 776 798.5 823 c 128
 787 870 787 870 766 900 c 128
 745 930 745 930 714 943.5 c 128
 683 957 683 957 644 957 c 257
NamedP: "ih01"
 605 957 605 957 568 947.5 c 128
 531 938 531 938 498 921.5 c 128
 465 905 465 905 437.5 882.5 c 128
 410 860 410 860 390 833 c 257
 390 0 l 257
NamedP: "sh02"
EndSplineSet
PickledDataWithLists: "(dp0
Vcom.adobe.type.autohint
p1
(c_codecs
encode
p2
(Vdata
p3
Vlatin1
p4
tp5
Rp6
g2
(V<data>\\u000a        <hintSetList>\\u000a          <hintset pointTag=\"sh02\">\\u000a            <hstem pos=\"21\" width=\"-21\"/>\\u000a            <hstem pos=\"957\" width=\"160\"/>\\u000a            <hstem pos=\"1620\" width=\"-20\"/>\\u000a            <vstem pos=\"200\" width=\"190\"/>\\u000a            <vstem pos=\"810\" width=\"190\"/>\\u000a          </hintset>\\u000a        </hintSetList>\\u000a      </data>
p7
g4
tp8
Rp9
Ntp10
sVcom.fontlab.ttprogram
p11
(g2
(Vdata
p12
g4
tp13
Rp14
g2
(V<data>\\u000a        <ttProgram>\\u000a          <ttc align=\"round\" code=\"alignh\" point=\"lsb\"/>\\u000a          <ttc align=\"right\" code=\"alignh\" point=\"ah01\"/>\\u000a          <ttc align=\"round\" code=\"singleh\" point1=\"lsb\" point2=\"sh01\"/>\\u000a          <ttc code=\"singleh\" point1=\"sh01\" point2=\"sh02\" stem=\"X: 190\"/>\\u000a          <ttc code=\"singleh\" point1=\"sh02\" point2=\"sh03\"/>\\u000a          <ttc code=\"singleh\" point1=\"ah01\" point2=\"sh04\" stem=\"X: 190\"/>\\u000a          <ttc code=\"interpolateh\" point=\"ih01\" point1=\"sh02\" point2=\"ah01\"/>\\u000a          <ttc code=\"singleh\" point1=\"sh04\" point2=\"rsb\" round=\"true\"/>\\u000a          <ttc align=\"round\" code=\"alignv\" point=\"sh03\"/>\\u000a          <ttc align=\"round\" code=\"alignv\" point=\"av01\"/>\\u000a          <ttc code=\"alignb\" point=\"sh02\" zone=\"b: 0\"/>\\u000a          <ttc code=\"alignb\" point=\"sh04\" zone=\"b: 0\"/>\\u000a          <ttc code=\"interpolatev\" point=\"iv01\" point1=\"sh02\" point2=\"sh03\"/>\\u000a          <ttc code=\"singlev\" point1=\"av01\" point2=\"ih01\" stem=\"Y: 162\"/>\\u000a        </ttProgram>\\u000a      </data>
p15
g4
tp16
Rp17
Ntp18
s."
EndChar
StartChar: i
Encoding: 311 105 311
GlifName: i
Width: 600
VWidth: 0
Flags: W
LayerCount: 2
Fore
SplineSet
390 0 m 257
NamedP: "dh02"
 200 0 l 257
NamedP: "dh01"
 200 1055 l 257
NamedP: "av02"
 390 1075 l 257
NamedP: "av01"
 390 0 l 257
NamedP: "dh02"
194 1500 m 257
NamedP: "sh01"
 396 1500 l 257
NamedP: "sh02"
 396 1300 l 257
NamedP: "sv01"
 194 1300 l 257
NamedP: "fv01"
 194 1500 l 257
NamedP: "sh01"
EndSplineSet
PickledDataWithLists: "(dp0
Vcom.adobe.type.autohint
p1
(c_codecs
encode
p2
(Vdata
p3
Vlatin1
p4
tp5
Rp6
g2
(V<data>\\u000a        <hintSetList>\\u000a          <hintset pointTag=\"dh02\">\\u000a            <hstem pos=\"21\" width=\"-21\"/>\\u000a            <hstem pos=\"1300\" width=\"200\"/>\\u000a            <vstem pos=\"200\" width=\"190\"/>\\u000a          </hintset>\\u000a        </hintSetList>\\u000a      </data>
p7
g4
tp8
Rp9
Ntp10
sVcom.fontlab.ttprogram
p11
(g2
(Vdata
p12
g4
tp13
Rp14
g2
(V<data>\\u000a        <ttProgram>\\u000a          <ttc code=\"doubleh\" point1=\"dh01\" point2=\"dh02\" stem=\"X: 190\"/>\\u000a          <ttc align=\"round\" code=\"singleh\" point1=\"dh01\" point2=\"sh01\"/>\\u000a          <ttc align=\"round\" code=\"singleh\" point1=\"dh02\" point2=\"sh02\"/>\\u000a          <ttc align=\"right\" code=\"alignv\" point=\"av01\"/>\\u000a          <ttc align=\"right\" code=\"alignv\" point=\"av02\"/>\\u000a          <ttc code=\"alignt\" point=\"sh01\" zone=\"t: 1\"/>\\u000a          <ttc code=\"alignb\" point=\"dh02\" zone=\"b: 0\"/>\\u000a          <ttc code=\"singlev\" point1=\"sh01\" point2=\"sv01\" round=\"true\"/>\\u000a          <ttc code=\"fdeltav\" delta=\"-5\" point=\"av02\" ppm1=\"8\" ppm2=\"8\"/>\\u000a          <ttc code=\"fdeltav\" delta=\"-8\" point=\"av01\" ppm1=\"15\" ppm2=\"15\"/>\\u000a          <ttc code=\"fdeltav\" delta=\"-6\" point=\"av01\" ppm1=\"8\" ppm2=\"8\"/>\\u000a          <ttc code=\"fdeltav\" delta=\"5\" point=\"sv01\" ppm1=\"16\" ppm2=\"16\"/>\\u000a          <ttc code=\"fdeltav\" delta=\"6\" point=\"sv01\" ppm1=\"17\" ppm2=\"17\"/>\\u000a          <ttc code=\"fdeltav\" delta=\"7\" point=\"sv01\" ppm1=\"15\" ppm2=\"15\"/>\\u000a          <ttc code=\"fdeltav\" delta=\"5\" point=\"fv01\" ppm1=\"16\" ppm2=\"16\"/>\\u000a          <ttc code=\"fdeltav\" delta=\"6\" point=\"fv01\" ppm1=\"17\" ppm2=\"17\"/>\\u000a          <ttc code=\"fdeltav\" delta=\"7\" point=\"fv01\" ppm1=\"15\" ppm2=\"15\"/>\\u000a        </ttProgram>\\u000a      </data>
p15
g4
tp16
Rp17
Ntp18
s."
EndChar
StartChar: k
Encoding: 326 107 326
GlifName: k
Width: 1100
VWidth: 0
Flags: W
LayerCount: 2
Fore
SplineSet
200 0 m 257
NamedP: "dh01"
 200 1420 l 257
 180 1600 l 257
 390 1620 l 257
NamedP: "sh01"
 390 690 l 257
 760 1100 l 257
NamedP: "fh01"
 989 1100 l 257
NamedP: "sv01"
 619 690 l 257
NamedP: "fh02"
 451 627 l 257
NamedP: "av01"
 619 567 l 257
NamedP: "fh03"
 1100 0 l 257
NamedP: "ab01"
 864 0 l 257
NamedP: "fh04"
 390 557 l 257
NamedP: "iv01"
 390 0 l 257
NamedP: "dh02"
 200 0 l 257
NamedP: "dh01"
EndSplineSet
PickledDataWithLists: "(dp0
Vcom.adobe.type.autohint
p1
(c_codecs
encode
p2
(Vdata
p3
Vlatin1
p4
tp5
Rp6
g2
(V<data>\\u000a        <hintSetList>\\u000a          <hintset pointTag=\"dh01\">\\u000a            <hstem pos=\"21\" width=\"-21\"/>\\u000a            <hstem pos=\"1100\" width=\"-20\"/>\\u000a            <hstem pos=\"1620\" width=\"-20\"/>\\u000a            <vstem pos=\"200\" width=\"190\"/>\\u000a          </hintset>\\u000a        </hintSetList>\\u000a      </data>
p7
g4
tp8
Rp9
Ntp10
sVcom.fontlab.ttprogram
p11
(g2
(Vdata
p12
g4
tp13
Rp14
g2
(V<data>\\u000a        <ttProgram>\\u000a          <ttc code=\"doubleh\" point1=\"dh01\" point2=\"dh02\" stem=\"X: 190\"/>\\u000a          <ttc code=\"singleh\" point1=\"dh02\" point2=\"sh01\"/>\\u000a          <ttc align=\"round\" code=\"alignv\" point=\"sh01\"/>\\u000a          <ttc align=\"center\" code=\"alignv\" point=\"av01\"/>\\u000a          <ttc code=\"alignb\" point=\"dh01\" zone=\"b: 0\"/>\\u000a          <ttc code=\"alignb\" point=\"ab01\" zone=\"b: 0\"/>\\u000a          <ttc code=\"singlev\" point1=\"av01\" point2=\"sv01\"/>\\u000a          <ttc code=\"interpolatev\" point=\"iv01\" point1=\"dh01\" point2=\"sh01\"/>\\u000a          <ttc code=\"fdeltah\" delta=\"1\" point=\"fh01\" ppm1=\"12\" ppm2=\"12\"/>\\u000a          <ttc code=\"fdeltah\" delta=\"1\" point=\"fh01\" ppm1=\"32\" ppm2=\"32\"/>\\u000a          <ttc code=\"fdeltah\" delta=\"2\" point=\"fh01\" ppm1=\"13\" ppm2=\"13\"/>\\u000a          <ttc code=\"fdeltah\" delta=\"2\" point=\"fh01\" ppm1=\"30\" ppm2=\"31\"/>\\u000a          <ttc code=\"fdeltah\" delta=\"2\" point=\"fh01\" ppm1=\"33\" ppm2=\"33\"/>\\u000a          <ttc code=\"fdeltah\" delta=\"-4\" point=\"sv01\" ppm1=\"33\" ppm2=\"33\"/>\\u000a          <ttc code=\"fdeltah\" delta=\"-3\" point=\"sv01\" ppm1=\"16\" ppm2=\"16\"/>\\u000a          <ttc code=\"fdeltah\" delta=\"-2\" point=\"sv01\" ppm1=\"15\" ppm2=\"15\"/>\\u000a          <ttc code=\"fdeltah\" delta=\"-2\" point=\"sv01\" ppm1=\"19\" ppm2=\"19\"/>\\u000a          <ttc code=\"fdeltah\" delta=\"-2\" point=\"sv01\" ppm1=\"29\" ppm2=\"29\"/>\\u000a          <ttc code=\"fdeltah\" delta=\"-1\" point=\"sv01\" ppm1=\"12\" ppm2=\"12\"/>\\u000a          <ttc code=\"fdeltah\" delta=\"-1\" point=\"sv01\" ppm1=\"32\" ppm2=\"32\"/>\\u000a          <ttc code=\"fdeltah\" delta=\"-1\" point=\"sv01\" ppm1=\"42\" ppm2=\"42\"/>\\u000a          <ttc code=\"fdeltah\" delta=\"1\" point=\"sv01\" ppm1=\"22\" ppm2=\"22\"/>\\u000a          <ttc code=\"fdeltah\" delta=\"1\" point=\"sv01\" ppm1=\"37\" ppm2=\"37\"/>\\u000a          <ttc code=\"fdeltah\" delta=\"2\" point=\"sv01\" ppm1=\"20\" ppm2=\"20\"/>\\u000a          <ttc code=\"fdeltah\" delta=\"2\" point=\"sv01\" ppm1=\"36\" ppm2=\"36\"/>\\u000a          <ttc code=\"fdeltah\" delta=\"-2\" point=\"fh02\" ppm1=\"32\" ppm2=\"33\"/>\\u000a          <ttc code=\"fdeltah\" delta=\"-1\" point=\"fh02\" ppm1=\"19\" ppm2=\"19\"/>\\u000a          <ttc code=\"fdeltah\" delta=\"-1\" point=\"fh02\" ppm1=\"31\" ppm2=\"31\"/>\\u000a          <ttc code=\"fdeltah\" delta=\"-1\" point=\"fh02\" ppm1=\"43\" ppm2=\"43\"/>\\u000a          <ttc code=\"fdeltah\" delta=\"-2\" point=\"fh03\" ppm1=\"19\" ppm2=\"19\"/>\\u000a          <ttc code=\"fdeltah\" delta=\"-2\" point=\"fh03\" ppm1=\"30\" ppm2=\"31\"/>\\u000a          <ttc code=\"fdeltah\" delta=\"-1\" point=\"fh03\" ppm1=\"20\" ppm2=\"20\"/>\\u000a          <ttc code=\"fdeltah\" delta=\"-1\" point=\"fh03\" ppm1=\"43\" ppm2=\"43\"/>\\u000a          <ttc code=\"fdeltah\" delta=\"-5\" point=\"ab01\" ppm1=\"41\" ppm2=\"41\"/>\\u000a          <ttc code=\"fdeltah\" delta=\"-3\" point=\"ab01\" ppm1=\"19\" ppm2=\"19\"/>\\u000a          <ttc code=\"fdeltah\" delta=\"-1\" point=\"ab01\" ppm1=\"24\" ppm2=\"24\"/>\\u000a          <ttc code=\"fdeltah\" delta=\"-1\" point=\"ab01\" ppm1=\"27\" ppm2=\"27\"/>\\u000a          <ttc code=\"fdeltah\" delta=\"1\" point=\"ab01\" ppm1=\"13\" ppm2=\"13\"/>\\u000a          <ttc code=\"fdeltah\" delta=\"1\" point=\"ab01\" ppm1=\"22\" ppm2=\"22\"/>\\u000a          <ttc code=\"fdeltah\" delta=\"2\" point=\"ab01\" ppm1=\"33\" ppm2=\"33\"/>\\u000a          <ttc code=\"fdeltah\" delta=\"3\" point=\"ab01\" ppm1=\"11\" ppm2=\"11\"/>\\u000a          <ttc code=\"fdeltah\" delta=\"4\" point=\"ab01\" ppm1=\"21\" ppm2=\"21\"/>\\u000a          <ttc code=\"fdeltah\" delta=\"4\" point=\"ab01\" ppm1=\"30\" ppm2=\"30\"/>\\u000a          <ttc code=\"fdeltah\" delta=\"-3\" point=\"fh04\" ppm1=\"27\" ppm2=\"27\"/>\\u000a          <ttc code=\"fdeltah\" delta=\"-2\" point=\"fh04\" ppm1=\"29\" ppm2=\"29\"/>\\u000a          <ttc code=\"fdeltah\" delta=\"-2\" point=\"fh04\" ppm1=\"33\" ppm2=\"33\"/>\\u000a          <ttc code=\"fdeltah\" delta=\"1\" point=\"fh04\" ppm1=\"12\" ppm2=\"12\"/>\\u000a          <ttc code=\"fdeltah\" delta=\"2\" point=\"fh04\" ppm1=\"16\" ppm2=\"16\"/>\\u000a          <ttc code=\"fdeltah\" delta=\"2\" point=\"fh04\" ppm1=\"25\" ppm2=\"25\"/>\\u000a          <ttc code=\"fdeltah\" delta=\"3\" point=\"fh04\" ppm1=\"11\" ppm2=\"11\"/>\\u000a          <ttc code=\"fdeltav\" delta=\"-3\" point=\"iv01\" ppm1=\"30\" ppm2=\"30\"/>\\u000a          <ttc code=\"fdeltav\" delta=\"-2\" point=\"iv01\" ppm1=\"19\" ppm2=\"20\"/>\\u000a          <ttc code=\"fdeltav\" delta=\"-2\" point=\"iv01\" ppm1=\"22\" ppm2=\"22\"/>\\u000a          <ttc code=\"fdeltav\" delta=\"-2\" point=\"iv01\" ppm1=\"31\" ppm2=\"31\"/>\\u000a        </ttProgram>\\u000a      </data>
p15
g4
tp16
Rp17
Ntp18
s."
EndChar
StartChar: l
Encoding: 328 108 328
GlifName: l
Width: 700
VWidth: 0
Flags: W
LayerCount: 2
Fore
SplineSet
390 376 m 257
NamedP: "dh02"
 390 310 390 310 397.5 265.5 c 128
 405 221 405 221 419.5 193.5 c 128
 434 166 434 166 455.5 154.5 c 128
 477 143 477 143 505 143 c 257
NamedP: "sv01"
 527 143 527 143 545 145.5 c 128
 563 148 563 148 576 152 c 257
 591 156 591 156 603 161 c 257
 672 40 l 257
NamedP: "fh01"
 664 32 664 32 646.5 22.5 c 128
 629 13 629 13 605 4 c 128
 581 -5 581 -5 550.5 -11 c 128
 520 -17 520 -17 485 -17 c 257
NamedP: "ab01"
 395 -17 395 -17 339 16 c 128
 283 49 283 49 252 106 c 128
 221 163 221 163 210.5 238.5 c 128
 200 314 200 314 200 400 c 257
NamedP: "dh01"
 200 1400 l 257
 180 1600 l 257
 390 1620 l 257
NamedP: "av01"
 390 376 l 257
NamedP: "dh02"
EndSplineSet
PickledDataWithLists: "(dp0
Vcom.adobe.type.autohint
p1
(c_codecs
encode
p2
(Vdata
p3
Vlatin1
p4
tp5
Rp6
g2
(V<data>\\u000a        <hintSetList>\\u000a          <hintset pointTag=\"dh02\">\\u000a            <hstem pos=\"-17\" width=\"160\"/>\\u000a            <hstem pos=\"1620\" width=\"-20\"/>\\u000a            <vstem pos=\"200\" width=\"190\"/>\\u000a          </hintset>\\u000a        </hintSetList>\\u000a      </data>
p7
g4
tp8
Rp9
Ntp10
sVcom.fontlab.ttprogram
p11
(g2
(Vdata
p12
g4
tp13
Rp14
g2
(V<data>\\u000a        <ttProgram>\\u000a          <ttc code=\"doubleh\" point1=\"dh01\" point2=\"dh02\" stem=\"X: 190\"/>\\u000a          <ttc align=\"round\" code=\"alignv\" point=\"av01\"/>\\u000a          <ttc code=\"alignb\" point=\"ab01\" zone=\"b: 0\"/>\\u000a          <ttc code=\"singlev\" point1=\"ab01\" point2=\"sv01\" stem=\"Y: 162\"/>\\u000a          <ttc code=\"fdeltah\" delta=\"-3\" point=\"fh01\" ppm1=\"39\" ppm2=\"39\"/>\\u000a        </ttProgram>\\u000a      </data>
p15
g4
tp16
Rp17
Ntp18
s."
EndChar
StartChar: n
Encoding: 357 110 357
GlifName: n
Width: 1200
VWidth: 0
Flags: W
LayerCount: 2
Fore
SplineSet
390 0 m 257
NamedP: "sh02"
 200 0 l 257
NamedP: "sh01"
 200 1100 l 257
 390 1120 l 257
NamedP: "sh03"
 390 937 l 257
NamedP: "ih01"
 451 1044 l 257
 469 1056 469 1056 497 1069 c 128
 525 1082 525 1082 559.5 1092.5 c 128
 594 1103 594 1103 634 1110 c 128
 674 1117 674 1117 715 1117 c 257
NamedP: "av01"
 794 1117 794 1117 848.5 1091.5 c 128
 903 1066 903 1066 937 1018 c 128
 971 970 971 970 985.5 902 c 128
 1000 834 1000 834 1000 750 c 257
 1000 0 l 257
NamedP: "sh04"
 810 0 l 257
NamedP: "ah01"
 810 750 l 257
 810 804 810 804 802.5 843 c 128
 795 882 795 882 776.5 907.5 c 128
 758 933 758 933 727 945 c 128
 696 957 696 957 650 957 c 257
NamedP: "sv01"
 616 957 616 957 581 946.5 c 128
 546 936 546 936 512.5 919.5 c 128
 479 903 479 903 447.5 883 c 128
 416 863 416 863 390 844 c 257
 390 0 l 257
NamedP: "sh02"
EndSplineSet
PickledDataWithLists: "(dp0
Vcom.adobe.type.autohint
p1
(c_codecs
encode
p2
(Vdata
p3
Vlatin1
p4
tp5
Rp6
g2
(V<data>\\u000a        <hintSetList>\\u000a          <hintset pointTag=\"sh02\">\\u000a            <hstem pos=\"21\" width=\"-21\"/>\\u000a            <hstem pos=\"957\" width=\"160\"/>\\u000a            <vstem pos=\"200\" width=\"190\"/>\\u000a            <vstem pos=\"810\" width=\"190\"/>\\u000a          </hintset>\\u000a        </hintSetList>\\u000a      </data>
p7
g4
tp8
Rp9
Ntp10
sVcom.fontlab.ttprogram
p11
(g2
(Vdata
p12
g4
tp13
Rp14
g2
(V<data>\\u000a        <ttProgram>\\u000a          <ttc align=\"round\" code=\"alignh\" point=\"lsb\"/>\\u000a          <ttc align=\"round\" code=\"alignh\" point=\"ah01\"/>\\u000a          <ttc align=\"round\" code=\"singleh\" point1=\"lsb\" point2=\"sh01\"/>\\u000a          <ttc code=\"singleh\" point1=\"sh01\" point2=\"sh02\" stem=\"X: 199\"/>\\u000a          <ttc code=\"singleh\" point1=\"sh02\" point2=\"sh03\"/>\\u000a          <ttc code=\"mdeltah\" delta=\"8\" point=\"ah01\" ppm1=\"15\" ppm2=\"16\"/>\\u000a          <ttc code=\"singleh\" point1=\"ah01\" point2=\"sh04\" stem=\"X: 199\"/>\\u000a          <ttc code=\"interpolateh\" point=\"ih01\" point1=\"sh01\" point2=\"sh04\"/>\\u000a          <ttc code=\"singleh\" point1=\"sh04\" point2=\"rsb\" round=\"true\"/>\\u000a          <ttc align=\"round\" code=\"alignv\" point=\"sh03\"/>\\u000a          <ttc align=\"round\" code=\"alignv\" point=\"av01\"/>\\u000a          <ttc code=\"alignb\" point=\"sh02\" zone=\"b: 0\"/>\\u000a          <ttc code=\"alignb\" point=\"sh04\" zone=\"b: 0\"/>\\u000a          <ttc code=\"mdeltav\" delta=\"-5\" point=\"sh03\" ppm1=\"42\" ppm2=\"42\"/>\\u000a          <ttc code=\"interpolatev\" point=\"ih01\" point1=\"sh02\" point2=\"sh03\"/>\\u000a          <ttc code=\"singlev\" point1=\"av01\" point2=\"sv01\" stem=\"Y: 162\"/>\\u000a        </ttProgram>\\u000a      </data>
p15
g4
tp16
Rp17
Ntp18
s."
EndChar
StartChar: p
Encoding: 397 112 397
GlifName: p
Width: 1200
VWidth: 0
Flags: W
LayerCount: 2
Fore
SplineSet
390 160 m 257
NamedP: "sh03"
 554 160 l 257
 646 160 646 160 713.5 190.5 c 128
 781 221 781 221 824.5 276 c 128
 868 331 868 331 889 408 c 128
 910 485 910 485 910 578 c 257
NamedP: "ah01"
 910 676 910 676 891 747.5 c 128
 872 819 872 819 839 865.5 c 128
 806 912 806 912 762.5 934.5 c 128
 719 957 719 957 670 957 c 257
NamedP: "sv01"
 621 957 621 957 578.5 944.5 c 128
 536 932 536 932 500.5 913 c 128
 465 894 465 894 437 871 c 128
 409 848 409 848 390 827 c 257
 390 160 l 257
NamedP: "sh03"
200 -500 m 257
NamedP: "sh01"
 200 1100 l 257
 390 1120 l 257
NamedP: "sh04"
 390 944 l 257
NamedP: "ih01"
 485 1071 l 257
 514 1088 514 1088 567.5 1102.5 c 128
 621 1117 621 1117 699 1117 c 257
NamedP: "av01"
 782 1117 782 1117 855 1078 c 128
 928 1039 928 1039 982.5 967 c 128
 1037 895 1037 895 1068.5 793 c 128
 1100 691 1100 691 1100 565 c 257
NamedP: "sh05"
 1100 442 1100 442 1060 338.5 c 128
 1020 235 1020 235 946.5 159.5 c 128
 873 84 873 84 768.5 42 c 128
 664 0 664 0 535 0 c 257
NamedP: "ab01"
 390 0 l 257
 390 -500 l 257
NamedP: "sh02"
 200 -500 l 257
NamedP: "sh01"
EndSplineSet
PickledDataWithLists: "(dp0
Vcom.adobe.type.autohint
p1
(c_codecs
encode
p2
(Vdata
p3
Vlatin1
p4
tp5
Rp6
g2
(V<data>\\u000a        <hintSetList>\\u000a          <hintset pointTag=\"sh03\">\\u000a            <hstem pos=\"-479\" width=\"-21\"/>\\u000a            <hstem pos=\"0\" width=\"160\"/>\\u000a            <hstem pos=\"957\" width=\"160\"/>\\u000a            <vstem pos=\"200\" width=\"190\"/>\\u000a            <vstem pos=\"910\" width=\"190\"/>\\u000a          </hintset>\\u000a        </hintSetList>\\u000a      </data>
p7
g4
tp8
Rp9
Ntp10
sVcom.fontlab.ttprogram
p11
(g2
(Vdata
p12
g4
tp13
Rp14
g2
(V<data>\\u000a        <ttProgram>\\u000a          <ttc align=\"round\" code=\"alignh\" point=\"lsb\"/>\\u000a          <ttc align=\"round\" code=\"alignh\" point=\"ah01\"/>\\u000a          <ttc align=\"round\" code=\"singleh\" point1=\"lsb\" point2=\"sh01\"/>\\u000a          <ttc code=\"singleh\" point1=\"sh01\" point2=\"sh02\" stem=\"X: 190\"/>\\u000a          <ttc code=\"singleh\" point1=\"sh02\" point2=\"sh03\"/>\\u000a          <ttc code=\"singleh\" point1=\"sh02\" point2=\"sh04\"/>\\u000a          <ttc code=\"singleh\" point1=\"ah01\" point2=\"sh05\" stem=\"X: 190\"/>\\u000a          <ttc code=\"interpolateh\" point=\"ih01\" point1=\"sh01\" point2=\"sh05\"/>\\u000a          <ttc align=\"round\" code=\"alignv\" point=\"sh04\"/>\\u000a          <ttc align=\"round\" code=\"alignv\" point=\"av01\"/>\\u000a          <ttc align=\"round\" code=\"alignv\" point=\"sh01\"/>\\u000a          <ttc code=\"alignb\" point=\"ab01\" zone=\"b: 0\"/>\\u000a          <ttc code=\"singlev\" point1=\"ab01\" point2=\"sh03\" stem=\"Y: 162\"/>\\u000a          <ttc code=\"singlev\" point1=\"av01\" point2=\"sv01\" stem=\"Y: 162\"/>\\u000a          <ttc code=\"mdeltav\" delta=\"-5\" point=\"sh04\" ppm1=\"42\" ppm2=\"42\"/>\\u000a          <ttc code=\"interpolatev\" point=\"ih01\" point1=\"sh01\" point2=\"sh04\"/>\\u000a        </ttProgram>\\u000a      </data>
p15
g4
tp16
Rp17
Ntp18
s."
EndChar
StartChar: r
Encoding: 447 114 447
GlifName: r
Width: 800
VWidth: 0
Flags: W
LayerCount: 2
Fore
SplineSet
671 948 m 257
NamedP: "sv01"
 631 948 631 948 592 932 c 128
 553 916 553 916 517 889 c 128
 481 862 481 862 449 826 c 128
 417 790 417 790 390 750 c 257
 390 0 l 257
NamedP: "dh02"
 200 0 l 257
NamedP: "dh01"
 200 1100 l 257
 390 1120 l 257
NamedP: "sh01"
 390 895 l 257
NamedP: "iv01"
 490 1070 l 257
 503 1078 503 1078 522.5 1086.5 c 128
 542 1095 542 1095 567 1101.5 c 128
 592 1108 592 1108 620.5 1112.5 c 128
 649 1117 649 1117 679 1117 c 257
NamedP: "av01"
 724 1117 724 1117 754.5 1109 c 128
 785 1101 785 1101 800 1094 c 257
 790 928 l 257
 775 933 775 933 745 940.5 c 128
 715 948 715 948 671 948 c 257
NamedP: "sv01"
EndSplineSet
PickledDataWithLists: "(dp0
Vcom.adobe.type.autohint
p1
(c_codecs
encode
p2
(Vdata
p3
Vlatin1
p4
tp5
Rp6
g2
(V<data>\\u000a        <hintSetList>\\u000a          <hintset pointTag=\"sv01\">\\u000a            <hstem pos=\"21\" width=\"-21\"/>\\u000a            <hstem pos=\"948\" width=\"169\"/>\\u000a            <vstem pos=\"200\" width=\"190\"/>\\u000a          </hintset>\\u000a        </hintSetList>\\u000a      </data>
p7
g4
tp8
Rp9
Ntp10
sVcom.fontlab.ttprogram
p11
(g2
(Vdata
p12
g4
tp13
Rp14
g2
(V<data>\\u000a        <ttProgram>\\u000a          <ttc code=\"doubleh\" point1=\"dh01\" point2=\"dh02\" stem=\"X: 190\"/>\\u000a          <ttc code=\"singleh\" point1=\"dh02\" point2=\"sh01\"/>\\u000a          <ttc align=\"round\" code=\"alignv\" point=\"sh01\"/>\\u000a          <ttc align=\"round\" code=\"alignv\" point=\"av01\"/>\\u000a          <ttc code=\"alignb\" point=\"dh02\" zone=\"b: 0\"/>\\u000a          <ttc code=\"singlev\" point1=\"av01\" point2=\"sv01\" stem=\"Y: 162\"/>\\u000a          <ttc code=\"mdeltav\" delta=\"-5\" point=\"sh01\" ppm1=\"42\" ppm2=\"42\"/>\\u000a          <ttc code=\"interpolatev\" point=\"iv01\" point1=\"dh02\" point2=\"sh01\"/>\\u000a        </ttProgram>\\u000a      </data>
p15
g4
tp16
Rp17
Ntp18
s."
EndChar
StartChar: s
Encoding: 463 115 463
GlifName: s
Width: 900
VWidth: 0
Flags: W
LayerCount: 2
Fore
SplineSet
661 919 m 257
NamedP: "sh02"
 643 928 643 928 618 937 c 128
 593 946 593 946 566 953 c 128
 539 960 539 960 511.5 964 c 128
 484 968 484 968 459 968 c 257
NamedP: "sv01"
 353 968 353 968 309 936.5 c 128
 265 905 265 905 265 842 c 257
NamedP: "sh04"
 265 800 265 800 294 772.5 c 128
 323 745 323 745 369 723 c 128
 415 701 415 701 471.5 681.5 c 128
NamedP: "iv01"
 528 662 528 662 582 635 c 257
 621 616 621 616 661 590 c 128
 701 564 701 564 733 529 c 128
 765 494 765 494 785 450 c 128
 805 406 805 406 805 351 c 257
NamedP: "sh01"
 805 250 805 250 771 180 c 128
 737 110 737 110 678.5 66.5 c 128
 620 23 620 23 541.5 3 c 128
 463 -17 463 -17 374 -17 c 257
NamedP: "ab01"
 340 -17 340 -17 297 -10.5 c 128
 254 -4 254 -4 211 7.5 c 128
 168 19 168 19 129 35 c 128
 90 51 90 51 64 69 c 257
 130 201 l 257
NamedP: "sh05"
 154 189 154 189 187 178.5 c 128
 220 168 220 168 255 160 c 128
 290 152 290 152 324.5 147.5 c 128
 359 143 359 143 386 143 c 257
NamedP: "sv02"
 432 143 432 143 474.5 152.5 c 128
 517 162 517 162 549.5 183 c 128
 582 204 582 204 601.5 237.5 c 128
 621 271 621 271 621 320 c 257
NamedP: "ah01"
 621 357 621 357 605.5 385 c 128
 590 413 590 413 563.5 434.5 c 128
 537 456 537 456 502 474 c 128
 467 492 467 492 428 508.5 c 128
NamedP: "iv02"
 389 525 389 525 348 542.5 c 128
 307 560 307 560 270 581 c 257
 235 601 235 601 202.5 625 c 128
 170 649 170 649 145 679 c 128
 120 709 120 709 105 746.5 c 128
 90 784 90 784 90 832 c 257
NamedP: "sh03"
 90 908 90 908 117 962.5 c 128
 144 1017 144 1017 193 1051 c 128
 242 1085 242 1085 311 1101 c 128
 380 1117 380 1117 463 1117 c 257
NamedP: "av01"
 501 1117 501 1117 538 1111 c 128
 575 1105 575 1105 609 1095.5 c 128
 643 1086 643 1086 671 1073 c 128
 699 1060 699 1060 719 1047 c 257
 661 919 l 257
NamedP: "sh02"
EndSplineSet
PickledDataWithLists: "(dp0
Vcom.adobe.type.autohint
p1
(c_codecs
encode
p2
(Vdata
p3
Vlatin1
p4
tp5
Rp6
g2
(V<data>\\u000a        <hintSetList>\\u000a          <hintset pointTag=\"sh02\">\\u000a            <hstem pos=\"-17\" width=\"160\"/>\\u000a            <hstem pos=\"968\" width=\"149\"/>\\u000a            <vstem pos=\"90\" width=\"175\"/>\\u000a            <vstem pos=\"621\" width=\"184\"/>\\u000a          </hintset>\\u000a        </hintSetList>\\u000a      </data>
p7
g4
tp8
Rp9
Ntp10
sVcom.fontlab.ttprogram
p11
(g2
(Vdata
p12
g4
tp13
Rp14
g2
(V<data>\\u000a        <ttProgram>\\u000a          <ttc align=\"round\" code=\"alignh\" point=\"lsb\"/>\\u000a          <ttc align=\"round\" code=\"alignh\" point=\"ah01\"/>\\u000a          <ttc code=\"singleh\" point1=\"ah01\" point2=\"sh01\" stem=\"X: 176\"/>\\u000a          <ttc code=\"singleh\" point1=\"sh01\" point2=\"sh02\"/>\\u000a          <ttc align=\"round\" code=\"singleh\" point1=\"lsb\" point2=\"sh03\"/>\\u000a          <ttc code=\"singleh\" point1=\"sh03\" point2=\"sh04\" stem=\"X: 176\"/>\\u000a          <ttc code=\"singleh\" point1=\"sh03\" point2=\"sh05\"/>\\u000a          <ttc code=\"singleh\" point1=\"sh01\" point2=\"rsb\" round=\"true\"/>\\u000a          <ttc align=\"round\" code=\"alignv\" point=\"av01\"/>\\u000a          <ttc code=\"alignb\" point=\"ab01\" zone=\"b: 0\"/>\\u000a          <ttc code=\"singlev\" point1=\"av01\" point2=\"sv01\" stem=\"Y: 153\"/>\\u000a          <ttc code=\"singlev\" point1=\"ab01\" point2=\"sv02\" stem=\"Y: 162\"/>\\u000a          <ttc code=\"interpolatev\" point=\"iv01\" point1=\"sv01\" point2=\"sv02\"/>\\u000a          <ttc code=\"interpolatev\" point=\"iv02\" point1=\"sv02\" point2=\"sv01\"/>\\u000a        </ttProgram>\\u000a      </data>
p15
g4
tp16
Rp17
Ntp18
s."
EndChar
StartChar: t
Encoding: 511 116 511
GlifName: t
Width: 800
VWidth: 0
Flags: W
LayerCount: 2
Fore
SplineSet
390 376 m 257
NamedP: "dh02"
 390 310 390 310 397.5 265.5 c 128
 405 221 405 221 419.5 193.5 c 128
 434 166 434 166 455.5 154.5 c 128
 477 143 477 143 505 143 c 257
NamedP: "sv01"
 527 143 527 143 545 145.5 c 128
 563 148 563 148 576 152 c 257
 591 156 591 156 603 161 c 257
 672 40 l 257
NamedP: "fh01"
 664 32 664 32 646.5 22.5 c 128
 629 13 629 13 605 4 c 128
 581 -5 581 -5 550.5 -11 c 128
 520 -17 520 -17 485 -17 c 257
NamedP: "ab01"
 395 -17 395 -17 339 16 c 128
 283 49 283 49 252 106 c 128
 221 163 221 163 210.5 238.5 c 128
 200 314 200 314 200 400 c 257
NamedP: "dh01"
 200 940 l 257
NamedP: "sv02"
 50 940 l 257
 50 1100 l 257
 200 1100 l 257
NamedP: "sh01"
 200 1309 l 257
NamedP: "mv01"
 385 1420 l 257
NamedP: "sh02"
 385 1100 l 257
NamedP: "sv03"
 725 1100 l 257
NamedP: "av01"
 705 940 l 257
NamedP: "sv04"
 390 940 l 257
 390 376 l 257
NamedP: "dh02"
EndSplineSet
PickledDataWithLists: "(dp0
Vcom.adobe.type.autohint
p1
(c_codecs
encode
p2
(Vdata
p3
Vlatin1
p4
tp5
Rp6
g2
(V<data>\\u000a        <hintSetList>\\u000a          <hintset pointTag=\"dh02\">\\u000a            <hstem pos=\"-17\" width=\"160\"/>\\u000a            <hstem pos=\"940\" width=\"160\"/>\\u000a            <hstem pos=\"1420\" width=\"-20\"/>\\u000a            <vstem pos=\"200\" width=\"190\"/>\\u000a          </hintset>\\u000a        </hintSetList>\\u000a      </data>
p7
g4
tp8
Rp9
Ntp10
sVcom.fontlab.ttprogram
p11
(g2
(Vdata
p12
g4
tp13
Rp14
g2
(V<data>\\u000a        <ttProgram>\\u000a          <ttc code=\"doubleh\" point1=\"dh01\" point2=\"dh02\" stem=\"X: 190\"/>\\u000a          <ttc code=\"singleh\" point1=\"dh01\" point2=\"sh01\"/>\\u000a          <ttc align=\"round\" code=\"singleh\" point1=\"dh02\" point2=\"sh02\"/>\\u000a          <ttc align=\"round\" code=\"alignv\" point=\"sh02\"/>\\u000a          <ttc align=\"round\" code=\"alignv\" point=\"sh01\"/>\\u000a          <ttc align=\"round\" code=\"alignv\" point=\"av01\"/>\\u000a          <ttc code=\"alignb\" point=\"ab01\" zone=\"b: 0\"/>\\u000a          <ttc code=\"singlev\" point1=\"ab01\" point2=\"sv01\" stem=\"Y: 162\"/>\\u000a          <ttc code=\"mdeltav\" delta=\"6\" point=\"sh01\" ppm1=\"26\" ppm2=\"26\"/>\\u000a          <ttc code=\"mdeltav\" delta=\"8\" point=\"sh01\" ppm1=\"37\" ppm2=\"37\"/>\\u000a          <ttc code=\"mdeltav\" delta=\"6\" point=\"sh01\" ppm1=\"35\" ppm2=\"35\"/>\\u000a          <ttc code=\"mdeltav\" delta=\"5\" point=\"sh01\" ppm1=\"19\" ppm2=\"19\"/>\\u000a          <ttc code=\"singlev\" point1=\"sh01\" point2=\"sv02\" stem=\"Y: 162\"/>\\u000a          <ttc code=\"mdeltav\" delta=\"6\" point=\"mv01\" ppm1=\"19\" ppm2=\"19\"/>\\u000a          <ttc code=\"mdeltav\" delta=\"5\" point=\"mv01\" ppm1=\"26\" ppm2=\"26\"/>\\u000a          <ttc code=\"mdeltav\" delta=\"6\" point=\"sh02\" ppm1=\"19\" ppm2=\"19\"/>\\u000a          <ttc code=\"mdeltav\" delta=\"6\" point=\"sh02\" ppm1=\"26\" ppm2=\"26\"/>\\u000a          <ttc code=\"singlev\" point1=\"sh01\" point2=\"sv03\"/>\\u000a          <ttc code=\"mdeltav\" delta=\"6\" point=\"av01\" ppm1=\"35\" ppm2=\"35\"/>\\u000a          <ttc code=\"mdeltav\" delta=\"8\" point=\"av01\" ppm1=\"37\" ppm2=\"37\"/>\\u000a          <ttc code=\"mdeltav\" delta=\"6\" point=\"av01\" ppm1=\"26\" ppm2=\"26\"/>\\u000a          <ttc code=\"mdeltav\" delta=\"5\" point=\"av01\" ppm1=\"19\" ppm2=\"19\"/>\\u000a          <ttc code=\"singlev\" point1=\"sv02\" point2=\"sv04\"/>\\u000a          <ttc code=\"fdeltah\" delta=\"-1\" point=\"fh01\" ppm1=\"39\" ppm2=\"39\"/>\\u000a          <ttc code=\"fdeltav\" delta=\"2\" point=\"fh01\" ppm1=\"39\" ppm2=\"39\"/>\\u000a          <ttc code=\"fdeltav\" delta=\"4\" point=\"fh01\" ppm1=\"40\" ppm2=\"40\"/>\\u000a          <ttc code=\"fdeltav\" delta=\"5\" point=\"fh01\" ppm1=\"32\" ppm2=\"33\"/>\\u000a        </ttProgram>\\u000a      </data>
p15
g4
tp16
Rp17
Ntp18
s."
EndChar
StartChar: x
Encoding: 580 120 580
GlifName: x
Width: 1100
VWidth: 0
Flags: W
LayerCount: 2
Fore
SplineSet
851 0 m 257
NamedP: "sh01"
 583 382 l 257
NamedP: "fh01"
 538 500 l 257
NamedP: "ah02"
 493 382 l 257
NamedP: "fh02"
 225 0 l 257
NamedP: "sh02"
 26 0 l 257
NamedP: "fh03"
 438 588 l 257
NamedP: "fh04"
 80 1100 l 257
NamedP: "iv01"
 291 1117 l 257
NamedP: "sh03"
 526 781 l 257
NamedP: "fh05"
 565 670 l 257
NamedP: "ah01"
 603 781 l 257
 828 1100 l 257
NamedP: "sh04"
 1039 1117 l 257
NamedP: "av01"
 665 583 l 257
NamedP: "fh06"
 1076 0 l 257
NamedP: "fh07"
 851 0 l 257
NamedP: "sh01"
EndSplineSet
PickledDataWithLists: "(dp0
Vcom.adobe.type.autohint
p1
(c_codecs
encode
p2
(Vdata
p3
Vlatin1
p4
tp5
Rp6
g2
(V<data>\\u000a        <hintSetList>\\u000a          <hintset pointTag=\"sh01\">\\u000a            <hstem pos=\"21\" width=\"-21\"/>\\u000a            <hstem pos=\"1117\" width=\"-20\"/>\\u000a          </hintset>\\u000a        </hintSetList>\\u000a      </data>
p7
g4
tp8
Rp9
Ntp10
sVcom.fontlab.ttprogram
p11
(g2
(Vdata
p12
g4
tp13
Rp14
g2
(V<data>\\u000a        <ttProgram>\\u000a          <ttc align=\"center\" code=\"alignh\" point=\"ah01\"/>\\u000a          <ttc align=\"center\" code=\"alignh\" point=\"ah02\"/>\\u000a          <ttc code=\"singleh\" point1=\"ah02\" point2=\"sh01\"/>\\u000a          <ttc code=\"singleh\" point1=\"ah02\" point2=\"sh02\"/>\\u000a          <ttc code=\"singleh\" point1=\"ah01\" point2=\"sh03\"/>\\u000a          <ttc code=\"singleh\" point1=\"ah01\" point2=\"sh04\"/>\\u000a          <ttc align=\"round\" code=\"alignv\" point=\"av01\"/>\\u000a          <ttc code=\"alignb\" point=\"sh01\" zone=\"b: 0\"/>\\u000a          <ttc code=\"alignb\" point=\"sh02\" zone=\"b: 0\"/>\\u000a          <ttc code=\"interpolatev\" point=\"ah02\" point1=\"sh01\" point2=\"av01\"/>\\u000a          <ttc code=\"interpolatev\" point=\"iv01\" point1=\"sh01\" point2=\"av01\"/>\\u000a          <ttc code=\"interpolatev\" point=\"ah01\" point1=\"sh01\" point2=\"av01\"/>\\u000a          <ttc code=\"fdeltah\" delta=\"1\" point=\"sh01\" ppm1=\"20\" ppm2=\"20\"/>\\u000a          <ttc code=\"fdeltah\" delta=\"3\" point=\"sh01\" ppm1=\"18\" ppm2=\"18\"/>\\u000a          <ttc code=\"fdeltah\" delta=\"4\" point=\"sh01\" ppm1=\"22\" ppm2=\"22\"/>\\u000a          <ttc code=\"fdeltah\" delta=\"7\" point=\"sh01\" ppm1=\"11\" ppm2=\"11\"/>\\u000a          <ttc code=\"fdeltah\" delta=\"3\" point=\"fh01\" ppm1=\"22\" ppm2=\"22\"/>\\u000a          <ttc code=\"fdeltah\" delta=\"6\" point=\"fh01\" ppm1=\"18\" ppm2=\"18\"/>\\u000a          <ttc code=\"fdeltah\" delta=\"8\" point=\"fh01\" ppm1=\"11\" ppm2=\"11\"/>\\u000a          <ttc code=\"fdeltah\" delta=\"2\" point=\"ah02\" ppm1=\"10\" ppm2=\"10\"/>\\u000a          <ttc code=\"fdeltah\" delta=\"6\" point=\"ah02\" ppm1=\"18\" ppm2=\"18\"/>\\u000a          <ttc code=\"fdeltah\" delta=\"7\" point=\"ah02\" ppm1=\"11\" ppm2=\"11\"/>\\u000a          <ttc code=\"fdeltah\" delta=\"5\" point=\"fh02\" ppm1=\"18\" ppm2=\"18\"/>\\u000a          <ttc code=\"fdeltah\" delta=\"8\" point=\"fh02\" ppm1=\"11\" ppm2=\"11\"/>\\u000a          <ttc code=\"fdeltah\" delta=\"3\" point=\"sh02\" ppm1=\"22\" ppm2=\"22\"/>\\u000a          <ttc code=\"fdeltah\" delta=\"8\" point=\"sh02\" ppm1=\"11\" ppm2=\"11\"/>\\u000a          <ttc code=\"fdeltah\" delta=\"8\" point=\"sh02\" ppm1=\"18\" ppm2=\"18\"/>\\u000a          <ttc code=\"fdeltah\" delta=\"1\" point=\"fh03\" ppm1=\"20\" ppm2=\"20\"/>\\u000a          <ttc code=\"fdeltah\" delta=\"2\" point=\"fh03\" ppm1=\"10\" ppm2=\"10\"/>\\u000a          <ttc code=\"fdeltah\" delta=\"2\" point=\"fh03\" ppm1=\"12\" ppm2=\"12\"/>\\u000a          <ttc code=\"fdeltah\" delta=\"6\" point=\"fh03\" ppm1=\"18\" ppm2=\"18\"/>\\u000a          <ttc code=\"fdeltah\" delta=\"6\" point=\"fh03\" ppm1=\"22\" ppm2=\"22\"/>\\u000a          <ttc code=\"fdeltah\" delta=\"7\" point=\"fh03\" ppm1=\"11\" ppm2=\"11\"/>\\u000a          <ttc code=\"fdeltah\" delta=\"-3\" point=\"fh04\" ppm1=\"22\" ppm2=\"22\"/>\\u000a          <ttc code=\"fdeltah\" delta=\"2\" point=\"fh04\" ppm1=\"15\" ppm2=\"16\"/>\\u000a          <ttc code=\"fdeltah\" delta=\"2\" point=\"fh04\" ppm1=\"18\" ppm2=\"18\"/>\\u000a          <ttc code=\"fdeltah\" delta=\"2\" point=\"fh04\" ppm1=\"20\" ppm2=\"20\"/>\\u000a          <ttc code=\"fdeltah\" delta=\"3\" point=\"fh04\" ppm1=\"14\" ppm2=\"14\"/>\\u000a          <ttc code=\"fdeltah\" delta=\"4\" point=\"fh04\" ppm1=\"10\" ppm2=\"10\"/>\\u000a          <ttc code=\"fdeltah\" delta=\"5\" point=\"fh04\" ppm1=\"11\" ppm2=\"11\"/>\\u000a          <ttc code=\"fdeltah\" delta=\"-4\" point=\"iv01\" ppm1=\"16\" ppm2=\"16\"/>\\u000a          <ttc code=\"fdeltah\" delta=\"-4\" point=\"iv01\" ppm1=\"26\" ppm2=\"26\"/>\\u000a          <ttc code=\"fdeltah\" delta=\"-3\" point=\"iv01\" ppm1=\"13\" ppm2=\"13\"/>\\u000a          <ttc code=\"fdeltah\" delta=\"-3\" point=\"iv01\" ppm1=\"17\" ppm2=\"17\"/>\\u000a          <ttc code=\"fdeltah\" delta=\"-2\" point=\"iv01\" ppm1=\"20\" ppm2=\"21\"/>\\u000a          <ttc code=\"fdeltah\" delta=\"3\" point=\"iv01\" ppm1=\"22\" ppm2=\"22\"/>\\u000a          <ttc code=\"fdeltah\" delta=\"5\" point=\"iv01\" ppm1=\"11\" ppm2=\"11\"/>\\u000a          <ttc code=\"fdeltah\" delta=\"6\" point=\"iv01\" ppm1=\"18\" ppm2=\"18\"/>\\u000a          <ttc code=\"fdeltah\" delta=\"-4\" point=\"sh03\" ppm1=\"16\" ppm2=\"16\"/>\\u000a          <ttc code=\"fdeltah\" delta=\"-3\" point=\"sh03\" ppm1=\"22\" ppm2=\"22\"/>\\u000a          <ttc code=\"fdeltah\" delta=\"-1\" point=\"sh03\" ppm1=\"17\" ppm2=\"17\"/>\\u000a          <ttc code=\"fdeltah\" delta=\"-2\" point=\"fh05\" ppm1=\"25\" ppm2=\"25\"/>\\u000a          <ttc code=\"fdeltah\" delta=\"3\" point=\"sh04\" ppm1=\"16\" ppm2=\"16\"/>\\u000a          <ttc code=\"fdeltah\" delta=\"-2\" point=\"av01\" ppm1=\"20\" ppm2=\"20\"/>\\u000a          <ttc code=\"fdeltah\" delta=\"-2\" point=\"av01\" ppm1=\"24\" ppm2=\"24\"/>\\u000a          <ttc code=\"fdeltah\" delta=\"-1\" point=\"av01\" ppm1=\"12\" ppm2=\"12\"/>\\u000a          <ttc code=\"fdeltah\" delta=\"4\" point=\"av01\" ppm1=\"16\" ppm2=\"16\"/>\\u000a          <ttc code=\"fdeltah\" delta=\"4\" point=\"av01\" ppm1=\"18\" ppm2=\"18\"/>\\u000a          <ttc code=\"fdeltah\" delta=\"5\" point=\"av01\" ppm1=\"11\" ppm2=\"11\"/>\\u000a          <ttc code=\"fdeltah\" delta=\"-2\" point=\"fh06\" ppm1=\"15\" ppm2=\"15\"/>\\u000a          <ttc code=\"fdeltah\" delta=\"3\" point=\"fh06\" ppm1=\"20\" ppm2=\"20\"/>\\u000a          <ttc code=\"fdeltah\" delta=\"-4\" point=\"fh07\" ppm1=\"20\" ppm2=\"20\"/>\\u000a          <ttc code=\"fdeltah\" delta=\"-2\" point=\"fh07\" ppm1=\"12\" ppm2=\"12\"/>\\u000a          <ttc code=\"fdeltah\" delta=\"-2\" point=\"fh07\" ppm1=\"15\" ppm2=\"15\"/>\\u000a          <ttc code=\"fdeltah\" delta=\"-2\" point=\"fh07\" ppm1=\"19\" ppm2=\"19\"/>\\u000a          <ttc code=\"fdeltah\" delta=\"2\" point=\"fh07\" ppm1=\"22\" ppm2=\"22\"/>\\u000a          <ttc code=\"fdeltah\" delta=\"3\" point=\"fh07\" ppm1=\"18\" ppm2=\"18\"/>\\u000a          <ttc code=\"fdeltah\" delta=\"6\" point=\"fh07\" ppm1=\"11\" ppm2=\"11\"/>\\u000a        </ttProgram>\\u000a      </data>
p15
g4
tp16
Rp17
Ntp18
s."
EndChar
StartChar: z
Encoding: 586 122 586
GlifName: z
Width: 1000
VWidth: 0
Flags: W
LayerCount: 2
Fore
SplineSet
880 160 m 257
NamedP: "sv01"
 900 0 l 257
NamedP: "ab01"
 81 0 l 257
 61 50 l 257
 524 826 l 257
 676 980 l 257
 471 940 l 257
 148 940 l 257
NamedP: "sv03"
 128 1100 l 257
NamedP: "sv02"
 832 1100 l 257
NamedP: "mh01"
 852 1051 l 257
 403 280 l 257
 252 120 l 257
NamedP: "iv01"
 457 160 l 257
 880 160 l 257
NamedP: "sv01"
EndSplineSet
PickledDataWithLists: "(dp0
Vcom.adobe.type.autohint
p1
(c_codecs
encode
p2
(Vdata
p3
Vlatin1
p4
tp5
Rp6
g2
(V<data>\\u000a        <hintSetList>\\u000a          <hintset pointTag=\"sv01\">\\u000a            <hstem pos=\"0\" width=\"160\"/>\\u000a            <hstem pos=\"940\" width=\"160\"/>\\u000a          </hintset>\\u000a        </hintSetList>\\u000a      </data>
p7
g4
tp8
Rp9
Ntp10
sVcom.fontlab.ttprogram
p11
(g2
(Vdata
p12
g4
tp13
Rp14
g2
(V<data>\\u000a        <ttProgram>\\u000a          <ttc code=\"mdeltah\" delta=\"-1\" point=\"mh01\" ppm1=\"39\" ppm2=\"39\"/>\\u000a          <ttc align=\"round\" code=\"alignv\" point=\"mh01\"/>\\u000a          <ttc code=\"alignb\" point=\"ab01\" zone=\"b: 0\"/>\\u000a          <ttc code=\"singlev\" point1=\"ab01\" point2=\"sv01\" stem=\"Y: 162\"/>\\u000a          <ttc code=\"mdeltav\" delta=\"8\" point=\"mh01\" ppm1=\"17\" ppm2=\"17\"/>\\u000a          <ttc code=\"mdeltav\" delta=\"8\" point=\"mh01\" ppm1=\"35\" ppm2=\"35\"/>\\u000a          <ttc code=\"mdeltav\" delta=\"8\" point=\"mh01\" ppm1=\"39\" ppm2=\"39\"/>\\u000a          <ttc code=\"mdeltav\" delta=\"8\" point=\"mh01\" ppm1=\"37\" ppm2=\"37\"/>\\u000a          <ttc code=\"mdeltav\" delta=\"8\" point=\"mh01\" ppm1=\"19\" ppm2=\"19\"/>\\u000a          <ttc code=\"mdeltav\" delta=\"8\" point=\"mh01\" ppm1=\"28\" ppm2=\"28\"/>\\u000a          <ttc code=\"mdeltav\" delta=\"8\" point=\"mh01\" ppm1=\"26\" ppm2=\"26\"/>\\u000a          <ttc code=\"singlev\" point1=\"mh01\" point2=\"sv02\"/>\\u000a          <ttc code=\"singlev\" point1=\"sv02\" point2=\"sv03\" stem=\"Y: 162\"/>\\u000a          <ttc code=\"interpolatev\" point=\"iv01\" point1=\"ab01\" point2=\"sv01\"/>\\u000a          <ttc code=\"fdeltah\" delta=\"4\" point=\"mh01\" ppm1=\"10\" ppm2=\"10\"/>\\u000a        </ttProgram>\\u000a      </data>
p15
g4
tp16
Rp17
Ntp18
s."
EndChar
StartChar: braceright
Encoding: 169 125 169
GlifName: braceright
Width: 1200
VWidth: 0
Flags: W
LayerCount: 2
Fore
SplineSet
1074 625 m 257
NamedP: "dv02"
 1074 475 l 257
NamedP: "dv01"
 952 475 l 257
 903 468 903 468 873.5 448 c 128
 844 428 844 428 828 396 c 128
 812 364 812 364 807 319.5 c 128
 802 275 802 275 802 220 c 257
 802 -20 l 257
NamedP: "dh02"
 802 -105 802 -105 786.5 -178 c 128
 771 -251 771 -251 733 -305 c 128
 695 -359 695 -359 631.5 -389.5 c 128
 568 -420 568 -420 472 -420 c 257
NamedP: "av01"
 426 -420 426 -420 393.5 -416.5 c 128
 361 -413 361 -413 335.5 -406.5 c 128
 310 -400 310 -400 289.5 -391.5 c 128
 269 -383 269 -383 248 -373 c 257
 311 -250 l 257
 330 -261 330 -261 362.5 -269 c 128
 395 -277 395 -277 420 -277 c 257
 428 -277 428 -277 436 -277 c 128
 444 -277 444 -277 452 -275 c 257
 501 -268 501 -268 530.5 -248 c 128
 560 -228 560 -228 576 -196 c 128
 592 -164 592 -164 597 -119.5 c 128
 602 -75 602 -75 602 -20 c 257
NamedP: "dh01"
 602 220 l 257
 602 271 602 271 607.5 319 c 128
 613 367 613 367 626 409.5 c 128
 639 452 639 452 659 487.5 c 128
 679 523 679 523 709 550 c 257
 650 604 650 604 626 690 c 128
 602 776 602 776 602 880 c 257
NamedP: "sh01"
 602 1119 l 257
 602 1174 602 1174 597 1218.5 c 128
 592 1263 592 1263 576 1295 c 128
 560 1327 560 1327 530.5 1347 c 128
 501 1367 501 1367 452 1374 c 257
 444 1376 444 1376 436 1376 c 128
 428 1376 428 1376 420 1376 c 257
 395 1376 395 1376 362.5 1368 c 128
 330 1360 330 1360 311 1349 c 257
 248 1472 l 257
 269 1482 269 1482 289.5 1490.5 c 128
 310 1499 310 1499 335.5 1505.5 c 128
 361 1512 361 1512 393.5 1515.5 c 128
 426 1519 426 1519 472 1519 c 257
NamedP: "at01"
 568 1519 568 1519 631.5 1488.5 c 128
 695 1458 695 1458 733 1404 c 128
 771 1350 771 1350 786.5 1277 c 128
 802 1204 802 1204 802 1119 c 257
NamedP: "sh02"
 802 880 l 257
 802 825 802 825 807 780.5 c 128
 812 736 812 736 828 704 c 128
 844 672 844 672 873.5 652 c 128
 903 632 903 632 952 625 c 257
 1074 625 l 257
NamedP: "dv02"
EndSplineSet
PickledDataWithLists: "(dp0
Vcom.adobe.type.autohint
p1
(c_codecs
encode
p2
(Vdata
p3
Vlatin1
p4
tp5
Rp6
g2
(V<data>\\u000a        <hintSetList>\\u000a          <hintset pointTag=\"dv02\">\\u000a            <hstem pos=\"-399\" width=\"-21\"/>\\u000a            <hstem pos=\"475\" width=\"150\"/>\\u000a            <hstem pos=\"1519\" width=\"-20\"/>\\u000a            <vstem pos=\"602\" width=\"200\"/>\\u000a          </hintset>\\u000a        </hintSetList>\\u000a      </data>
p7
g4
tp8
Rp9
Ntp10
sVcom.fontlab.ttprogram
p11
(g2
(Vdata
p12
g4
tp13
Rp14
g2
(V<data>\\u000a        <ttProgram>\\u000a          <ttc code=\"doubleh\" point1=\"dh01\" point2=\"dh02\" stem=\"X: 208\"/>\\u000a          <ttc code=\"singleh\" point1=\"dh01\" point2=\"sh01\"/>\\u000a          <ttc code=\"singleh\" point1=\"dh02\" point2=\"sh02\"/>\\u000a          <ttc align=\"round\" code=\"alignv\" point=\"av01\"/>\\u000a          <ttc code=\"alignt\" point=\"at01\" zone=\"t: 1\"/>\\u000a          <ttc code=\"doublev\" point1=\"dv01\" point2=\"dv02\" stem=\"Y: 153\"/>\\u000a        </ttProgram>\\u000a      </data>
p15
g4
tp16
Rp17
Ntp18
s."
EndChar
StartChar: asciitilde
Encoding: 136 126 136
GlifName: asciitilde
Width: 1500
VWidth: 0
Flags: W
LayerCount: 2
Fore
SplineSet
193 484 m 257
 217 604 217 604 315.5 704.5 c 0
 414 805 414 805 531 805 c 256
 592 805 592 805 658.5 775.5 c 0
 725 746 725 746 773.5 710.5 c 0
 822 675 822 675 880.5 645.5 c 0
 939 616 939 616 987 616 c 256
 1053 616 1053 616 1097 668.5 c 0
 1141 721 1141 721 1160 792 c 257
 1306 776 l 257
 1293 691 1293 691 1246.5 611 c 0
 1200 531 1200 531 1124 476.5 c 0
 1048 422 1048 422 962 422 c 256
 914 422 914 422 850.5 451.5 c 0
 787 481 787 481 735 516.5 c 0
 683 552 683 552 619.5 581.5 c 0
 556 611 556 611 507 611 c 256
 450 611 450 611 405.5 568.5 c 0
 361 526 361 526 342 468 c 257
 193 484 l 257
EndSplineSet
EndChar
StartChar: exclamdown
Encoding: 258 161 258
GlifName: exclamdown
Width: 700
VWidth: 0
Flags: W
LayerCount: 2
Fore
SplineSet
195 -399 m 257
NamedP: "sh02"
 195 672 l 257
 405 651 l 257
 405 -399 l 257
NamedP: "sh01"
 195 -399 l 257
NamedP: "sh02"
169 981 m 257
NamedP: "dh01"
 169 1008 169 1008 179.5 1032.5 c 128
 190 1057 190 1057 208 1075 c 128
 226 1093 226 1093 250 1104 c 128
 274 1115 274 1115 302 1115 c 257
NamedP: "at01"
 329 1115 329 1115 352.5 1104 c 128
 376 1093 376 1093 393.5 1075 c 128
 411 1057 411 1057 421.5 1032.5 c 128
 432 1008 432 1008 432 981 c 257
NamedP: "dh02"
 432 954 432 954 421.5 930 c 128
 411 906 411 906 393 888 c 128
 375 870 375 870 351 859.5 c 128
 327 849 327 849 300 849 c 257
 273 849 273 849 249.5 859.5 c 128
 226 870 226 870 208 888 c 128
 190 906 190 906 179.5 930 c 128
 169 954 169 954 169 981 c 257
NamedP: "dh01"
EndSplineSet
PickledDataWithLists: "(dp0
Vcom.adobe.type.autohint
p1
(c_codecs
encode
p2
(Vdata
p3
Vlatin1
p4
tp5
Rp6
g2
(V<data>\\u000a        <hintSetList>\\u000a          <hintset pointTag=\"sh02\">\\u000a            <hstem pos=\"1115\" width=\"-266\"/>\\u000a            <vstem pos=\"169\" width=\"263\"/>\\u000a          </hintset>\\u000a        </hintSetList>\\u000a      </data>
p7
g4
tp8
Rp9
Ntp10
sVcom.fontlab.ttprogram
p11
(g2
(Vdata
p12
g4
tp13
Rp14
g2
(V<data>\\u000a        <ttProgram>\\u000a          <ttc code=\"doubleh\" point1=\"dh01\" point2=\"dh02\" stem=\"X: 208\"/>\\u000a          <ttc code=\"singleh\" point1=\"dh02\" point2=\"sh01\"/>\\u000a          <ttc code=\"singleh\" point1=\"sh01\" point2=\"sh02\" stem=\"X: 208\"/>\\u000a          <ttc code=\"alignt\" point=\"at01\" zone=\"t: x\"/>\\u000a        </ttProgram>\\u000a      </data>
p15
g4
tp16
Rp17
Ntp18
s."
EndChar
StartChar: cent
Encoding: 182 162 182
GlifName: cent
Width: 1000
VWidth: 0
Flags: W
LayerCount: 2
Fore
SplineSet
673 1320 m 257
NamedP: "hr00"
 673 1113 l 257
 725 1106 725 1106 770 1088 c 257
 843 1060 843 1060 906 991 c 257
 807 878 l 257
 768 913 768 913 714 935 c 257
 687 946 687 946 660 951 c 257
 660 153 l 257
 708 157 708 157 745 170 c 257
 799 188 799 188 828 208 c 257
 900 67 l 257
 844 29 844 29 769 6 c 257
 725 -8 725 -8 673 -13 c 257
 673 -200 l 257
 527 -200 l 257
 527 -12 l 257
 447 -2 447 -2 382 32 c 257
 288 82 288 82 225.5 164.5 c 128
 163 247 163 247 131.5 354.5 c 128
 100 462 100 462 100 577 c 257
 100 681 100 681 130.5 778.5 c 128
 161 876 161 876 223.5 951 c 128
 286 1026 286 1026 381 1071 c 257
 446 1102 446 1102 527 1112 c 257
 527 1300 l 257
 673 1320 l 257
NamedP: "hr00"
461 925 m 257
 402 894 402 894 365.5 840 c 128
 329 786 329 786 312 714.5 c 128
 295 643 295 643 295 564 c 257
 295 482 295 482 310.5 407.5 c 128
 326 333 326 333 363 276 c 128
 400 219 400 219 461 185 c 257
 495 167 495 167 539 158 c 257
 539 952 l 257
 496 944 496 944 461 925 c 257
EndSplineSet
PickledDataWithLists: "(dp0
Vcom.adobe.type.autohint
p1
(c_codecs
encode
p2
(Vdata
p3
Vlatin1
p4
tp5
Rp6
g2
(V<data>\\u000a        <hintSetList>\\u000a          <hintset pointTag=\"hr00\">\\u000a            <hstem pos=\"-379\" width=\"-21\"/>\\u000a            <hstem pos=\"-17\" width=\"169\"/>\\u000a            <hstem pos=\"957\" width=\"160\"/>\\u000a            <hstem pos=\"1520\" width=\"-20\"/>\\u000a            <vstem pos=\"100\" width=\"195\"/>\\u000a            <vstem pos=\"400\" width=\"200\"/>\\u000a          </hintset>\\u000a        </hintSetList>\\u000a      </data>
p7
g4
tp8
Rp9
Ntp10
s."
EndChar
StartChar: sterling
Encoding: 506 163 506
GlifName: sterling
Width: 1100
VWidth: 0
Flags: W
LayerCount: 2
Fore
SplineSet
250 850 m 257
NamedP: "hr00"
 411 850 l 257
 456 1165 l 257
 467 1241 467 1241 489 1306.5 c 128
 511 1372 511 1372 548.5 1419 c 128
 586 1466 586 1466 641 1493 c 128
 696 1520 696 1520 772 1520 c 257
 872 1520 872 1520 944.5 1487 c 128
 1017 1454 1017 1454 1045 1428 c 257
 955 1327 l 257
 886 1372 886 1372 819 1372 c 257
 770 1372 770 1372 737.5 1356.5 c 128
 705 1341 705 1341 684.5 1311 c 128
 664 1281 664 1281 652.5 1238 c 128
 641 1195 641 1195 634 1141 c 257
 593 850 l 257
 800 850 l 257
 780 700 l 257
 572 700 l 257
 517 263 517 263 488 224 c 257
 400 104 l 257
 562 147 l 257
 1000 147 l 257
 1000 0 l 257
 54 0 l 257
 74 147 l 257
 212 147 l 257
 247 147 247 147 286 197 c 128
 325 247 325 247 390 700 c 257
 250 700 l 257
 250 850 l 257
NamedP: "hr00"
EndSplineSet
PickledDataWithLists: "(dp0
Vcom.adobe.type.autohint
p1
(c_codecs
encode
p2
(Vdata
p3
Vlatin1
p4
tp5
Rp6
g2
(V<data>\\u000a        <hintSetList>\\u000a          <hintset pointTag=\"hr00\">\\u000a            <hstem pos=\"0\" width=\"147\"/>\\u000a            <hstem pos=\"700\" width=\"150\"/>\\u000a            <hstem pos=\"1372\" width=\"148\"/>\\u000a          </hintset>\\u000a        </hintSetList>\\u000a      </data>
p7
g4
tp8
Rp9
Ntp10
s."
EndChar
StartChar: dieresis
Encoding: 223 168 223
GlifName: dieresis
Width: 1100
VWidth: 0
Flags: W
LayerCount: 2
Fore
SplineSet
300 1500 m 257
 500 1500 l 257
NamedP: "fh01"
 500 1300 l 257
 300 1300 l 257
 300 1500 l 257
700 1500 m 257
 900 1500 l 257
 900 1300 l 257
 700 1300 l 257
 700 1500 l 257
EndSplineSet
PickledDataWithLists: "(dp0
Vcom.fontlab.ttprogram
p1
(c_codecs
encode
p2
(Vdata
p3
Vlatin1
p4
tp5
Rp6
g2
(V<data>\\u000a        <ttProgram>\\u000a          <ttc code=\"fdeltah\" delta=\"4\" point=\"fh01\" ppm1=\"17\" ppm2=\"17\"/>\\u000a          <ttc code=\"fdeltav\" delta=\"8\" point=\"fh01\" ppm1=\"17\" ppm2=\"17\"/>\\u000a        </ttProgram>\\u000a      </data>
p7
g4
tp8
Rp9
Ntp10
s."
EndChar
StartChar: ordfeminine
Encoding: 393 170 393
GlifName: ordfeminine
Width: 800
VWidth: 0
Flags: W
LayerCount: 2
Fore
SplineSet
100 800 m 257
 500 800 l 257
 500 700 l 257
 100 700 l 257
 100 800 l 257
EndSplineSet
Refer: 101 97 N 0.5 0 0 0.5 45 959 2
EndChar
StartChar: registered
Encoding: 454 174 454
GlifName: registered
Width: 1100
VWidth: 0
Flags: W
LayerCount: 2
Fore
SplineSet
550 1517 m 256
NamedP: "T+BNz3QQAA @+A4EA"
 356 1517 356 1517 218 1379 c 0
 80 1241 80 1241 80 1047 c 256
 80 852 80 852 218 714.5 c 0
 356 577 356 577 550 577 c 256
 744 577 744 577 882 714.5 c 0
 1020 852 1020 852 1020 1047 c 256
 1020 1241 1020 1241 882 1379 c 0
 744 1517 744 1517 550 1517 c 256
NamedP: "T+BNz3QQAA @+A4EA"
550 663 m 256
 392 663 392 663 279 777 c 0
 166 891 166 891 166 1047 c 256
 166 1206 166 1206 278.5 1318.5 c 0
 391 1431 391 1431 550 1431 c 256
 709 1431 709 1431 821.5 1318.5 c 0
 934 1206 934 1206 934 1047 c 256
 934 889 934 889 820 776 c 0
 706 663 706 663 550 663 c 256
474 1017 m 257
 474 800 l 257
 400 800 l 257
 400 1222 l 257
 388 1292 l 257
 434 1300 434 1300 519 1300 c 256
 611 1300 611 1300 655.5 1269 c 0
 700 1238 700 1238 700 1168 c 256
 700 1097 700 1097 668 1067 c 0
 636 1037 636 1037 562 1024 c 257
 612 1009 l 257
 769 800 l 257
 690 800 l 257
 533 1010 l 257
 529 1017 529 1017 517 1017 c 258
 474 1017 l 257
474 1171 m 257
 474 1070 l 257
 527 1070 l 258
 587 1070 587 1070 610.5 1092 c 0
 634 1114 634 1114 634 1162 c 256
 634 1217 634 1217 607 1234.5 c 0
 580 1252 580 1252 528 1252 c 256
 488 1252 488 1252 467 1248 c 257
 474 1171 l 257
EndSplineSet
PickledDataWithLists: "(dp0
Vcom.adobe.type.autohint
p1
(c_codecs
encode
p2
(Vdata
p3
Vlatin1
p4
tp5
Rp6
g2
(V<data>\\u000a        <hintSetList>\\u000a          <hintset pointTag=\"hr00\">\\u000a            <hstem pos=\"807\" width=\"-7\"/>\\u000a            <hstem pos=\"1017\" width=\"53\"/>\\u000a            <hstem pos=\"1286\" width=\"48\"/>\\u000a            <vstem pos=\"400\" width=\"74\"/>\\u000a            <vstem pos=\"653\" width=\"66\"/>\\u000a          </hintset>\\u000a        </hintSetList>\\u000a      </data>
p7
g4
tp8
Rp9
Ntp10
s."
EndChar
StartChar: degree
Encoding: 219 176 219
GlifName: degree
Width: 600
VWidth: 0
Flags: W
LayerCount: 2
Fore
SplineSet
300 1517 m 256
 188 1517 188 1517 109.5 1438 c 0
 31 1359 31 1359 31 1247 c 256
 31 1136 31 1136 110 1056.5 c 0
 189 977 189 977 300 977 c 256
 411 977 411 977 490 1056.5 c 0
 569 1136 569 1136 569 1247 c 256
 569 1359 569 1359 490.5 1438 c 0
 412 1517 412 1517 300 1517 c 256
300 1088 m 256
 234 1088 234 1088 187.5 1134.5 c 0
 141 1181 141 1181 141 1247 c 256
 141 1313 141 1313 187.5 1359.5 c 0
 234 1406 234 1406 300 1406 c 256
 366 1406 366 1406 412.5 1359.5 c 0
 459 1313 459 1313 459 1247 c 256
 459 1181 459 1181 412.5 1134.5 c 0
 366 1088 366 1088 300 1088 c 256
EndSplineSet
EndChar
StartChar: twosuperior
Encoding: 540 178 540
GlifName: twosuperior
Width: 600
VWidth: 0
Flags: W
LayerCount: 2
Fore
SplineSet
76 720 m 257
NamedP: "hr00"
 76 804 l 257
 100 842 100 842 127.5 878.5 c 128
 155 915 155 915 183.5 949.5 c 128
 212 984 212 984 239.5 1014.5 c 128
 267 1045 267 1045 290 1071 c 257
 315 1099 315 1099 338 1123.5 c 128
 361 1148 361 1148 378.5 1172.5 c 128
 396 1197 396 1197 406.5 1222.5 c 128
 417 1248 417 1248 417 1277 c 257
 417 1301 417 1301 408 1322.5 c 128
 399 1344 399 1344 383 1359.5 c 128
 367 1375 367 1375 344.5 1384.5 c 128
 322 1394 322 1394 295 1394 c 257
 264 1394 264 1394 242 1385.5 c 128
 220 1377 220 1377 203 1363.5 c 128
 186 1350 186 1350 174 1333.5 c 128
 162 1317 162 1317 151 1300 c 257
 81 1330 l 257
 94 1362 94 1362 114 1389.5 c 128
 134 1417 134 1417 161.5 1436.5 c 128
 189 1456 189 1456 224 1467 c 128
 259 1478 259 1478 302 1478 c 257
 353 1478 353 1478 392.5 1460 c 128
 432 1442 432 1442 459 1413 c 128
 486 1384 486 1384 500.5 1347 c 128
 515 1310 515 1310 515 1272 c 257
 515 1233 515 1233 500.5 1198.5 c 128
 486 1164 486 1164 465 1132.5 c 128
 444 1101 444 1101 419.5 1073.5 c 128
 395 1046 395 1046 374 1022 c 257
 348 992 348 992 322 962.5 c 128
 296 933 296 933 272.5 904.5 c 128
 249 876 249 876 228.5 850 c 128
 208 824 208 824 193 800 c 257
 528 800 l 257
 528 720 l 257
 76 720 l 257
NamedP: "hr00"
EndSplineSet
PickledDataWithLists: "(dp0
Vcom.adobe.type.autohint
p1
(c_codecs
encode
p2
(Vdata
p3
Vlatin1
p4
tp5
Rp6
g2
(V<data>\\u000a        <hintSetList>\\u000a          <hintset pointTag=\"hr00\">\\u000a            <hstem pos=\"720\" width=\"80\"/>\\u000a            <hstem pos=\"1394\" width=\"84\"/>\\u000a            <vstem pos=\"417\" width=\"98\"/>\\u000a          </hintset>\\u000a        </hintSetList>\\u000a      </data>
p7
g4
tp8
Rp9
Ntp10
s."
EndChar
StartChar: cedilla
Encoding: 181 184 181
GlifName: cedilla
Width: 1100
VWidth: 0
Flags: W
LayerCount: 2
Fore
SplineSet
524 0 m 257
 533 -10 533 -10 547 -28 c 0
 561 -46 561 -46 584 -98 c 0
 607 -150 607 -150 607 -198 c 256
 607 -285 607 -285 540 -346 c 0
 473 -407 473 -407 383 -407 c 256
 325 -407 325 -407 259.5 -384.5 c 0
 194 -362 194 -362 158 -340 c 0
 122 -318 l 257
 193 -218 l 257
 203 -225 203 -225 220 -235 c 0
 237 -245 237 -245 281 -262 c 0
 325 -279 325 -279 359 -279 c 256
 397 -279 397 -279 425.5 -254 c 0
 454 -229 454 -229 454 -189 c 256
 454 -150 454 -150 427.5 -102.5 c 0
 401 -55 401 -55 374.5 -27.5 c 0
 348 0 l 257
 524 0 l 257
EndSplineSet
EndChar
StartChar: questiondown
Encoding: 437 191 437
GlifName: questiondown
Width: 1100
VWidth: 0
Flags: W
LayerCount: 2
Fore
SplineSet
107 -42 m 257
NamedP: "hr00"
 107 21 107 21 124 71 c 128
 141 121 141 121 168.5 162 c 128
 196 203 196 203 231.5 238 c 128
 267 273 267 273 304.5 306.5 c 128
 342 340 342 340 377.5 375 c 128
 413 410 413 410 440.5 450.5 c 128
 468 491 468 491 485 540.5 c 128
 502 590 502 590 502 652 c 257
 712 673 l 257
 712 584 712 584 695 516 c 128
 678 448 678 448 650.5 395.5 c 128
 623 343 623 343 587.5 302.5 c 128
 552 262 552 262 514.5 228 c 128
 477 194 477 194 441.5 164.5 c 128
 406 135 406 135 378.5 103 c 128
 351 71 351 71 334 34 c 128
 317 -3 317 -3 317 -50 c 257
 317 -103 317 -103 337 -140.5 c 128
 357 -178 357 -178 391.5 -202 c 128
 426 -226 426 -226 472.5 -237.5 c 128
 519 -249 519 -249 572 -249 c 257
 610 -249 610 -249 650.5 -238 c 128
 691 -227 691 -227 729.5 -206 c 128
 768 -185 768 -185 803.5 -155.5 c 128
 839 -126 839 -126 867 -88 c 257
 1000 -198 l 257
 950 -264 950 -264 893 -306.5 c 128
 836 -349 836 -349 776.5 -373 c 128
 717 -397 717 -397 658 -406 c 128
 599 -415 599 -415 547 -415 c 257
 462 -415 462 -415 383 -392.5 c 128
 304 -370 304 -370 242.5 -324.5 c 128
 181 -279 181 -279 144 -208.5 c 128
 107 -138 107 -138 107 -42 c 257
NamedP: "hr00"
738 982 m 257
 738 955 738 955 727.5 931 c 128
 717 907 717 907 699 889 c 128
 681 871 681 871 657.5 860.5 c 128
 634 850 634 850 607 850 c 257
 580 850 580 850 556 860.5 c 128
 532 871 532 871 514 889 c 128
 496 907 496 907 485.5 931 c 128
 475 955 475 955 475 982 c 257
 475 1009 475 1009 485.5 1033.5 c 128
 496 1058 496 1058 513.5 1076 c 128
 531 1094 531 1094 554.5 1105 c 128
 578 1116 578 1116 605 1116 c 257
NamedP: "at01"
 633 1116 633 1116 657 1105 c 128
 681 1094 681 1094 699 1076 c 128
 717 1058 717 1058 727.5 1033.5 c 128
 738 1009 738 1009 738 982 c 257
EndSplineSet
PickledDataWithLists: "(dp0
Vcom.adobe.type.autohint
p1
(c_codecs
encode
p2
(Vdata
p3
Vlatin1
p4
tp5
Rp6
g2
(V<data>\\u000a        <hintSetList>\\u000a          <hintset pointTag=\"hr00\">\\u000a            <hstem pos=\"1116\" width=\"-266\"/>\\u000a            <vstem pos=\"738\" width=\"-263\"/>\\u000a          </hintset>\\u000a        </hintSetList>\\u000a      </data>
p7
g4
tp8
Rp9
Ntp10
sVcom.fontlab.ttprogram
p11
(g2
(Vdata
p12
g4
tp13
Rp14
g2
(V<data>\\u000a        <ttProgram>\\u000a          <ttc code=\"alignt\" point=\"at01\" zone=\"t: x\"/>\\u000a        </ttProgram>\\u000a      </data>
p15
g4
tp16
Rp17
Ntp18
s."
EndChar
StartChar: Ccedilla
Encoding: 13 199 13
GlifName: C_cedilla
Width: 1300
VWidth: 0
Flags: W
LayerCount: 2
Fore
SplineSet
828 0 m 257
 837 -10 837 -10 851 -28 c 0
 865 -46 865 -46 888 -98 c 0
 911 -150 911 -150 911 -198 c 256
 911 -285 911 -285 844 -346 c 0
 777 -407 777 -407 687 -407 c 256
 629 -407 629 -407 563.5 -384.5 c 0
 498 -362 498 -362 462 -340 c 0
 426 -318 l 257
 497 -218 l 257
 507 -225 507 -225 524 -235 c 0
 541 -245 541 -245 585 -262 c 0
 629 -279 629 -279 663 -279 c 256
 701 -279 701 -279 729.5 -254 c 0
 758 -229 758 -229 758 -189 c 256
 758 -150 758 -150 731.5 -102.5 c 0
 705 -55 705 -55 678.5 -27.5 c 0
 652 0 l 257
 828 0 l 257
EndSplineSet
Refer: 12 67 N 1 0 0 1 10 0 2
EndChar
StartChar: Oslash
Encoding: 63 216 63
GlifName: O_slash
Width: 1600
VWidth: 0
Flags: W
LayerCount: 2
Fore
SplineSet
331 -100 m 257
 121 -100 l 257
 1278 1600 l 257
 1478 1600 l 257
 331 -100 l 257
EndSplineSet
Refer: 53 79 N 1 0 0 1 0 0 2
EndChar
StartChar: germandbls
Encoding: 291 223 291
GlifName: germandbls
Width: 1300
VWidth: 0
Flags: W
LayerCount: 2
Fore
SplineSet
850 1148 m 257
 850 1077 850 1077 821 1027 c 128
 792 977 792 977 510 885 c 257
 545 807.5 l 129
EndSplineSet
EndChar
StartChar: ae
Encoding: 107 230 107
GlifName: ae
Width: 1700
VWidth: 0
Flags: W
LayerCount: 2
Fore
SplineSet
1600 638 m 256
 1600 860 1600 860 1494.5 988.5 c 0
 1389 1117 1389 1117 1180 1117 c 256
 976 1117 976 1117 846 964 c 257
 760 1117 760 1117 515 1117 c 256
 421 1117 421 1117 331 1098.5 c 0
 241 1080 241 1080 198 1062 c 0
 155 1044 l 257
 227 910 l 257
 362 957 362 957 505 957 c 256
 558 957 558 957 595 945.5 c 0
 632 934 632 934 654.5 914.5 c 0
 677 895 677 895 689.5 861.5 c 0
 702 828 702 828 706 792.5 c 0
 710 757 710 757 710 705 c 258
 710 670 l 257
 700 674 700 674 682 681 c 0
 664 688 664 688 603 699 c 0
 542 710 542 710 475 710 c 256
 404 710 404 710 334 687 c 0
 264 664 264 664 204 620.5 c 0
 144 577 144 577 107 505 c 0
 70 433 70 433 70 344 c 256
 70 175 70 175 178.5 79 c 0
 287 -17 287 -17 446 -17 c 256
 500 -17 500 -17 557.5 1 c 0
 615 19 615 19 660 46.5 c 0
 705 74 705 74 730 92 c 0
 755 110 755 110 770 124 c 257
 802 189 l 257
 845 119 845 119 912 69 c 256
 1030 -17 1030 -17 1205 -17 c 256
 1435 -17 1435 -17 1576 129 c 257
 1467 225 l 257
 1351 143 1351 143 1185 143 c 256
 1058 143 1058 143 979 245 c 0
 900 347 900 347 900 500 c 257
 1592 500 l 257
 1600 570 1600 570 1600 638 c 256
710 274 m 257
 704 269 704 269 693 260 c 0
 682 251 682 251 650 228.5 c 0
 618 206 618 206 588 188.5 c 0
 558 171 558 171 520.5 157 c 0
 483 143 483 143 454 143 c 256
 371 143 371 143 315.5 199.5 c 0
 260 256 260 256 260 345 c 256
 260 451 260 451 328.5 500.5 c 0
 397 550 397 550 515 550 c 256
 559 550 559 550 608 546 c 0
 657 542 657 542 683.5 537.5 c 0
 710 533 l 257
 710 274 l 257
1410 650 m 257
 1045 650 l 257
 867 623 l 257
 919 732 l 257
 931 773 931 773 949.5 809 c 0
 968 845 968 845 999.5 880.5 c 0
 1031 916 1031 916 1081.5 937 c 0
 1132 958 1132 958 1195 958 c 256
 1303 958 1303 958 1357.5 885.5 c 0
 1412 813 1412 813 1412 694 c 256
 1412 680 1412 680 1410 650 c 257
EndSplineSet
EndChar
StartChar: eth
Encoding: 256 240 256
GlifName: eth
Width: 1300
VWidth: 0
Flags: W
LayerCount: 2
Fore
SplineSet
440 1165 m 257
NamedP: "hr00"
 652 1344 l 257
 533 1323 l 257
 435 1375 435 1375 332 1375 c 256
 309 1375 309 1375 297 1372 c 257
 272 1515 l 257
 293 1517 293 1517 333 1517 c 256
 546 1517 546 1517 721 1402 c 257
 859 1519 l 257
 956 1404 l 257
 772 1249 l 257
 889 1249 l 257
 994 1126 994 1126 1052 960.5 c 0
 1110 795 1110 795 1110 617 c 256
 1110 559 1110 559 1100 494.5 c 0
 1090 430 1090 430 1068 357 c 0
 1046 284 1046 284 1006.5 218.5 c 0
 967 153 967 153 914 99.5 c 0
 861 46 861 46 782.5 14.5 c 0
 704 -17 704 -17 610 -17 c 256
 396 -17 396 -17 271 115.5 c 0
 146 248 146 248 146 466 c 256
 146 684 146 684 266.5 804 c 0
 387 924 387 924 587 924 c 256
 749 924 749 924 853 844 c 257
 936 727 l 257
 919 851 919 851 857 974 c 0
 795 1097 795 1097 704 1191 c 257
 537 1050 l 257
 440 1165 l 257
NamedP: "hr00"
914 604 m 257
 874 661 874 661 781 712.5 c 0
 688 764 688 764 602 764 c 256
 468 764 468 764 397 676 c 0
 326 588 326 588 326 448 c 256
 326 316 326 316 407 229.5 c 0
 488 143 488 143 609 143 c 256
 725 143 725 143 800 217.5 c 0
 875 292 875 292 899 409 c 256
 914 482 914 482 914 604 c 257
EndSplineSet
PickledDataWithLists: "(dp0
Vcom.adobe.type.autohint
p1
(c_codecs
encode
p2
(Vdata
p3
Vlatin1
p4
tp5
Rp6
g2
(V<data>\\u000a        <hintSetList>\\u000a          <hintset pointTag=\"hr00\">\\u000a            <hstem pos=\"-20\" width=\"160\"/>\\u000a            <hstem pos=\"927\" width=\"-170\"/>\\u000a            <hstem pos=\"1378\" width=\"142\"/>\\u000a            <vstem pos=\"146\" width=\"180\"/>\\u000a            <vstem pos=\"916\" width=\"206\"/>\\u000a          </hintset>\\u000a        </hintSetList>\\u000a      </data>
p7
g4
tp8
Rp9
Ntp10
s."
EndChar
StartChar: thorn
Encoding: 519 254 519
GlifName: thorn
Width: 1200
VWidth: 0
Flags: W
LayerCount: 2
Fore
SplineSet
609 -17 m 257
NamedP: "hr00"
 498 -17 498 -17 406 26 c 257
 348 54 348 54 300 95 c 257
 300 -400 l 257
 100 -400 l 257
 100 1500 l 257
 300 1520 l 257
 300 1010 l 257
 346 1048 346 1048 402 1074 c 257
 495 1117 495 1117 609 1117 c 257
 720 1117 720 1117 812 1074.5 c 128
 904 1032 904 1032 970 956.5 c 128
 1036 881 1036 881 1073 777.5 c 128
 1110 674 1110 674 1110 553 c 257
 1110 432 1110 432 1074.5 327.5 c 128
 1039 223 1039 223 974 146.5 c 128
 909 70 909 70 816 26.5 c 128
 723 -17 723 -17 609 -17 c 257
NamedP: "hr00"
920 526 m 257
 920 607 920 607 902.5 685 c 128
 885 763 885 763 847 824.5 c 128
 809 886 809 886 749 924 c 128
 689 962 689 962 605 962 c 257
 525 962 525 962 467 929 c 128
 409 896 409 896 372 841 c 128
 335 786 335 786 317 716 c 257
 301 653 301 653 300 586 c 257
 300 572 l 257
 300 491 300 491 317.5 413 c 128
 335 335 335 335 372.5 274 c 128
 410 213 410 213 469.5 175.5 c 128
 529 138 529 138 613 138 c 257
 692 138 692 138 750 171 c 128
 808 204 808 204 846 258.5 c 128
 884 313 884 313 902 383 c 128
 920 453 920 453 920 526 c 257
EndSplineSet
PickledDataWithLists: "(dp0
Vcom.adobe.type.autohint
p1
(c_codecs
encode
p2
(Vdata
p3
Vlatin1
p4
tp5
Rp6
g2
(V<data>\\u000a        <hintSetList>\\u000a          <hintset pointTag=\"hr00\">\\u000a            <hstem pos=\"-379\" width=\"-21\"/>\\u000a            <hstem pos=\"-17\" width=\"155\"/>\\u000a            <hstem pos=\"962\" width=\"155\"/>\\u000a            <hstem pos=\"1520\" width=\"-20\"/>\\u000a            <vstem pos=\"102\" width=\"200\"/>\\u000a            <vstem pos=\"920\" width=\"190\"/>\\u000a          </hintset>\\u000a        </hintSetList>\\u000a      </data>
p7
g4
tp8
Rp9
Ntp10
s."
EndChar
StartChar: OE
Encoding: 54 338 54
GlifName: O_E_
Width: 2000
VWidth: 0
Flags: W
LayerCount: 2
Fore
SplineSet
800 -17 m 257
NamedP: "hr00"
 642 -17 642 -17 517 41 c 128
 392 99 392 99 304.5 201.5 c 128
 217 304 217 304 170.5 444.5 c 128
 124 585 124 585 124 750 c 257
 124 915 124 915 169 1055.5 c 128
 214 1196 214 1196 300.5 1298.5 c 128
 387 1401 387 1401 513 1459 c 128
 639 1517 639 1517 800 1517 c 257
 980 1430 l 257
 970 1500 l 257
 1810 1500 l 257
 1810 1340 l 257
 1180 1340 l 257
 1200 1150 l 257
 1200 885 l 257
 1740 885 l 257
 1740 740 l 257
 1200 740 l 257
 1200 340 l 257
 1190 160 l 257
 1845 160 l 257
 1825 0 l 257
 970 0 l 257
 980 70 l 257
 800 -17 l 257
NamedP: "hr00"
990 1305 m 257
 968 1315 968 1315 948 1322 c 257
 880 1347 880 1347 794 1347 c 257
 671 1347 671 1347 583.5 1299.5 c 128
 496 1252 496 1252 440 1173 c 128
 384 1094 384 1094 358 993 c 128
 332 892 332 892 332 785 c 257
 332 704 332 704 343.5 626 c 128
 355 548 355 548 379 477.5 c 128
 403 407 403 407 440.5 347.5 c 128
 478 288 478 288 530.5 245 c 128
 583 202 583 202 651.5 177.5 c 128
 720 153 720 153 806 153 c 257
 887 153 887 153 953 175 c 257
 971 182 971 182 990 190 c 257
 990 1305 l 257
EndSplineSet
PickledDataWithLists: "(dp0
Vcom.adobe.type.autohint
p1
(c_codecs
encode
p2
(Vdata
p3
Vlatin1
p4
tp5
Rp6
g2
(V<data>\\u000a        <hintSetList>\\u000a          <hintset pointTag=\"hr00\">\\u000a            <hstem pos=\"0\" width=\"160\"/>\\u000a            <hstem pos=\"740\" width=\"145\"/>\\u000a            <hstem pos=\"1340\" width=\"160\"/>\\u000a            <vstem pos=\"124\" width=\"208\"/>\\u000a            <vstem pos=\"992\" width=\"208\"/>\\u000a          </hintset>\\u000a        </hintSetList>\\u000a      </data>
p7
g4
tp8
Rp9
Ntp10
s."
EndChar
StartChar: florin
Encoding: 279 402 279
GlifName: florin
Width: 1400
VWidth: 0
Flags: W
LayerCount: 2
Fore
SplineSet
1258 1470 m 257
 1221 1487 1221 1487 1200 1494.5 c 0
 1179 1502 1179 1502 1135 1509.5 c 0
 1091 1517 1091 1517 1034 1517 c 256
 874 1517 874 1517 811 1405.5 c 0
 748 1294 748 1294 653.911465969 929.062099752 c 0
 628 827 628 827 613 771 c 257
 563 828 l 257
 346 828 l 257
 306 674 l 257
 587 674 l 257
 404 -21 l 257
 401 -34 401 -34 393.5 -64 c 0
 386 -94 386 -94 382 -109.5 c 0
 378 -125 378 -125 369 -151.5 c 0
 360 -178 360 -178 352 -192.5 c 0
 344 -207 344 -207 330.5 -226 c 0
 317 -245 317 -245 302.5 -254.5 c 0
 288 -264 288 -264 267 -271 c 0
 246 -278 246 -278 222 -278 c 256
 198 -278 198 -278 165 -270 c 0
 132 -262 132 -262 113 -251 c 257
 30 -384 l 257
 133 -431 133 -431 274 -431 c 256
 312 -431 312 -431 344 -425 c 0
 376 -419 376 -419 400.5 -410 c 0
 425 -401 425 -401 447 -383 c 0
 469 -365 469 -365 484 -349.5 c 0
 499 -334 499 -334 513.5 -306.5 c 0
 528 -279 528 -279 536.5 -259.5 c 0
 545 -240 545 -240 556 -204.5 c 0
 567 -169 567 -169 572.5 -147 c 0
 578 -125 578 -125 588 -84.5 c 0
 598 -44 598 -44 604 -21 c 258
 802 730 l 257
 844 674 l 257
 1084 674 l 257
 1124 828 l 257
 828 828 l 257
 904 1117 l 258
 907 1130 907 1130 916 1166.5 c 0
 925 1203 925 1203 929.5 1219 c 0
 934 1235 934 1235 944.5 1265 c 0
 955 1295 955 1295 966.5 1310 c 0
 978 1325 978 1325 995 1342.5 c 0
 1012 1360 1012 1360 1035 1367 c 0
 1058 1374 1058 1374 1086 1374 c 256
 1110 1374 1110 1374 1143 1366 c 0
 1176 1358 1176 1358 1195 1347 c 257
 1258 1470 l 257
EndSplineSet
EndChar
StartChar: caron
Encoding: 178 711 178
GlifName: caron
Width: 1100
VWidth: 0
Flags: W
LayerCount: 2
Fore
SplineSet
780 1520 m 257
NamedP: "hr00"
 630 1520 l 257
 520 1388 l 257
 500 1310 l 257
 480 1387 l 257
 369 1520 l 257
 219 1520 l 257
 395 1240 l 257
 595 1220 l 257
 780 1520 l 257
NamedP: "hr00"
EndSplineSet
PickledDataWithLists: "(dp0
Vcom.adobe.type.autohint
p1
(c_codecs
encode
p2
(Vdata
p3
Vlatin1
p4
tp5
Rp6
g2
(V<data>\\u000a        <hintSetList>\\u000a          <hintset pointTag=\"hr00\">\\u000a            <hstem pos=\"1220\" width=\"20\"/>\\u000a            <hstem pos=\"1499\" width=\"21\"/>\\u000a          </hintset>\\u000a        </hintSetList>\\u000a      </data>
p7
g4
tp8
Rp9
Ntp10
s."
EndChar
StartChar: breve
Encoding: 172 728 172
GlifName: breve
Width: 1100
VWidth: 0
Flags: W
LayerCount: 2
Fore
SplineSet
326 1520 m 257
 326 1514 326 1514 327.5 1505 c 0
 329 1496 329 1496 338.5 1472.5 c 0
 348 1449 348 1449 364.5 1431 c 0
 381 1413 381 1413 415.5 1398.5 c 0
 450 1384 450 1384 497 1384 c 256
 545 1384 545 1384 581.5 1398 c 0
 618 1412 618 1412 634.5 1432 c 0
 651 1452 651 1452 661 1472 c 0
 671 1492 671 1492 672.5 1506 c 0
 674 1520 l 257
 780 1520 l 257
 780 1507 l 256
 780 1484 780 1484 776.5 1459.5 c 0
 773 1435 773 1435 756.5 1395.5 c 0
 740 1356 740 1356 712 1327 c 0
 684 1298 684 1298 628 1276 c 0
 572 1254 572 1254 497 1254 c 256
 443 1254 443 1254 399 1265.5 c 0
 355 1277 355 1277 326.5 1294 c 0
 298 1311 298 1311 277 1336 c 0
 256 1361 256 1361 245.5 1383.5 c 0
 235 1406 235 1406 228.5 1432.5 c 0
 222 1459 222 1459 220.5 1474.5 c 0
 219 1490 219 1490 219 1506 c 257
 219 1520 l 257
 326 1520 l 257
EndSplineSet
EndChar
StartChar: tilde
Encoding: 527 732 527
GlifName: tilde
Width: 1100
VWidth: 0
Flags: W
LayerCount: 2
Fore
SplineSet
187 1335 m 257
 196 1419 196 1419 248 1481.5 c 0
 300 1544 300 1544 369 1544 c 256
 413 1544 413 1544 460.5 1521.5 c 0
 508 1499 508 1499 551.5 1476.5 c 0
 595 1454 595 1454 629 1454 c 256
 667 1454 667 1454 690.5 1487 c 0
 714 1520 714 1520 721 1562 c 257
 817 1558 l 257
 810 1467 810 1467 754.5 1399.5 c 0
 699 1332 699 1332 622 1331 c 256
 581 1331 581 1331 496 1375.5 c 0
 411 1420 411 1420 363 1420 c 256
 330 1420 330 1420 305.5 1393 c 0
 281 1366 281 1366 273 1332 c 257
 187 1335 l 257
EndSplineSet
EndChar
StartChar: Deltagreek
Encoding: 16 916 16
GlifName: D_eltagreek
Width: 1500
VWidth: 0
Flags: W
LayerCount: 2
Fore
SplineSet
1485 0 m 257
NamedP: "ab01"
 13 0 l 257
 636 1500 l 257
 854 1523 l 257
NamedP: "at01"
 1485 0 l 257
NamedP: "ab01"
1158 160 m 257
 1281 108 l 257
NamedP: "iv01"
 1199 200 l 257
 783 1258 l 257
 748 1425 l 257
NamedP: "iv02"
 713 1258 l 257
 297 200 l 257
 212 108 l 257
NamedP: "iv03"
 338 160 l 257
 1158 160 l 257
EndSplineSet
PickledDataWithLists: "(dp0
Vcom.adobe.type.autohint
p1
(c_codecs
encode
p2
(Vdata
p3
Vlatin1
p4
tp5
Rp6
g2
(V<data>\\u000a        <hintSetList>\\u000a          <hintset pointTag=\"ab01\">\\u000a            <hstem pos=\"21\" width=\"-21\"/>\\u000a            <hstem pos=\"1523\" width=\"-20\"/>\\u000a          </hintset>\\u000a        </hintSetList>\\u000a      </data>
p7
g4
tp8
Rp9
Ntp10
sVcom.fontlab.ttprogram
p11
(g2
(Vdata
p12
g4
tp13
Rp14
g2
(V<data>\\u000a        <ttProgram>\\u000a          <ttc code=\"alignt\" point=\"at01\" zone=\"t: 1\"/>\\u000a          <ttc code=\"alignb\" point=\"ab01\" zone=\"b: 0\"/>\\u000a          <ttc code=\"interpolatev\" point=\"iv01\" point1=\"ab01\" point2=\"at01\"/>\\u000a          <ttc code=\"interpolatev\" point=\"iv02\" point1=\"ab01\" point2=\"at01\"/>\\u000a          <ttc code=\"interpolatev\" point=\"iv03\" point1=\"ab01\" point2=\"at01\"/>\\u000a        </ttProgram>\\u000a      </data>
p15
g4
tp16
Rp17
Ntp18
s."
EndChar
StartChar: Sigma
Encoding: 75 931 75
GlifName: S_igma
Width: 1200
VWidth: 0
Flags: W
LayerCount: 2
Fore
SplineSet
830 700 m 257
NamedP: "hr00"
 473 317 l 257
 246 125 l 257
 495 170 l 257
 1101 170 l 257
 1101 0 l 257
 80 0 l 257
 100 183 l 257
 600 700 l 257
 753 750 l 257
 600 800 l 257
 100 1317 l 257
 80 1500 l 257
 1101 1500 l 257
 1101 1330 l 257
 495 1330 l 257
 246 1375 l 257
 473 1183 l 257
 830 800 l 257
 830 700 l 257
NamedP: "hr00"
EndSplineSet
PickledDataWithLists: "(dp0
Vcom.adobe.type.autohint
p1
(c_codecs
encode
p2
(Vdata
p3
Vlatin1
p4
tp5
Rp6
g2
(V<data>\\u000a        <hintSetList>\\u000a          <hintset pointTag=\"hr00\">\\u000a            <hstem pos=\"0\" width=\"170\"/>\\u000a            <hstem pos=\"1330\" width=\"170\"/>\\u000a          </hintset>\\u000a        </hintSetList>\\u000a      </data>
p7
g4
tp8
Rp9
Ntp10
s."
EndChar
StartChar: alpha
Encoding: 110 945 110
GlifName: alpha
Width: 1400
VWidth: 0
Flags: W
LayerCount: 2
Fore
SplineSet
1187 996 m 257
 1110 939 1110 939 1105 851 c 128
 1100 763 1100 763 1100 552 c 257
 1100 338 1100 338 1105 269 c 257
 1110 200 1110 200 1142 160.5 c 128
 1174 121 1174 121 1210 121 c 257
 1232 121 1232 121 1243 122.5 c 128
 1254 124 1254 124 1266 126 c 257
 1319 10 l 257
 1263 -17 1263 -17 1200 -17 c 257
 1067 -17 1067 -17 999 52 c 257
 950 196 l 257
 900 84 l 257
 857 50 857 50 806 26 c 257
 713 -17 713 -17 599 -17 c 257
 488 -17 488 -17 396.5 26.5 c 128
 305 70 305 70 239 146.5 c 128
 173 223 173 223 136.5 327.5 c 128
 100 432 100 432 100 553 c 257
 100 674 100 674 135 777.5 c 128
 170 881 170 881 235 956.5 c 128
 300 1032 300 1032 392.5 1074.5 c 128
 485 1117 485 1117 599 1117 c 257
 710 1117 710 1117 802 1074 c 257
 857 1048 857 1048 903 1011 c 257
 950 900 l 257
 999 1038 l 257
 1037 1072 1037 1072 1100 1100 c 257
 1187 996 l 257
910 526 m 257
 910 607 910 607 892.5 685 c 128
 875 763 875 763 837 824.5 c 128
 799 886 799 886 739 924 c 128
 679 962 679 962 595 962 c 257
 515 962 515 962 457 929 c 128
 399 896 399 896 362 841 c 128
 325 786 325 786 307.5 716 c 128
 290 646 290 646 290 572 c 257
 290 491 290 491 307.5 413 c 128
 325 335 325 335 362.5 274 c 128
 400 213 400 213 459.5 175.5 c 128
 519 138 519 138 603 138 c 257
 682 138 682 138 740 171 c 128
 798 204 798 204 836 258.5 c 128
 874 313 874 313 892 383 c 128
 910 453 910 453 910 526 c 257
EndSplineSet
EndChar
StartChar: beta
Encoding: 147 946 147
GlifName: beta
Width: 1200
VWidth: 0
Flags: W
LayerCount: 2
Fore
SplineSet
622 -17 m 257
 681 -17 681 -17 742.5 -6.5 c 128
 804 4 804 4 1128 443 c 257
 1128 533 1128 533 1105.5 589 c 128
 1083 645 1083 645 1044 686 c 128
 1005 727 1005 727 953.5 755.5 c 128
 902 784 902 784 844 802 c 257
 704 816 l 257
 850 860 l 257
 932 902 932 902 982 981 c 128
 1032 1060 1032 1060 1032 1169 c 256
 1032 1280 1032 1280 1012.5 1311.5 c 128
390 1160 m 257
 390 1263 390 1263 463.5 1316 c 0
 537 1369 537 1369 641 1369 c 256
 724 1369 724 1369 787 1304 c 0
 850 1239 850 1239 850 1148 c 257
 850 1077 850 1077 822.5 1027 c 128
 795 977 795 977 470 885 c 257
 554 730 l 257
 760 730 760 730 849 681.5 c 128
EndSplineSet
EndChar
StartChar: zeta
Encoding: 590 950 590
GlifName: zeta
Width: 1000
VWidth: 0
Flags: W
LayerCount: 2
Fore
SplineSet
920 1500 m 257
 900 1342 l 257
 312 852 312 852 312 517 c 256
 312 403 312 403 353.5 322.5 c 0
 395 242 395 242 517 164 c 256
 558 138 558 138 625.5 102 c 0
 693 66 693 66 732.5 42 c 0
 772 18 772 18 814 -17 c 0
 856 -52 856 -52 876 -98 c 0
 896 -144 896 -144 896 -203 c 256
 896 -299 896 -299 823 -382 c 0
 750 -465 750 -465 634 -517 c 257
 544 -386 l 257
 700 -305 700 -305 700 -222 c 256
 700 -188 700 -188 685 -159.5 c 0
 670 -131 670 -131 635.5 -105.5 c 0
 601 -80 601 -80 571.5 -62.5 c 0
 542 -45 542 -45 486.5 -16.5 c 0
 431 12 431 12 400 30 c 256
 256 113 256 113 185.5 224.5 c 0
 115 336 115 336 115 492 c 256
 115 600 115 600 146.5 712.5 c 0
 178 825 178 825 230 920.5 c 0
 282 1016 282 1016 335.5 1091 c 0
 389 1166 389 1166 445 1224 c 257
 708 1369 l 257
 540 1342 l 257
 180 1342 l 257
 200 1500 l 257
 920 1500 l 257
EndSplineSet
EndChar
StartChar: eta
Encoding: 255 951 255
GlifName: eta
Width: 1200
VWidth: 0
Flags: W
LayerCount: 2
Fore
SplineSet
390 0 m 257
NamedP: "hr00"
 200 0 l 257
 200 1100 l 257
 390 1120 l 257
 390 937 l 257
 451 1044 l 257
 469 1056 469 1056 497 1069 c 128
 525 1082 525 1082 559.5 1092.5 c 128
 594 1103 594 1103 634 1110 c 128
 674 1117 674 1117 715 1117 c 257
 794 1117 794 1117 848.5 1091.5 c 128
 903 1066 903 1066 937 1018 c 128
 971 970 971 970 985.5 902 c 128
 1000 834 1000 834 1000 750 c 257
 1000 -500 l 257
 810 -500 l 257
 810 750 l 257
 810 804 810 804 802.5 843 c 128
 795 882 795 882 776.5 907.5 c 128
 758 933 758 933 727 945 c 128
 696 957 696 957 650 957 c 257
 616 957 616 957 581 946.5 c 128
 546 936 546 936 512.5 919.5 c 128
 479 903 479 903 447.5 883 c 128
 416 863 416 863 390 844 c 257
 390 0 l 257
NamedP: "hr00"
EndSplineSet
PickledDataWithLists: "(dp0
Vcom.adobe.type.autohint
p1
(c_codecs
encode
p2
(Vdata
p3
Vlatin1
p4
tp5
Rp6
g2
(V<data>\\u000a        <hintSetList>\\u000a          <hintset pointTag=\"hr00\">\\u000a            <hstem pos=\"-379\" width=\"-21\"/>\\u000a            <hstem pos=\"21\" width=\"-21\"/>\\u000a            <hstem pos=\"978\" width=\"142\"/>\\u000a            <vstem pos=\"200\" width=\"180\"/>\\u000a            <vstem pos=\"820\" width=\"180\"/>\\u000a          </hintset>\\u000a        </hintSetList>\\u000a      </data>
p7
g4
tp8
Rp9
Ntp10
s."
EndChar
StartChar: theta
Encoding: 517 952 517
GlifName: theta
Width: 1200
VWidth: 0
Flags: W
LayerCount: 2
Fore
SplineSet
600 -17 m 256
NamedP: "+DS0A"
 493 -17 493 -17 406.5 29.5 c 0
 320 76 320 76 264 152 c 0
 208 228 208 228 170 329.5 c 0
 132 431 132 431 116 535.5 c 0
 100 640 100 640 100 750 c 256
 100 841 100 841 111.5 929 c 0
 123 1017 123 1017 147 1104.5 c 0
 171 1192 171 1192 211.5 1265.5 c 0
 252 1339 252 1339 305.5 1396 c 0
 359 1453 359 1453 434.5 1485 c 0
 510 1517 510 1517 600 1517 c 256
 707 1517 707 1517 793.5 1470.5 c 0
 880 1424 880 1424 936 1348.5 c 0
 992 1273 992 1273 1030 1171.5 c 0
 1068 1070 1068 1070 1084 965 c 0
 1100 860 1100 860 1100 750 c 256
 1100 641 1100 641 1084 536 c 0
 1068 431 1068 431 1030 329.5 c 0
 992 228 992 228 936 152 c 0
 880 76 880 76 793.5 29.5 c 0
 707 -17 707 -17 600 -17 c 256
NamedP: "+DS0A"
282 820 m 257
 918 820 l 257
 914 895 914 895 902 966.5 c 0
 890 1038 890 1038 864.5 1109.5 c 0
 839 1181 839 1181 804.5 1234.5 c 0
 770 1288 770 1288 717 1321 c 0
 664 1354 664 1354 600 1354 c 256
 536 1354 536 1354 483 1321 c 0
 430 1288 430 1288 395.5 1234.5 c 0
 361 1181 361 1181 335.5 1109.5 c 0
 310 1038 310 1038 298 966.5 c 0
 286 895 286 895 282 820 c 257
282 670 m 257
 287 596 287 596 299.5 526 c 0
 312 456 312 456 337 385.5 c 0
 362 315 362 315 397 263 c 0
 432 211 432 211 484.5 178.5 c 0
 537 146 537 146 600 146 c 256
 673 146 673 146 730.5 188 c 0
 788 230 788 230 825 305 c 0
 862 380 862 380 884 470 c 0
 906 560 906 560 917 670 c 257
 282 670 l 257
EndSplineSet
PickledDataWithLists: "(dp0
Vcom.adobe.type.autohint
p1
(c_codecs
encode
p2
(Vdata
p3
Vlatin1
p4
tp5
Rp6
g2
(V<data>\\u000a        <hintSetList>\\u000a          <hintset pointTag=\"hr00\">\\u000a            <hstem pos=\"-20\" width=\"163\"/>\\u000a            <hstem pos=\"1357\" width=\"163\"/>\\u000a            <vstem pos=\"100\" width=\"180\"/>\\u000a            <vstem pos=\"920\" width=\"180\"/>\\u000a          </hintset>\\u000a        </hintSetList>\\u000a      </data>
p7
g4
tp8
Rp9
Ntp10
s."
EndChar
StartChar: lambda
Encoding: 329 955 329
GlifName: lambda
Width: 1100
VWidth: 0
Flags: W
LayerCount: 2
Fore
SplineSet
550 968 m 257
NamedP: "hr00"
 498 736 l 257
 230 0 l 257
 34 0 l 257
 451 1147 l 257
 431 1197 431 1197 406.5 1247 c 128
 382 1297 382 1297 353.5 1337 c 128
 325 1377 325 1377 294 1402.5 c 128
 263 1428 263 1428 230 1428 c 257
 206 1428 206 1428 184 1418 c 128
 162 1408 162 1408 145 1396 c 257
 72 1503 l 257
 113 1539 113 1539 162 1559.5 c 128
 211 1580 211 1580 262 1580 c 257
 330 1580 330 1580 385.5 1539 c 128
 441 1498 441 1498 487 1432.5 c 128
 533 1367 533 1367 569.5 1284 c 128
 606 1201 606 1201 637 1117 c 257
 1045 0 l 257
 871 0 l 257
 602 736 l 257
 550 968 l 257
NamedP: "hr00"
EndSplineSet
PickledDataWithLists: "(dp0
Vcom.adobe.type.autohint
p1
(c_codecs
encode
p2
(Vdata
p3
Vlatin1
p4
tp5
Rp6
g2
(V<data>\\u000a        <hintSetList>\\u000a          <hintset pointTag=\"hr00\">\\u000a            <hstem pos=\"21\" width=\"-21\"/>\\u000a            <hstem pos=\"1375\" width=\"145\"/>\\u000a          </hintset>\\u000a        </hintSetList>\\u000a      </data>
p7
g4
tp8
Rp9
Ntp10
s."
EndChar
StartChar: mugreek
Encoding: 355 956 355
GlifName: mugreek
Width: 1200
VWidth: 0
Flags: W
LayerCount: 2
Fore
SplineSet
200 1100 m 257
NamedP: "hr00"
 390 1120 l 257
 390 406 l 257
 390 358 390 358 393.5 308.5 c 128
 397 259 397 259 412.5 218.5 c 128
 428 178 428 178 472 152.5 c 128
 516 127 516 127 596 127 c 257
 656 127 656 127 711.5 150 c 128
 767 173 767 173 810 222 c 257
 810 1100 l 257
 1000 1120 l 257
 1000 0 l 257
 810 0 l 257
 810 129 l 257
 759 67 759 67 705.5 36 c 128
 652 5 652 5 605.5 -5 c 128
 559 -15 559 -15 510 -15 c 257
 473 -15 473 -15 436 -8.5 c 128
 399 -2 399 -2 370 11 c 257
 390 -150 l 257
 390 -500 l 257
 200 -500 l 257
 200 1100 l 257
NamedP: "hr00"
EndSplineSet
PickledDataWithLists: "(dp0
Vcom.adobe.type.autohint
p1
(c_codecs
encode
p2
(Vdata
p3
Vlatin1
p4
tp5
Rp6
g2
(V<data>\\u000a        <hintSetList>\\u000a          <hintset pointTag=\"hr00\">\\u000a            <hstem pos=\"-379\" width=\"-21\"/>\\u000a            <hstem pos=\"-15\" width=\"142\"/>\\u000a            <hstem pos=\"1125\" width=\"-20\"/>\\u000a            <vstem pos=\"200\" width=\"190\"/>\\u000a            <vstem pos=\"810\" width=\"190\"/>\\u000a          </hintset>\\u000a        </hintSetList>\\u000a      </data>
p7
g4
tp8
Rp9
Ntp10
s."
EndChar
StartChar: sigma1
Encoding: 479 962 479
GlifName: sigma1
Width: 1000
VWidth: 0
Flags: W
LayerCount: 2
Fore
SplineSet
700 885 m 257
 569 885 569 885 467 860 c 0
 365 835 365 835 300 793.5 c 0
 235 752 235 752 192.5 693.5 c 0
 150 635 150 635 133 572 c 0
 116 509 116 509 116 437 c 256
 116 366 116 366 142 300.5 c 0
 168 235 168 235 212 184 c 0
 256 133 256 133 302.5 96 c 0
 349 59 349 59 400 30 c 256
 430 13 430 13 487 -16 c 0
 544 -45 544 -45 572.5 -62 c 0
 601 -79 601 -79 635.5 -105 c 0
 670 -131 670 -131 685 -159.5 c 0
 700 -188 700 -188 700 -222 c 256
 700 -305 700 -305 544 -386 c 257
 634 -517 l 257
 750 -465 750 -465 823 -382 c 0
 896 -299 896 -299 896 -203 c 256
 896 -160 896 -160 885.5 -124 c 0
 875 -88 875 -88 853 -58.5 c 0
 831 -29 831 -29 807 -6.5 c 0
 783 16 783 16 745 39.5 c 0
 707 63 707 63 676 79.5 c 0
 645 96 645 96 597 121 c 0
 549 146 549 146 517 164 c 256
 419 220 419 220 370 296 c 0
 321 372 321 372 321 447 c 256
 321 504 321 504 337.5 549 c 0
 354 594 354 594 380.5 624 c 0
 407 654 407 654 448 676 c 0
 489 698 489 698 528.5 710 c 0
 568 722 568 722 620.5 729 c 0
 673 736 673 736 713 737.5 c 0
 753 739 753 739 805 739 c 257
 830 885 l 257
 700 885 l 257
EndSplineSet
EndChar
StartChar: phi
Encoding: 417 966 417
GlifName: phi
Width: 1500
VWidth: 0
Flags: W
LayerCount: 2
Fore
SplineSet
651 1100 m 257
 651 997 l 257
 584 989 584 989 521 971 c 257
 413 940 413 940 330.5 876.5 c 128
 248 813 248 813 199 719.5 c 128
 150 626 150 626 150 500 c 257
 150 374 150 374 199 279.5 c 128
 248 185 248 185 330.5 123 c 128
 413 61 413 61 521 29 c 257
 584 11 584 11 651 2 c 257
 651 -500 l 257
 843 -500 l 257
 843 2 l 257
 910 11 910 11 975 29 c 257
 1083 61 1083 61 1165.5 123 c 128
 1248 185 1248 185 1297.5 279.5 c 128
 1347 374 1347 374 1347 500 c 257
 1347 626 1347 626 1297.5 719.5 c 128
 1248 813 1248 813 1165 876.5 c 128
 1082 940 1082 940 974 971 c 257
 909 990 909 990 843 997 c 257
 843 1120 l 257
 651 1100 l 257
906 840 m 257
 984 819 984 819 1044 775 c 128
 1104 731 1104 731 1140.5 662.5 c 128
 1177 594 1177 594 1177 500 c 257
 1177 405 1177 405 1140 337 c 128
 1103 269 1103 269 1042 224.5 c 128
 981 180 981 180 904 158 c 257
 873 150 873 150 843 145 c 257
 843 854 l 257
 874 850 874 850 906 840 c 257
591 158 m 257
 514 180 514 180 453.5 224.5 c 128
 393 269 393 269 356 337 c 128
 319 405 319 405 319 500 c 257
 319 594 319 594 355.5 662.5 c 128
 392 731 392 731 452 775 c 128
 512 819 512 819 589 840 c 257
 619 849 619 849 651 854 c 257
 651 145 l 257
 620 151 620 151 591 158 c 257
EndSplineSet
EndChar
StartChar: chi
Encoding: 185 967 185
GlifName: chi
Width: 1300
VWidth: 0
Flags: W
LayerCount: 2
Fore
SplineSet
691 53 m 257
NamedP: "hr00"
 614 230 l 257
 566 70 l 257
 251 -500 l 257
 53 -500 l 257
 523 329 l 257
 218 869 l 258
 190 917 190 917 160.5 946.5 c 0
 131 976 131 976 115.5 981.5 c 0
 100 987 l 257
 100 1117 l 257
 144 1117 144 1117 175 1112 c 0
 206 1107 206 1107 244.5 1090 c 0
 283 1073 283 1073 318.5 1036 c 0
 354 999 354 999 387 940 c 258
 590 586 l 257
 670 390 l 257
 705 550 l 257
 1003 1100 l 257
 1203 1100 l 257
 758 306 l 257
 1081 -265 l 258
 1108 -313 1108 -313 1138 -342.5 c 0
 1168 -372 1168 -372 1184 -377.5 c 0
 1200 -383 l 257
 1200 -517 l 257
 1166 -517 1166 -517 1140 -514 c 0
 1114 -511 1114 -511 1082.5 -500 c 0
 1051 -489 1051 -489 1024.5 -470 c 0
 998 -451 998 -451 968.5 -417 c 0
 939 -383 939 -383 912 -336 c 258
 691 53 l 257
NamedP: "hr00"
EndSplineSet
PickledDataWithLists: "(dp0
Vcom.adobe.type.autohint
p1
(c_codecs
encode
p2
(Vdata
p3
Vlatin1
p4
tp5
Rp6
g2
(V<data>\\u000a        <hintSetList>\\u000a          <hintset pointTag=\"hr00\">\\u000a            <hstem pos=\"1520\" width=\"-20\"/>\\u000a          </hintset>\\u000a        </hintSetList>\\u000a      </data>
p7
g4
tp8
Rp9
Ntp10
s."
EndChar
StartChar: psi
Encoding: 434 968 434
GlifName: psi
Width: 1500
VWidth: 0
Flags: W
LayerCount: 2
Fore
SplineSet
153 495 m 257
 153 461 153 461 154 435.5 c 0
 155 410 155 410 159 367.5 c 0
 163 325 163 325 170 292 c 0
 177 259 177 259 191.5 217 c 0
 206 175 206 175 226 144 c 0
 246 113 246 113 276.5 81 c 0
 307 49 307 49 345.5 29 c 0
 384 9 384 9 437 -4 c 0
 490 -17 490 -17 553 -17 c 258
 651 -17 l 257
 651 -500 l 257
 843 -500 l 257
 843 -17 l 257
 953 -17 l 258
 1016 -17 1016 -17 1069 -4 c 0
 1122 9 1122 9 1160.5 29 c 0
 1199 49 1199 49 1229.5 81 c 0
 1260 113 1260 113 1280 144 c 0
 1300 175 1300 175 1314.5 217 c 0
 1329 259 1329 259 1336 292 c 0
 1343 325 1343 325 1347 367.5 c 0
 1351 410 1351 410 1352 435.5 c 0
 1353 461 1353 461 1353 495 c 258
 1353 699 l 258
 1353 810 1353 810 1302.5 906 c 0
 1252 1002 1252 1002 1162 1059.5 c 0
 1072 1117 1072 1117 964 1117 c 257
 964 1007 l 257
 1022 1007 1022 1007 1092.5 911.5 c 0
 1163 816 1163 816 1163 672 c 258
 1163 497 l 258
 1163 434 1163 434 1158.5 385 c 0
 1154 336 1154 336 1141 286 c 0
 1128 236 1128 236 1105.5 203 c 0
 1083 170 1083 170 1044.5 149.5 c 0
 1006 129 1006 129 953 129 c 257
 952 128 952 128 843 128 c 257
 843 1120 l 257
 651 1100 l 257
 651 128 l 257
 553 129 l 257
 500 129 500 129 461.5 149.5 c 0
 423 170 423 170 400.5 203 c 0
 378 236 378 236 365 286 c 0
 352 336 352 336 347.5 385 c 0
 343 434 343 434 343 497 c 258
 343 820 l 257
 153 800 l 257
 153 495 l 257
EndSplineSet
EndChar
StartChar: omega
Encoding: 380 969 380
GlifName: omega
Width: 1600
VWidth: 0
Flags: W
LayerCount: 2
Fore
SplineSet
700 745 m 257
 700 482 l 258
 700 381 700 381 680.5 305 c 0
 661 229 661 229 611 179 c 0
 561 129 561 129 484 129 c 256
 431 129 431 129 392.5 149.5 c 0
 354 170 354 170 331.5 203.5 c 0
 309 237 309 237 296 290.5 c 0
 283 344 283 344 278.5 399.5 c 0
 274 455 274 455 274 530 c 256
 274 635 274 635 289 721 c 0
 304 807 304 807 326 858.5 c 0
 348 910 348 910 376 945 c 0
 404 980 404 980 428 993.5 c 0
 452 1007 452 1007 473 1007 c 257
 473 1117 l 257
 365 1117 365 1117 275 1040.5 c 0
 185 964 185 964 134.5 836.5 c 0
 84 709 84 709 84 560 c 256
 84 504 84 504 85.5 464 c 0
 87 424 87 424 95.5 359 c 0
 104 294 104 294 119 247.5 c 0
 134 201 134 201 163.5 148 c 0
 193 95 193 95 234.5 61.5 c 0
 276 28 276 28 340 5.5 c 0
 404 -17 404 -17 484 -17 c 256
 692 -17 692 -17 793 120 c 257
 894 -17 894 -17 1103 -17 c 256
 1183 -17 1183 -17 1247 5.5 c 0
 1311 28 1311 28 1352.5 61.5 c 0
 1394 95 1394 95 1423.5 148 c 0
 1453 201 1453 201 1468 247.5 c 0
 1483 294 1483 294 1491.5 359 c 0
 1500 424 1500 424 1501.5 464 c 0
 1503 504 1503 504 1503 560 c 256
 1503 709 1503 709 1452.5 836.5 c 0
 1402 964 1402 964 1312 1040.5 c 0
 1222 1117 1222 1117 1114 1117 c 257
 1114 1007 l 257
 1135 1007 1135 1007 1159 993.5 c 0
 1183 980 1183 980 1211 945 c 0
 1239 910 1239 910 1261 858.5 c 0
 1283 807 1283 807 1298 721 c 0
 1313 635 1313 635 1313 530 c 256
 1313 455 1313 455 1308.5 399.5 c 0
 1304 344 1304 344 1291 290.5 c 0
 1278 237 1278 237 1255.5 203.5 c 0
 1233 170 1233 170 1194.5 149.5 c 0
 1156 129 1156 129 1103 129 c 256
 1026 129 1026 129 976 179 c 0
 926 229 926 229 906.5 305 c 0
 887 381 887 381 887 482 c 258
 887 725 l 257
 700 745 l 257
EndSplineSet
EndChar
StartChar: omega1
Encoding: 381 982 381
GlifName: omega1
Width: 1600
VWidth: 0
Flags: W
LayerCount: 2
Fore
SplineSet
1520 1100 m 257
 100 1100 l 257
 80 942 l 257
 278 942 l 257
 170 885 l 257
 136 824 136 824 120 740 c 0
 104 656 104 656 104 495 c 257
 104 454 104 454 106.5 416 c 0
 109 378 109 378 119 324.5 c 0
 129 271 129 271 145 226.5 c 0
 161 182 161 182 191.5 135.5 c 0
 222 89 222 89 263 56.5 c 0
 304 24 304 24 366 3.5 c 0
 428 -17 428 -17 504 -17 c 256
 612 -17 612 -17 678 18 c 0
 744 53 744 53 793 120 c 257
 842 53 842 53 908.5 18 c 0
 975 -17 975 -17 1083 -17 c 256
 1159 -17 1159 -17 1221 3.5 c 0
 1283 24 1283 24 1324 56.5 c 0
 1365 89 1365 89 1395.5 135.5 c 0
 1426 182 1426 182 1442 226.5 c 0
 1458 271 1458 271 1468 324.5 c 0
 1478 378 1478 378 1480.5 416 c 0
 1483 454 1483 454 1483 495 c 256
 1483 656 1483 656 1467 740 c 0
 1451 824 1451 824 1417 885 c 257
 1309 942 l 257
 1500 942 l 257
 1520 1100 l 257
700 745 m 257
 700 482 l 258
 700 405 700 405 691.5 346 c 0
 683 287 683 287 662.5 235.5 c 0
 642 184 642 184 602 156.5 c 0
 562 129 562 129 504 129 c 256
 446 129 446 129 403.5 159 c 0
 361 189 361 189 338 242 c 0
 315 295 315 295 304.5 358 c 0
 294 421 294 421 294 497 c 256
 294 838 294 838 404 942 c 257
 1182 942 l 257
 1293 837 1293 837 1293 497 c 257
 1293 421 1293 421 1282.5 358 c 0
 1272 295 1272 295 1249 242 c 0
 1226 189 1226 189 1183.5 159 c 0
 1141 129 1141 129 1083 129 c 256
 1025 129 1025 129 985 156.5 c 0
 945 184 945 184 924.5 235.5 c 0
 904 287 904 287 895.5 346 c 0
 887 405 887 405 887 482 c 258
 887 725 l 257
 700 745 l 257
EndSplineSet
EndChar
StartChar: hyphentwo
Encoding: 310 8208 310
GlifName: hyphentwo
Width: 900
VWidth: 0
Flags: W
LayerCount: 2
Fore
SplineSet
200 600 m 257
 700 600 l 257
 700 445 l 257
 200 445 l 257
 200 600 l 257
EndSplineSet
EndChar
StartChar: emdash
Encoding: 243 8212 243
GlifName: emdash
Width: 2100
VWidth: 0
Flags: W
LayerCount: 2
Fore
SplineSet
0 446 m 257
 2000 446 l 257
 2000 600 l 257
 0 600 l 257
 0 446 l 257
EndSplineSet
EndChar
StartChar: quotationdash
Encoding: 438 8213 438
GlifName: quotationdash
Width: 1600
VWidth: 0
Flags: W
LayerCount: 2
Fore
SplineSet
200 600 m 257
 1400 600 l 257
 1400 445 l 257
 200 445 l 257
 200 600 l 257
EndSplineSet
EndChar
StartChar: dagger
Encoding: 215 8224 215
GlifName: dagger
Width: 1100
VWidth: 0
Flags: W
LayerCount: 2
Fore
SplineSet
100 1049 m 257
NamedP: "at02"
 400 1049 l 257
NamedP: "dh01"
 400 1500 l 257
 600 1520 l 257
NamedP: "at01"
 600 1049 l 257
NamedP: "dh02"
 920 1049 l 257
 900 900 l 257
NamedP: "sv01"
 600 900 l 257
NamedP: "sh01"
 600 -400 l 257
NamedP: "av01"
 400 -400 l 257
NamedP: "sh02"
 400 900 l 257
NamedP: "sv02"
 100 900 l 257
NamedP: "sv03"
 100 1049 l 257
NamedP: "at02"
EndSplineSet
PickledDataWithLists: "(dp0
Vcom.adobe.type.autohint
p1
(c_codecs
encode
p2
(Vdata
p3
Vlatin1
p4
tp5
Rp6
g2
(V<data>\\u000a        <hintSetList>\\u000a          <hintset pointTag=\"at02\">\\u000a            <hstem pos=\"-379\" width=\"-21\"/>\\u000a            <hstem pos=\"900\" width=\"149\"/>\\u000a            <hstem pos=\"1520\" width=\"-20\"/>\\u000a            <vstem pos=\"400\" width=\"200\"/>\\u000a          </hintset>\\u000a        </hintSetList>\\u000a      </data>
p7
g4
tp8
Rp9
Ntp10
sVcom.fontlab.ttprogram
p11
(g2
(Vdata
p12
g4
tp13
Rp14
g2
(V<data>\\u000a        <ttProgram>\\u000a          <ttc code=\"doubleh\" point1=\"dh01\" point2=\"dh02\" stem=\"X: 208\"/>\\u000a          <ttc code=\"singleh\" point1=\"dh02\" point2=\"sh01\"/>\\u000a          <ttc code=\"singleh\" point1=\"dh01\" point2=\"sh02\"/>\\u000a          <ttc align=\"round\" code=\"alignv\" point=\"av01\"/>\\u000a          <ttc code=\"alignt\" point=\"at01\" zone=\"t: 1\"/>\\u000a          <ttc code=\"alignt\" point=\"at02\" zone=\"t: x\"/>\\u000a          <ttc code=\"alignt\" point=\"dh02\" zone=\"t: x\"/>\\u000a          <ttc code=\"singlev\" point1=\"dh02\" point2=\"sv01\" stem=\"Y: 153\"/>\\u000a          <ttc code=\"singlev\" point1=\"sv01\" point2=\"sv02\"/>\\u000a          <ttc code=\"singlev\" point1=\"sv02\" point2=\"sv03\"/>\\u000a        </ttProgram>\\u000a      </data>
p15
g4
tp16
Rp17
Ntp18
s."
EndChar
StartChar: triangularbullet
Encoding: 532 8227 532
GlifName: triangularbullet
Width: 900
VWidth: 0
Flags: W
LayerCount: 2
Fore
SplineSet
200 350 m 257
 700 650 l 257
 200 956 l 257
 200 350 l 257
EndSplineSet
EndChar
StartChar: perthousand
Encoding: 416 8240 416
GlifName: perthousand
Width: 2600
VWidth: 0
Flags: W
LayerCount: 2
Fore
SplineSet
2100 -20 m 256
 1954 -20 1954 -20 1860.5 88.5 c 0
 1767 197 1767 197 1767 360 c 256
 1767 523 1767 523 1858 628 c 0
 1949 733 1949 733 2100 733 c 256
 2245 733 2245 733 2338.5 627 c 0
 2432 521 2432 521 2432 360 c 256
 2432 195 2432 195 2340.5 87.5 c 0
 2249 -20 2249 -20 2100 -20 c 256
2276 349 m 256
 2276 413 2276 413 2259 466.5 c 0
 2242 520 2242 520 2200.5 557 c 0
 2159 594 2159 594 2099 594 c 256
 2015 594 2015 594 1971.5 530 c 0
 1928 466 1928 466 1928 375 c 256
 1928 273 1928 273 1972 202.5 c 0
 2016 132 2016 132 2104 132 c 256
 2188 132 2188 132 2232 195.5 c 0
 2276 259 2276 259 2276 349 c 256
EndSplineSet
Refer: 411 37 N 1 0 0 1 0 0 2
EndChar
StartChar: pertenthousandsign
Encoding: 415 8241 415
GlifName: pertenthousandsign
Width: 3300
VWidth: 0
Flags: W
LayerCount: 2
Fore
SplineSet
2100 -17 m 256
 1954 -17 1954 -17 1860.5 91.5 c 0
 1767 200 1767 200 1767 363 c 256
 1767 526 1767 526 1858 631 c 0
 1949 736 1949 736 2100 736 c 256
 2245 736 2245 736 2338.5 630 c 0
 2432 524 2432 524 2432 363 c 256
 2432 198 2432 198 2340.5 90.5 c 0
 2249 -17 2249 -17 2100 -17 c 256
2276 352 m 256
 2276 416 2276 416 2259 469.5 c 0
 2242 523 2242 523 2200.5 560 c 0
 2159 597 2159 597 2099 597 c 256
 2015 597 2015 597 1971.5 533 c 0
 1928 469 1928 469 1928 378 c 256
 1928 276 1928 276 1972 205.5 c 0
 2016 135 2016 135 2104 135 c 256
 2188 135 2188 135 2232 198.5 c 0
 2276 262 2276 262 2276 352 c 256
2800 -17 m 256
 2654 -17 2654 -17 2560.5 91.5 c 0
 2467 200 2467 200 2467 363 c 256
 2467 526 2467 526 2558 631 c 0
 2649 736 2649 736 2800 736 c 256
 2945 736 2945 736 3038.5 630 c 0
 3132 524 3132 524 3132 363 c 256
 3132 198 3132 198 3040.5 90.5 c 0
 2949 -17 2949 -17 2800 -17 c 256
2976 352 m 256
 2976 416 2976 416 2959 469.5 c 0
 2942 523 2942 523 2900.5 560 c 0
 2859 597 2859 597 2799 597 c 256
 2715 597 2715 597 2671.5 533 c 0
 2628 469 2628 469 2628 378 c 256
 2628 276 2628 276 2672 205.5 c 0
 2716 135 2716 135 2804 135 c 256
 2888 135 2888 135 2932 198.5 c 0
 2976 262 2976 262 2976 352 c 256
EndSplineSet
Refer: 411 37 N 1 0 0 1 0 0 2
EndChar
StartChar: minute
Encoding: 353 8242 353
GlifName: minute
Width: 500
VWidth: 0
Flags: W
LayerCount: 2
Fore
SplineSet
348 1245 m 257
 184 885 l 257
 99 885 l 257
 169 1245 l 257
 169 1517 l 257
 348 1493 l 257
 348 1245 l 257
EndSplineSet
EndChar
StartChar: foursuperior
Encoding: 285 8308 285
GlifName: foursuperior
Width: 600
VWidth: 0
Flags: W
LayerCount: 2
Fore
SplineSet
542 870 m 257
NamedP: "hr00"
 452 870 l 257
 452 720 l 257
 347 720 l 257
 347 870 l 257
 50 870 l 257
 50 955 l 257
 292 1480 l 257
 386 1470 l 257
 179 1020 l 257
 132 950 l 257
 347 950 l 257
 347 1153 l 257
 452 1145 l 257
 452 950 l 257
 550 950 l 257
 542 870 l 257
NamedP: "hr00"
EndSplineSet
PickledDataWithLists: "(dp0
Vcom.adobe.type.autohint
p1
(c_codecs
encode
p2
(Vdata
p3
Vlatin1
p4
tp5
Rp6
g2
(V<data>\\u000a        <hintSetList>\\u000a          <hintset pointTag=\"hr00\">\\u000a            <hstem pos=\"730\" width=\"-10\"/>\\u000a            <hstem pos=\"870\" width=\"80\"/>\\u000a            <hstem pos=\"1480\" width=\"-10\"/>\\u000a            <vstem pos=\"347\" width=\"105\"/>\\u000a          </hintset>\\u000a        </hintSetList>\\u000a      </data>
p7
g4
tp8
Rp9
Ntp10
s."
EndChar
StartChar: fivesuperior
Encoding: 275 8309 275
GlifName: fivesuperior
Width: 600
VWidth: 0
Flags: W
LayerCount: 2
Fore
SplineSet
204 1211 m 257
NamedP: "hr00"
 207 1213 207 1213 216 1217.5 c 128
 225 1222 225 1222 238 1226.5 c 128
 251 1231 251 1231 267.5 1234 c 128
 284 1237 284 1237 305 1237 c 257
 357 1237 357 1237 397.5 1221 c 128
 438 1205 438 1205 466.5 1176.5 c 128
 495 1148 495 1148 509.5 1110 c 128
 524 1072 524 1072 524 1029 c 257
 524 979 524 979 506 936 c 128
 488 893 488 893 457 859 c 128
 426 825 426 825 384 799 c 128
 342 773 342 773 295 755 c 128
 248 737 248 737 198 728.5 c 128
 148 720 148 720 100 720 c 257
 100 800 l 257
 137 801 137 801 175.5 809 c 128
 214 817 214 817 250 831 c 128
 286 845 286 845 317 864.5 c 128
 348 884 348 884 371.5 907.5 c 128
 395 931 395 931 408.5 959 c 128
 422 987 422 987 422 1019 c 257
 422 1044 422 1044 413.5 1068 c 128
 405 1092 405 1092 389 1111 c 128
 373 1130 373 1130 348.5 1141.5 c 128
 324 1153 324 1153 291 1153 c 257
 266 1153 266 1153 245.5 1149.5 c 128
 225 1146 225 1146 208.5 1141.5 c 128
 192 1137 192 1137 180.5 1131 c 128
 169 1125 169 1125 162 1120 c 257
 100 1120 l 257
 100 1470 l 257
 476 1470 l 257
 476 1390 l 257
 204 1390 l 257
 204 1211 l 257
NamedP: "hr00"
EndSplineSet
PickledDataWithLists: "(dp0
Vcom.adobe.type.autohint
p1
(c_codecs
encode
p2
(Vdata
p3
Vlatin1
p4
tp5
Rp6
g2
(V<data>\\u000a        <hintSetList>\\u000a          <hintset pointTag=\"hr00\">\\u000a            <hstem pos=\"720\" width=\"80\"/>\\u000a            <hstem pos=\"1153\" width=\"84\"/>\\u000a            <hstem pos=\"1390\" width=\"80\"/>\\u000a            <vstem pos=\"100\" width=\"104\"/>\\u000a            <vstem pos=\"422\" width=\"102\"/>\\u000a          </hintset>\\u000a        </hintSetList>\\u000a      </data>
p7
g4
tp8
Rp9
Ntp10
s."
EndChar
StartChar: sixsuperior
Encoding: 484 8310 484
GlifName: sixsuperior
Width: 600
VWidth: 0
Flags: W
LayerCount: 2
Fore
SplineSet
464 1392 m 257
NamedP: "hr00"
 461 1393 461 1393 454 1393 c 128
 447 1393 447 1393 442 1393 c 257
 406 1393 406 1393 372 1382 c 128
 338 1371 338 1371 308 1350.5 c 128
 278 1330 278 1330 252.5 1301.5 c 128
 227 1273 227 1273 208 1238.5 c 128
 189 1204 189 1204 176.5 1165 c 128
 164 1126 164 1126 160 1085 c 257
 201 1143 l 257
 214 1151 214 1151 230.5 1158.5 c 128
 247 1166 247 1166 265.5 1171.5 c 128
 284 1177 284 1177 303 1180 c 128
 322 1183 322 1183 339 1183 c 257
 383 1183 383 1183 423 1171 c 128
 463 1159 463 1159 494.5 1134 c 128
 526 1109 526 1109 544.5 1070 c 128
 563 1031 563 1031 563 976 c 257
 563 922 563 922 545 874 c 128
 527 826 527 826 494 789.5 c 128
 461 753 461 753 415 732 c 128
 369 711 369 711 313 711 c 257
 264 711 264 711 226 727 c 128
 188 743 188 743 160 769 c 128
 132 795 132 795 113.5 828.5 c 128
 95 862 95 862 83 897 c 128
 71 932 71 932 66 966.5 c 128
 61 1001 61 1001 61 1030 c 257
 61 1089 61 1089 73.5 1145.5 c 128
 86 1202 86 1202 109 1252 c 128
 132 1302 132 1302 165.5 1343.5 c 128
 199 1385 199 1385 242 1415 c 128
 285 1445 285 1445 336 1461.5 c 128
 387 1478 387 1478 446 1478 c 257
 454 1478 454 1478 463 1478 c 128
 472 1478 472 1478 477 1477 c 257
 464 1392 l 257
NamedP: "hr00"
164 1018 m 257
 164 1004 164 1004 164.5 992.5 c 128
 165 981 165 981 166 970 c 128
 167 959 167 959 169 948 c 128
 171 937 171 937 175 923 c 257
 182 895 182 895 194 871.5 c 128
 206 848 206 848 223 831.5 c 128
 240 815 240 815 263 805.5 c 128
 286 796 286 796 314 796 c 257
 354 796 354 796 381.5 811 c 128
 409 826 409 826 426.5 851 c 128
 444 876 444 876 452.5 907.5 c 128
 461 939 461 939 461 971 c 257
 461 1003 461 1003 451.5 1027 c 128
 442 1051 442 1051 425 1066.5 c 128
 408 1082 408 1082 384.5 1090 c 128
 361 1098 361 1098 332 1098 c 257
 305 1098 305 1098 279.5 1091.5 c 128
 254 1085 254 1085 231.5 1074 c 128
 209 1063 209 1063 192 1048.5 c 128
 175 1034 175 1034 164 1018 c 257
EndSplineSet
PickledDataWithLists: "(dp0
Vcom.adobe.type.autohint
p1
(c_codecs
encode
p2
(Vdata
p3
Vlatin1
p4
tp5
Rp6
g2
(V<data>\\u000a        <hintSetList>\\u000a          <hintset pointTag=\"hr00\">\\u000a            <hstem pos=\"711\" width=\"85\"/>\\u000a            <hstem pos=\"1098\" width=\"85\"/>\\u000a            <hstem pos=\"1393\" width=\"85\"/>\\u000a            <vstem pos=\"61\" width=\"103\"/>\\u000a            <vstem pos=\"461\" width=\"102\"/>\\u000a          </hintset>\\u000a        </hintSetList>\\u000a      </data>
p7
g4
tp8
Rp9
Ntp10
s."
EndChar
StartChar: nsuperior
Encoding: 369 8319 369
GlifName: nsuperior
Width: 600
VWidth: 0
Flags: W
LayerCount: 2
Fore
SplineSet
195 720 m 257
NamedP: "hr00"
 100 720 l 257
 100 1270 l 257
 195 1280 l 257
 195 1188 l 257
 225 1242 l 257
 234 1248 234 1248 248 1254.5 c 128
 262 1261 262 1261 279.5 1266 c 128
 297 1271 297 1271 317 1274.5 c 128
 337 1278 337 1278 357 1278 c 257
 397 1278 397 1278 424 1265.5 c 128
 451 1253 451 1253 468 1229 c 128
 485 1205 485 1205 492.5 1171 c 128
 500 1137 500 1137 500 1095 c 257
 500 720 l 257
 405 720 l 257
 405 1095 l 257
 405 1122 405 1122 401 1141.5 c 128
 397 1161 397 1161 388 1173.5 c 128
 379 1186 379 1186 363.5 1192 c 128
 348 1198 348 1198 325 1198 c 257
 308 1198 308 1198 290.5 1193 c 128
 273 1188 273 1188 256 1179.5 c 128
 239 1171 239 1171 223.5 1161 c 128
 208 1151 208 1151 195 1142 c 257
 195 720 l 257
NamedP: "hr00"
EndSplineSet
PickledDataWithLists: "(dp0
Vcom.adobe.type.autohint
p1
(c_codecs
encode
p2
(Vdata
p3
Vlatin1
p4
tp5
Rp6
g2
(V<data>\\u000a        <hintSetList>\\u000a          <hintset pointTag=\"hr00\">\\u000a            <hstem pos=\"730\" width=\"-10\"/>\\u000a            <hstem pos=\"1198\" width=\"80\"/>\\u000a            <vstem pos=\"100\" width=\"95\"/>\\u000a            <vstem pos=\"405\" width=\"95\"/>\\u000a          </hintset>\\u000a        </hintSetList>\\u000a      </data>
p7
g4
tp8
Rp9
Ntp10
s."
EndChar
StartChar: zeroinferior
Encoding: 588 8320 588
GlifName: zeroinferior
Width: 600
VWidth: 0
Flags: W
LayerCount: 2
Fore
SplineSet
300 -509 m 257
NamedP: "hr00"
 257 -509 257 -509 221.5 -492.5 c 128
 186 -476 186 -476 158 -448 c 128
 130 -420 130 -420 108.5 -382.5 c 128
 87 -345 87 -345 73 -302.5 c 128
 59 -260 59 -260 52 -214.5 c 128
 45 -169 45 -169 45 -125 c 257
 45 -80 45 -80 51 -34 c 128
 57 12 57 12 70 54.5 c 128
 83 97 83 97 103 134 c 128
 123 171 123 171 151.5 198.5 c 128
 180 226 180 226 216.5 242 c 128
 253 258 253 258 300 258 c 257
 342 258 342 258 377.5 242 c 128
 413 226 413 226 441.5 198 c 128
 470 170 470 170 491 132.5 c 128
 512 95 512 95 526.5 52 c 128
 541 9 541 9 548 -36.5 c 128
 555 -82 555 -82 555 -125 c 257
 555 -170 555 -170 549 -216 c 128
 543 -262 543 -262 530 -304.5 c 128
 517 -347 517 -347 496.5 -384.5 c 128
 476 -422 476 -422 448 -449.5 c 128
 420 -477 420 -477 383 -493 c 128
 346 -509 346 -509 300 -509 c 257
NamedP: "hr00"
148 -104 m 257
 148 -133 148 -133 150 -167.5 c 128
 152 -202 152 -202 158 -237.5 c 128
 164 -273 164 -273 175 -306 c 128
 186 -339 186 -339 203 -364.5 c 128
 220 -390 220 -390 245 -405.5 c 128
 270 -421 270 -421 304 -421 c 257
 334 -421 334 -421 357 -409.5 c 128
 380 -398 380 -398 396.5 -377.5 c 128
 413 -357 413 -357 423.5 -330.5 c 128
 434 -304 434 -304 440 -273.5 c 128
 446 -243 446 -243 448.5 -210.5 c 128
 451 -178 451 -178 451 -147 c 257
 451 -118 451 -118 449 -83 c 128
 447 -48 447 -48 441 -13 c 128
 435 22 435 22 424.5 55 c 128
 414 88 414 88 396.5 113.5 c 128
 379 139 379 139 354.5 154.5 c 128
 330 170 330 170 296 170 c 257
 265 170 265 170 242.5 158.5 c 128
 220 147 220 147 203.5 127 c 128
 187 107 187 107 176.5 80 c 128
 166 53 166 53 159.5 22.5 c 128
 153 -8 153 -8 150.5 -40.5 c 128
 148 -73 148 -73 148 -104 c 257
EndSplineSet
PickledDataWithLists: "(dp0
Vcom.adobe.type.autohint
p1
(c_codecs
encode
p2
(Vdata
p3
Vlatin1
p4
tp5
Rp6
g2
(V<data>\\u000a        <hintSetList>\\u000a          <hintset pointTag=\"hr00\">\\u000a            <hstem pos=\"-509\" width=\"88\"/>\\u000a            <hstem pos=\"170\" width=\"88\"/>\\u000a            <vstem pos=\"45\" width=\"103\"/>\\u000a            <vstem pos=\"451\" width=\"104\"/>\\u000a          </hintset>\\u000a        </hintSetList>\\u000a      </data>
p7
g4
tp8
Rp9
Ntp10
s."
EndChar
StartChar: twoinferior
Encoding: 538 8322 538
GlifName: twoinferior
Width: 600
VWidth: 0
Flags: W
LayerCount: 2
Fore
SplineSet
76 -500 m 257
NamedP: "hr00"
 76 -416 l 257
 100 -378 100 -378 127.5 -341.5 c 128
 155 -305 155 -305 183.5 -270.5 c 128
 212 -236 212 -236 239.5 -205.5 c 128
 267 -175 267 -175 290 -149 c 257
 315 -121 315 -121 338 -96.5 c 128
 361 -72 361 -72 378.5 -47.5 c 128
 396 -23 396 -23 406.5 2.5 c 128
 417 28 417 28 417 57 c 257
 417 81 417 81 408 102.5 c 128
 399 124 399 124 383 139.5 c 128
 367 155 367 155 344.5 164.5 c 128
 322 174 322 174 295 174 c 257
 264 174 264 174 242 165.5 c 128
 220 157 220 157 203 143.5 c 128
 186 130 186 130 174 113.5 c 128
 162 97 162 97 151 80 c 257
 81 110 l 257
 94 142 94 142 114 169.5 c 128
 134 197 134 197 161.5 216.5 c 128
 189 236 189 236 224 247 c 128
 259 258 259 258 302 258 c 257
 353 258 353 258 392.5 240 c 128
 432 222 432 222 459 193 c 128
 486 164 486 164 500.5 127 c 128
 515 90 515 90 515 52 c 257
 515 13 515 13 500.5 -21.5 c 128
 486 -56 486 -56 465 -87.5 c 128
 444 -119 444 -119 419.5 -146.5 c 128
 395 -174 395 -174 374 -198 c 257
 348 -228 348 -228 322 -257.5 c 128
 296 -287 296 -287 272.5 -315.5 c 128
 249 -344 249 -344 228.5 -370 c 128
 208 -396 208 -396 193 -420 c 257
 528 -420 l 257
 528 -500 l 257
 76 -500 l 257
NamedP: "hr00"
EndSplineSet
PickledDataWithLists: "(dp0
Vcom.adobe.type.autohint
p1
(c_codecs
encode
p2
(Vdata
p3
Vlatin1
p4
tp5
Rp6
g2
(V<data>\\u000a        <hintSetList>\\u000a          <hintset pointTag=\"hr00\">\\u000a            <hstem pos=\"-500\" width=\"80\"/>\\u000a            <hstem pos=\"174\" width=\"84\"/>\\u000a            <vstem pos=\"417\" width=\"98\"/>\\u000a          </hintset>\\u000a        </hintSetList>\\u000a      </data>
p7
g4
tp8
Rp9
Ntp10
s."
EndChar
StartChar: threeinferior
Encoding: 523 8323 523
GlifName: threeinferior
Width: 600
VWidth: 0
Flags: W
LayerCount: 2
Fore
SplineSet
107 170 m 257
NamedP: "hr00"
 115 250 l 257
 480 250 l 257
 480 180 l 257
 474 160 474 160 459.5 138 c 128
 445 116 445 116 426 94 c 128
 407 72 407 72 384 50.5 c 128
 361 29 361 29 338 9 c 257
 272 -28 l 257
 277 -27 277 -27 285 -26.5 c 128
 293 -26 293 -26 300 -26 c 257
 348 -26 348 -26 390 -38 c 128
 432 -50 432 -50 462.5 -74.5 c 128
 493 -99 493 -99 511 -136 c 128
 529 -173 529 -173 529 -224 c 257
 529 -272 529 -272 511 -311.5 c 128
 493 -351 493 -351 461.5 -382 c 128
 430 -413 430 -413 388 -435 c 128
 346 -457 346 -457 298.5 -471.5 c 128
 251 -486 251 -486 200 -493 c 128
 149 -500 149 -500 100 -500 c 257
 100 -420 l 257
 141 -419 141 -419 181 -413 c 128
 221 -407 221 -407 257 -396 c 128
 293 -385 293 -385 323.5 -369.5 c 128
 354 -354 354 -354 376.5 -333.5 c 128
 399 -313 399 -313 411.5 -287 c 128
 424 -261 424 -261 424 -229 c 257
 424 -193 424 -193 408.5 -169 c 128
 393 -145 393 -145 366.5 -131 c 128
 340 -117 340 -117 304.5 -111 c 128
 269 -105 269 -105 228 -105 c 257
 212 -105 212 -105 193 -106 c 128
 174 -107 174 -107 159 -108 c 257
 159 -30 l 257
 180 -15 180 -15 204 4 c 128
 228 23 228 23 252.5 43.5 c 128
 277 64 277 64 300 85.5 c 128
 323 107 323 107 342 126 c 128
 361 145 361 145 374 161.5 c 128
 387 178 387 178 391 190 c 257
 315 170 l 257
 107 170 l 257
NamedP: "hr00"
EndSplineSet
PickledDataWithLists: "(dp0
Vcom.adobe.type.autohint
p1
(c_codecs
encode
p2
(Vdata
p3
Vlatin1
p4
tp5
Rp6
g2
(V<data>\\u000a        <hintSetList>\\u000a          <hintset pointTag=\"hr00\">\\u000a            <hstem pos=\"-500\" width=\"80\"/>\\u000a            <hstem pos=\"-105\" width=\"79\"/>\\u000a            <hstem pos=\"170\" width=\"80\"/>\\u000a            <vstem pos=\"424\" width=\"105\"/>\\u000a          </hintset>\\u000a        </hintSetList>\\u000a      </data>
p7
g4
tp8
Rp9
Ntp10
s."
EndChar
StartChar: fiveinferior
Encoding: 272 8325 272
GlifName: fiveinferior
Width: 600
VWidth: 0
Flags: W
LayerCount: 2
Fore
SplineSet
204 -9 m 257
NamedP: "hr00"
 207 -7 207 -7 216 -2.5 c 128
 225 2 225 2 238 6.5 c 128
 251 11 251 11 267.5 14 c 128
 284 17 284 17 305 17 c 257
 357 17 357 17 397.5 1 c 128
 438 -15 438 -15 466.5 -43.5 c 128
 495 -72 495 -72 509.5 -110 c 128
 524 -148 524 -148 524 -191 c 257
 524 -241 524 -241 506 -284 c 128
 488 -327 488 -327 457 -361 c 128
 426 -395 426 -395 384 -421 c 128
 342 -447 342 -447 295 -465 c 128
 248 -483 248 -483 198 -491.5 c 128
 148 -500 148 -500 100 -500 c 257
 100 -420 l 257
 137 -419 137 -419 175.5 -411 c 128
 214 -403 214 -403 250 -389 c 128
 286 -375 286 -375 317 -355.5 c 128
 348 -336 348 -336 371.5 -312.5 c 128
 395 -289 395 -289 408.5 -261 c 128
 422 -233 422 -233 422 -201 c 257
 422 -176 422 -176 413.5 -152 c 128
 405 -128 405 -128 389 -109 c 128
 373 -90 373 -90 348.5 -78.5 c 128
 324 -67 324 -67 291 -67 c 257
 266 -67 266 -67 245.5 -70.5 c 128
 225 -74 225 -74 208.5 -78.5 c 128
 192 -83 192 -83 180.5 -89 c 128
 169 -95 169 -95 162 -100 c 257
 100 -100 l 257
 100 250 l 257
 476 250 l 257
 476 170 l 257
 204 170 l 257
 204 -9 l 257
NamedP: "hr00"
EndSplineSet
PickledDataWithLists: "(dp0
Vcom.adobe.type.autohint
p1
(c_codecs
encode
p2
(Vdata
p3
Vlatin1
p4
tp5
Rp6
g2
(V<data>\\u000a        <hintSetList>\\u000a          <hintset pointTag=\"hr00\">\\u000a            <hstem pos=\"-500\" width=\"80\"/>\\u000a            <hstem pos=\"-67\" width=\"84\"/>\\u000a            <hstem pos=\"170\" width=\"80\"/>\\u000a            <vstem pos=\"100\" width=\"104\"/>\\u000a            <vstem pos=\"422\" width=\"102\"/>\\u000a          </hintset>\\u000a        </hintSetList>\\u000a      </data>
p7
g4
tp8
Rp9
Ntp10
s."
EndChar
StartChar: seveninferior
Encoding: 473 8327 473
GlifName: seveninferior
Width: 600
VWidth: 0
Flags: W
LayerCount: 2
Fore
SplineSet
100 250 m 257
NamedP: "hr00"
 550 250 l 257
 550 185 l 257
 550 163 550 163 533.5 129.5 c 128
 517 96 517 96 492 54 c 128
 467 12 467 12 437.5 -36.5 c 128
 408 -85 408 -85 381 -135.5 c 128
 354 -186 354 -186 334 -237 c 128
 314 -288 314 -288 309 -336 c 257
 306 -356 306 -356 305 -378 c 128
 304 -400 304 -400 303 -421.5 c 128
 302 -443 302 -443 302 -463 c 128
 302 -483 302 -483 302 -500 c 257
 200 -500 l 257
 200 -485 200 -485 200 -460 c 128
 200 -435 200 -435 201 -407 c 128
 202 -379 202 -379 204.5 -351.5 c 128
 207 -324 207 -324 211 -304 c 257
 222 -251 222 -251 243.5 -199 c 128
 265 -147 265 -147 290.5 -99.5 c 128
 316 -52 316 -52 342.5 -9.5 c 128
 369 33 369 33 390.5 68 c 128
 412 103 412 103 425.5 129 c 128
 439 155 439 155 439 170 c 257
 100 170 l 257
 100 250 l 257
NamedP: "hr00"
EndSplineSet
PickledDataWithLists: "(dp0
Vcom.adobe.type.autohint
p1
(c_codecs
encode
p2
(Vdata
p3
Vlatin1
p4
tp5
Rp6
g2
(V<data>\\u000a        <hintSetList>\\u000a          <hintset pointTag=\"hr00\">\\u000a            <hstem pos=\"-490\" width=\"-10\"/>\\u000a            <hstem pos=\"170\" width=\"80\"/>\\u000a            <vstem pos=\"200\" width=\"102\"/>\\u000a            <vstem pos=\"439\" width=\"111\"/>\\u000a          </hintset>\\u000a        </hintSetList>\\u000a      </data>
p7
g4
tp8
Rp9
Ntp10
s."
EndChar
StartChar: heightinferior
Encoding: 302 8328 302
GlifName: heightinferior
Width: 600
VWidth: 0
Flags: W
LayerCount: 2
Fore
SplineSet
305 258 m 257
NamedP: "hr00"
 351 258 351 258 390 245.5 c 128
 429 233 429 233 457 209.5 c 128
 485 186 485 186 501 152.5 c 128
 517 119 517 119 517 77 c 257
 517 48 517 48 508.5 25 c 128
 500 2 500 2 485 -16.5 c 128
 470 -35 470 -35 450 -49.5 c 128
 430 -64 430 -64 408 -77 c 257
 445 -94 445 -94 474.5 -115 c 128
 504 -136 504 -136 524 -163 c 128
 544 -190 544 -190 555 -223 c 128
 566 -256 566 -256 566 -295 c 257
 566 -351 566 -351 544 -391 c 128
 522 -431 522 -431 485.5 -457.5 c 128
 449 -484 449 -484 403 -496.5 c 128
 357 -509 357 -509 308 -509 c 257
 261 -509 261 -509 217 -494.5 c 128
 173 -480 173 -480 139 -452.5 c 128
 105 -425 105 -425 84.5 -383.5 c 128
 64 -342 64 -342 64 -288 c 257
 64 -248 64 -248 75.5 -215.5 c 128
 87 -183 87 -183 107 -157 c 128
 127 -131 127 -131 154.5 -111 c 128
 182 -91 182 -91 214 -75 c 257
 191 -61 191 -61 170.5 -45.5 c 128
 150 -30 150 -30 135 -12 c 128
 120 6 120 6 111 26.5 c 128
 102 47 102 47 102 72 c 257
 102 120 102 120 121.5 155.5 c 128
 141 191 141 191 171 213.5 c 128
 201 236 201 236 236.5 247 c 128
 272 258 272 258 305 258 c 257
NamedP: "hr00"
300 -120 m 257
 268 -134 268 -134 243 -150 c 128
 218 -166 218 -166 200 -187 c 128
 182 -208 182 -208 172.5 -234 c 128
 163 -260 163 -260 163 -293 c 257
 163 -323 163 -323 175 -347.5 c 128
 187 -372 187 -372 207.5 -390 c 128
 228 -408 228 -408 254.5 -417.5 c 128
 281 -427 281 -427 309 -427 c 257
 341 -427 341 -427 369.5 -418 c 128
 398 -409 398 -409 420 -392 c 128
 442 -375 442 -375 454.5 -350 c 128
 467 -325 467 -325 467 -293 c 257
 467 -259 467 -259 452 -233 c 128
 437 -207 437 -207 413.5 -186 c 128
 390 -165 390 -165 360 -149 c 128
 330 -133 330 -133 300 -120 c 257
320 -39 m 257
 366 -18 366 -18 393.5 11 c 128
 421 40 421 40 421 81 c 257
 421 106 421 106 410.5 124 c 128
 400 142 400 142 384.5 153.5 c 128
 369 165 369 165 350.5 170.5 c 128
 332 176 332 176 315 176 c 257
 292 176 292 176 271 169 c 128
 250 162 250 162 234 149.5 c 128
 218 137 218 137 208.5 120 c 128
 199 103 199 103 199 83 c 257
 199 60 199 60 208.5 42.5 c 128
 218 25 218 25 235 10.5 c 128
 252 -4 252 -4 274 -16 c 128
 296 -28 296 -28 320 -39 c 257
EndSplineSet
PickledDataWithLists: "(dp0
Vcom.adobe.type.autohint
p1
(c_codecs
encode
p2
(Vdata
p3
Vlatin1
p4
tp5
Rp6
g2
(V<data>\\u000a        <hintSetList>\\u000a          <hintset pointTag=\"hr00\">\\u000a            <hstem pos=\"-509\" width=\"82\"/>\\u000a            <hstem pos=\"176\" width=\"82\"/>\\u000a            <vstem pos=\"64\" width=\"99\"/>\\u000a            <vstem pos=\"467\" width=\"99\"/>\\u000a          </hintset>\\u000a        </hintSetList>\\u000a      </data>
p7
g4
tp8
Rp9
Ntp10
s."
EndChar
StartChar: nineinferior
Encoding: 362 8329 362
GlifName: nineinferior
Width: 600
VWidth: 0
Flags: W
LayerCount: 2
Fore
SplineSet
424 -169 m 257
NamedP: "hr00"
 394 -192 394 -192 364.5 -203 c 128
 335 -214 335 -214 297 -214 c 257
 248 -214 248 -214 205.5 -197.5 c 128
 163 -181 163 -181 131.5 -151 c 128
 100 -121 100 -121 82 -79 c 128
 64 -37 64 -37 64 15 c 257
 64 69 64 69 81.5 113.5 c 128
 99 158 99 158 130.5 190.5 c 128
 162 223 162 223 207.5 240.5 c 128
 253 258 253 258 309 258 c 257
 359 258 359 258 397 242.5 c 128
 435 227 435 227 463 201.5 c 128
 491 176 491 176 510 143 c 128
 529 110 529 110 540 74.5 c 128
 551 39 551 39 556 4 c 128
 561 -31 561 -31 561 -60 c 257
 561 -119 561 -119 549 -174 c 128
 537 -229 537 -229 514.5 -278 c 128
 492 -327 492 -327 459 -368 c 128
 426 -409 426 -409 383.5 -439.5 c 128
 341 -470 341 -470 290 -488 c 128
 239 -506 239 -506 180 -509 c 257
 165 -425 l 257
 225 -422 225 -422 277.5 -396.5 c 128
 330 -371 330 -371 370.5 -329 c 128
 411 -287 411 -287 435.5 -230.5 c 128
 460 -174 460 -174 464 -110 c 257
 424 -169 l 257
NamedP: "hr00"
458 -24 m 257
 456 14 456 14 446.5 49 c 128
 437 84 437 84 419.5 112 c 128
 402 140 402 140 375.5 156.5 c 128
 349 173 349 173 313 173 c 257
 279 173 279 173 252 162 c 128
 225 151 225 151 206 131.5 c 128
 187 112 187 112 176.5 84.5 c 128
 166 57 166 57 166 24 c 257
 166 -8 166 -8 174.5 -36 c 128
 183 -64 183 -64 199.5 -84.5 c 128
 216 -105 216 -105 242 -117 c 128
 268 -129 268 -129 302 -129 c 257
 329 -129 329 -129 353 -120.5 c 128
 377 -112 377 -112 397.5 -97.5 c 128
 418 -83 418 -83 433.5 -64 c 128
 449 -45 449 -45 458 -24 c 257
EndSplineSet
PickledDataWithLists: "(dp0
Vcom.adobe.type.autohint
p1
(c_codecs
encode
p2
(Vdata
p3
Vlatin1
p4
tp5
Rp6
g2
(V<data>\\u000a        <hintSetList>\\u000a          <hintset pointTag=\"hr00\">\\u000a            <hstem pos=\"-509\" width=\"84\"/>\\u000a            <hstem pos=\"-214\" width=\"85\"/>\\u000a            <hstem pos=\"173\" width=\"85\"/>\\u000a            <vstem pos=\"64\" width=\"102\"/>\\u000a            <vstem pos=\"458\" width=\"103\"/>\\u000a          </hintset>\\u000a        </hintSetList>\\u000a      </data>
p7
g4
tp8
Rp9
Ntp10
s."
EndChar
StartChar: Euro
Encoding: 27 8364 27
GlifName: E_uro
Width: 1400
VWidth: 0
Flags: W
LayerCount: 2
Fore
SplineSet
369 596 m 257
 402 685 l 257
 398 725 398 725 398 773 c 256
 398 825 398 825 400 850 c 257
 952 850 l 257
 1030 1000 l 257
 473 1000 l 257
 415 963 l 257
 451 1141 451 1141 557.5 1244.5 c 0
 664 1348 664 1348 847 1348 c 256
 1028 1348 1028 1348 1161 1252 c 257
 1224 1373 l 257
 1152 1442 1152 1442 1049 1479.5 c 0
 946 1517 946 1517 831 1517 c 256
 578 1517 578 1517 421.5 1375.5 c 0
 265 1234 265 1234 213 1000 c 257
 48 1000 l 257
 48 850 l 257
 192 850 l 257
 189 810 189 810 189 770 c 256
 189 710 189 710 195 651 c 257
 48 651 l 257
 48 500 l 257
 222 500 l 257
 282 267 282 267 435.5 125 c 0
 589 -17 589 -17 808 -17 c 256
 1054 -17 1054 -17 1206 104 c 257
 1129 230 l 257
 1051 186 1051 186 987.5 169.5 c 0
 924 153 924 153 834 153 c 256
 687 153 687 153 587.5 249.5 c 0
 488 346 488 346 439 500 c 257
 771 500 l 257
 850 651 l 257
 453 651 l 257
 369 596 l 257
EndSplineSet
EndChar
